<svg width="48.000000" height="48.000000" viewBox="0 0 48 48" fill="none" xmlns="http://www.w3.org/2000/svg" xmlns:xlink="http://www.w3.org/1999/xlink">
	<desc>
			Created with Pixso.
	</desc>
	<defs/>
	<path id="Path" d="M24 4L24 11.97C30.6 11.97 35.96 17.33 35.96 23.94L43.94 23.94C43.94 12.92 35.01 4 24 4Z" stroke="#2E1066" stroke-opacity="1.000000" stroke-width="2.000000" stroke-linejoin="round"/>
	<path id="Path" d="M24 4L24 11.97C30.6 11.97 35.96 17.33 35.96 23.94L43.94 23.94C43.94 12.92 35.01 4 24 4Z" stroke="#410F9E" stroke-opacity="1.000000" stroke-width="2.000000" stroke-linejoin="round"/>
	<path id="Path" d="M24 4L24 11.97C30.6 11.97 35.96 17.33 35.96 23.94L43.94 23.94C43.94 12.92 35.01 4 24 4Z" stroke="#453888" stroke-opacity="1.000000" stroke-width="2.000000" stroke-linejoin="round"/>
	<path id="Path" d="M24 4L24 11.97C30.6 11.97 35.96 17.33 35.96 23.94L43.94 23.94C43.94 12.92 35.01 4 24 4Z" stroke="#5946D7" stroke-opacity="1.000000" stroke-width="2.000000" stroke-linejoin="round"/>
	<path id="Path" d="M39.84 23.94L39.84 25.04C39.84 34.41 32.25 42 22.89 42C13.52 42 5.94 34.41 5.94 25.04C5.94 15.68 13.52 8.09 22.89 8.09L24 8.09" stroke="#2E1066" stroke-opacity="1.000000" stroke-width="2.000000" stroke-linejoin="round" stroke-linecap="round"/>
	<path id="Path" d="M39.84 23.94L39.84 25.04C39.84 34.41 32.25 42 22.89 42C13.52 42 5.94 34.41 5.94 25.04C5.94 15.68 13.52 8.09 22.89 8.09L24 8.09" stroke="#410F9E" stroke-opacity="1.000000" stroke-width="2.000000" stroke-linejoin="round" stroke-linecap="round"/>
	<path id="Path" d="M39.84 23.94L39.84 25.04C39.84 34.41 32.25 42 22.89 42C13.52 42 5.94 34.41 5.94 25.04C5.94 15.68 13.52 8.09 22.89 8.09L24 8.09" stroke="#453888" stroke-opacity="1.000000" stroke-width="2.000000" stroke-linejoin="round" stroke-linecap="round"/>
	<path id="Path" d="M39.84 23.94L39.84 25.04C39.84 34.41 32.25 42 22.89 42C13.52 42 5.94 34.41 5.94 25.04C5.94 15.68 13.52 8.09 22.89 8.09L24 8.09" stroke="#5946D7" stroke-opacity="1.000000" stroke-width="2.000000" stroke-linejoin="round" stroke-linecap="round"/>
	<path id="Path" d="M27.35 29.51C24.89 31.98 20.89 31.98 18.42 29.51C15.96 27.04 15.96 23.05 18.42 20.58C20.89 18.11 24.89 18.11 27.35 20.58C29.82 23.05 29.82 27.04 27.35 29.51Z" stroke="#2E1066" stroke-opacity="1.000000" stroke-width="2.000000" stroke-linejoin="round"/>
	<path id="Path" d="M27.35 29.51C24.89 31.98 20.89 31.98 18.42 29.51C15.96 27.04 15.96 23.05 18.42 20.58C20.89 18.11 24.89 18.11 27.35 20.58C29.82 23.05 29.82 27.04 27.35 29.51Z" stroke="#410F9E" stroke-opacity="1.000000" stroke-width="2.000000" stroke-linejoin="round"/>
	<path id="Path" d="M27.35 29.51C24.89 31.98 20.89 31.98 18.42 29.51C15.96 27.04 15.96 23.05 18.42 20.58C20.89 18.11 24.89 18.11 27.35 20.58C29.82 23.05 29.82 27.04 27.35 29.51Z" stroke="#453888" stroke-opacity="1.000000" stroke-width="2.000000" stroke-linejoin="round"/>
	<path id="Path" d="M27.35 29.51C24.89 31.98 20.89 31.98 18.42 29.51C15.96 27.04 15.96 23.05 18.42 20.58C20.89 18.11 24.89 18.11 27.35 20.58C29.82 23.05 29.82 27.04 27.35 29.51Z" stroke="#5946D7" stroke-opacity="1.000000" stroke-width="2.000000" stroke-linejoin="round"/>
</svg>
