<svg width="48.000000" height="48.000000" viewBox="0 0 48 48" fill="none" xmlns="http://www.w3.org/2000/svg" xmlns:xlink="http://www.w3.org/1999/xlink">
	<desc>
			Created with Pixso.
	</desc>
	<defs/>
	<path id="Path" d="M34 14L34 10C34 8.89 34.89 8 36 8L40 8C41.1 8 42 8.89 42 10L42 14" stroke="#2E1066" stroke-opacity="1.000000" stroke-width="2.000000" stroke-linejoin="round" stroke-linecap="round"/>
	<path id="Path" d="M34 14L34 10C34 8.89 34.89 8 36 8L40 8C41.1 8 42 8.89 42 10L42 14" stroke="#410F9E" stroke-opacity="1.000000" stroke-width="2.000000" stroke-linejoin="round" stroke-linecap="round"/>
	<path id="Path" d="M34 14L34 10C34 8.89 34.89 8 36 8L40 8C41.1 8 42 8.89 42 10L42 14" stroke="#453888" stroke-opacity="1.000000" stroke-width="2.000000" stroke-linejoin="round" stroke-linecap="round"/>
	<path id="Path" d="M34 14L34 10C34 8.89 34.89 8 36 8L40 8C41.1 8 42 8.89 42 10L42 14" stroke="#5946D7" stroke-opacity="1.000000" stroke-width="2.000000" stroke-linejoin="round" stroke-linecap="round"/>
	<path id="Path" d="M34 23L34 29" stroke="#2E1066" stroke-opacity="1.000000" stroke-width="2.000000" stroke-linejoin="round" stroke-linecap="round"/>
	<path id="Path" d="M34 23L34 29" stroke="#410F9E" stroke-opacity="1.000000" stroke-width="2.000000" stroke-linejoin="round" stroke-linecap="round"/>
	<path id="Path" d="M34 23L34 29" stroke="#453888" stroke-opacity="1.000000" stroke-width="2.000000" stroke-linejoin="round" stroke-linecap="round"/>
	<path id="Path" d="M34 23L34 29" stroke="#5946D7" stroke-opacity="1.000000" stroke-width="2.000000" stroke-linejoin="round" stroke-linecap="round"/>
	<path id="Path" d="M37 26L31 26" stroke="#2E1066" stroke-opacity="1.000000" stroke-width="2.000000" stroke-linejoin="round" stroke-linecap="round"/>
	<path id="Path" d="M37 26L31 26" stroke="#410F9E" stroke-opacity="1.000000" stroke-width="2.000000" stroke-linejoin="round" stroke-linecap="round"/>
	<path id="Path" d="M37 26L31 26" stroke="#453888" stroke-opacity="1.000000" stroke-width="2.000000" stroke-linejoin="round" stroke-linecap="round"/>
	<path id="Path" d="M37 26L31 26" stroke="#5946D7" stroke-opacity="1.000000" stroke-width="2.000000" stroke-linejoin="round" stroke-linecap="round"/>
	<path id="Path" d="M17 26L11 26" stroke="#2E1066" stroke-opacity="1.000000" stroke-width="2.000000" stroke-linejoin="round" stroke-linecap="round"/>
	<path id="Path" d="M17 26L11 26" stroke="#410F9E" stroke-opacity="1.000000" stroke-width="2.000000" stroke-linejoin="round" stroke-linecap="round"/>
	<path id="Path" d="M17 26L11 26" stroke="#453888" stroke-opacity="1.000000" stroke-width="2.000000" stroke-linejoin="round" stroke-linecap="round"/>
	<path id="Path" d="M17 26L11 26" stroke="#5946D7" stroke-opacity="1.000000" stroke-width="2.000000" stroke-linejoin="round" stroke-linecap="round"/>
	<path id="Path" d="M6 14L6 10C6 8.89 6.89 8 8 8L12 8C13.1 8 14 8.89 14 10L14 14" stroke="#2E1066" stroke-opacity="1.000000" stroke-width="2.000000" stroke-linejoin="round" stroke-linecap="round"/>
	<path id="Path" d="M6 14L6 10C6 8.89 6.89 8 8 8L12 8C13.1 8 14 8.89 14 10L14 14" stroke="#410F9E" stroke-opacity="1.000000" stroke-width="2.000000" stroke-linejoin="round" stroke-linecap="round"/>
	<path id="Path" d="M6 14L6 10C6 8.89 6.89 8 8 8L12 8C13.1 8 14 8.89 14 10L14 14" stroke="#453888" stroke-opacity="1.000000" stroke-width="2.000000" stroke-linejoin="round" stroke-linecap="round"/>
	<path id="Path" d="M6 14L6 10C6 8.89 6.89 8 8 8L12 8C13.1 8 14 8.89 14 10L14 14" stroke="#5946D7" stroke-opacity="1.000000" stroke-width="2.000000" stroke-linejoin="round" stroke-linecap="round"/>
	<path id="Path" d="M42 14C43.1 14 44 14.89 44 16L44 36C44 38.21 42.21 40 40 40L8 40C5.78 40 4 38.21 4 36L4 16C4 14.89 4.89 14 6 14L14 14L17.41 10.58C17.78 10.21 18.29 10 18.82 10L29.17 10C29.7 10 30.21 10.21 30.58 10.58L34 14L42 14Z" stroke="#2E1066" stroke-opacity="1.000000" stroke-width="2.000000" stroke-linejoin="round"/>
	<path id="Path" d="M42 14C43.1 14 44 14.89 44 16L44 36C44 38.21 42.21 40 40 40L8 40C5.78 40 4 38.21 4 36L4 16C4 14.89 4.89 14 6 14L14 14L17.41 10.58C17.78 10.21 18.29 10 18.82 10L29.17 10C29.7 10 30.21 10.21 30.58 10.58L34 14L42 14Z" stroke="#410F9E" stroke-opacity="1.000000" stroke-width="2.000000" stroke-linejoin="round"/>
	<path id="Path" d="M42 14C43.1 14 44 14.89 44 16L44 36C44 38.21 42.21 40 40 40L8 40C5.78 40 4 38.21 4 36L4 16C4 14.89 4.89 14 6 14L14 14L17.41 10.58C17.78 10.21 18.29 10 18.82 10L29.17 10C29.7 10 30.21 10.21 30.58 10.58L34 14L42 14Z" stroke="#453888" stroke-opacity="1.000000" stroke-width="2.000000" stroke-linejoin="round"/>
	<path id="Path" d="M42 14C43.1 14 44 14.89 44 16L44 36C44 38.21 42.21 40 40 40L8 40C5.78 40 4 38.21 4 36L4 16C4 14.89 4.89 14 6 14L14 14L17.41 10.58C17.78 10.21 18.29 10 18.82 10L29.17 10C29.7 10 30.21 10.21 30.58 10.58L34 14L42 14Z" stroke="#5946D7" stroke-opacity="1.000000" stroke-width="2.000000" stroke-linejoin="round"/>
</svg>
