<svg width="48.019531" height="48.019531" viewBox="0 0 48.0195 48.0195" fill="none" xmlns="http://www.w3.org/2000/svg" xmlns:xlink="http://www.w3.org/1999/xlink">
	<desc>
			Created with Pixso.
	</desc>
	<defs/>
	<path id="Path" d="M24.55 31.18C23.57 30.35 23 29.13 23 27.84L23 20.17C23 18.88 23.57 17.66 24.55 16.83C25.54 16 26.83 15.64 28.1 15.85C32.09 16.52 35.01 19.96 35.01 24C35.01 28.05 32.09 31.5 28.1 32.16C26.83 32.37 25.54 32.01 24.55 31.18Z" stroke="#2E1066" stroke-opacity="1.000000" stroke-width="2.000000" stroke-linejoin="round"/>
	<path id="Path" d="M24.55 31.18C23.57 30.35 23 29.13 23 27.84L23 20.17C23 18.88 23.57 17.66 24.55 16.83C25.54 16 26.83 15.64 28.1 15.85C32.09 16.52 35.01 19.96 35.01 24C35.01 28.05 32.09 31.5 28.1 32.16C26.83 32.37 25.54 32.01 24.55 31.18Z" stroke="#410F9E" stroke-opacity="1.000000" stroke-width="2.000000" stroke-linejoin="round"/>
	<path id="Path" d="M24.55 31.18C23.57 30.35 23 29.13 23 27.84L23 20.17C23 18.88 23.57 17.66 24.55 16.83C25.54 16 26.83 15.64 28.1 15.85C32.09 16.52 35.01 19.96 35.01 24C35.01 28.05 32.09 31.5 28.1 32.16C26.83 32.37 25.54 32.01 24.55 31.18Z" stroke="#453888" stroke-opacity="1.000000" stroke-width="2.000000" stroke-linejoin="round"/>
	<path id="Path" d="M24.55 31.18C23.57 30.35 23 29.13 23 27.84L23 20.17C23 18.88 23.57 17.66 24.55 16.83C25.54 16 26.83 15.64 28.1 15.85C32.09 16.52 35.01 19.96 35.01 24C35.01 28.05 32.09 31.5 28.1 32.16C26.83 32.37 25.54 32.01 24.55 31.18Z" stroke="#5946D7" stroke-opacity="1.000000" stroke-width="2.000000" stroke-linejoin="round"/>
	<path id="Path" d="M14 20L18 19" stroke="#2E1066" stroke-opacity="1.000000" stroke-width="2.000000" stroke-linejoin="round" stroke-linecap="round"/>
	<path id="Path" d="M14 20L18 19" stroke="#410F9E" stroke-opacity="1.000000" stroke-width="2.000000" stroke-linejoin="round" stroke-linecap="round"/>
	<path id="Path" d="M14 20L18 19" stroke="#453888" stroke-opacity="1.000000" stroke-width="2.000000" stroke-linejoin="round" stroke-linecap="round"/>
	<path id="Path" d="M14 20L18 19" stroke="#5946D7" stroke-opacity="1.000000" stroke-width="2.000000" stroke-linejoin="round" stroke-linecap="round"/>
	<path id="Path" d="M14 25L18 24" stroke="#2E1066" stroke-opacity="1.000000" stroke-width="2.000000" stroke-linejoin="round" stroke-linecap="round"/>
	<path id="Path" d="M14 25L18 24" stroke="#410F9E" stroke-opacity="1.000000" stroke-width="2.000000" stroke-linejoin="round" stroke-linecap="round"/>
	<path id="Path" d="M14 25L18 24" stroke="#453888" stroke-opacity="1.000000" stroke-width="2.000000" stroke-linejoin="round" stroke-linecap="round"/>
	<path id="Path" d="M14 25L18 24" stroke="#5946D7" stroke-opacity="1.000000" stroke-width="2.000000" stroke-linejoin="round" stroke-linecap="round"/>
	<path id="Path" d="M6 24C6 14.06 14.06 6 24 6C33.95 6 42.01 14.06 42.01 24C42.01 33.95 33.95 42.01 24 42.01C14.06 42.01 6 33.95 6 24Z" stroke="#2E1066" stroke-opacity="1.000000" stroke-width="2.000000" stroke-linejoin="round"/>
	<path id="Path" d="M6 24C6 14.06 14.06 6 24 6C33.95 6 42.01 14.06 42.01 24C42.01 33.95 33.95 42.01 24 42.01C14.06 42.01 6 33.95 6 24Z" stroke="#410F9E" stroke-opacity="1.000000" stroke-width="2.000000" stroke-linejoin="round"/>
	<path id="Path" d="M6 24C6 14.06 14.06 6 24 6C33.95 6 42.01 14.06 42.01 24C42.01 33.95 33.95 42.01 24 42.01C14.06 42.01 6 33.95 6 24Z" stroke="#453888" stroke-opacity="1.000000" stroke-width="2.000000" stroke-linejoin="round"/>
	<path id="Path" d="M6 24C6 14.06 14.06 6 24 6C33.95 6 42.01 14.06 42.01 24C42.01 33.95 33.95 42.01 24 42.01C14.06 42.01 6 33.95 6 24Z" stroke="#5946D7" stroke-opacity="1.000000" stroke-width="2.000000" stroke-linejoin="round"/>
	<path id="Path" d="M14 30.01L18 29.01" stroke="#2E1066" stroke-opacity="1.000000" stroke-width="2.000000" stroke-linejoin="round" stroke-linecap="round"/>
	<path id="Path" d="M14 30.01L18 29.01" stroke="#410F9E" stroke-opacity="1.000000" stroke-width="2.000000" stroke-linejoin="round" stroke-linecap="round"/>
	<path id="Path" d="M14 30.01L18 29.01" stroke="#453888" stroke-opacity="1.000000" stroke-width="2.000000" stroke-linejoin="round" stroke-linecap="round"/>
	<path id="Path" d="M14 30.01L18 29.01" stroke="#5946D7" stroke-opacity="1.000000" stroke-width="2.000000" stroke-linejoin="round" stroke-linecap="round"/>
</svg>
