<svg width="41.003906" height="35.003906" viewBox="0 0 41.0039 35.0039" fill="none" xmlns="http://www.w3.org/2000/svg" xmlns:xlink="http://www.w3.org/1999/xlink">
	<desc>
			Created with Pixso.
	</desc>
	<defs/>
	<path id="Path" d="M3.5 11.5L3.5 5.5C3.5 3.28 5.29 1.5 7.5 1.5L35.5 1.5C37.71 1.5 39.5 3.28 39.5 5.5L39.5 29.5C39.5 31.71 37.71 33.5 35.5 33.5L23.5 33.5" stroke="#FFFFFF" stroke-opacity="1.000000" stroke-width="3.000000" stroke-linejoin="round" stroke-linecap="round"/>
	<path id="Path" d="M15.5 33.5L15 32.24C14.74 31.6 14.35 31.02 13.84 30.56C12.99 29.76 11.87 29.33 10.71 29.33L6.29 29.33C5.13 29.33 4.01 29.77 3.15 30.56C2.65 31.02 2.25 31.6 2 32.24L1.5 33.5" stroke="#FFFFFF" stroke-opacity="1.000000" stroke-width="3.000000" stroke-linejoin="round" stroke-linecap="round"/>
	<path id="Path" d="M10.97 23.47C9.61 24.84 7.39 24.84 6.02 23.47C4.66 22.1 4.66 19.89 6.02 18.52C7.39 17.15 9.61 17.15 10.97 18.52C12.34 19.89 12.34 22.1 10.97 23.47Z" stroke="#FFFFFF" stroke-opacity="1.000000" stroke-width="3.000000" stroke-linejoin="round"/>
	<path id="Path" d="M19.5 23.5L19.5 11.5" stroke="#FFFFFF" stroke-opacity="1.000000" stroke-width="3.000000" stroke-linejoin="round" stroke-linecap="round"/>
	<path id="Path" d="M25.5 23.5L25.5 16.85" stroke="#FFFFFF" stroke-opacity="1.000000" stroke-width="3.000000" stroke-linejoin="round" stroke-linecap="round"/>
	<path id="Path" d="M31.5 23.5L31.5 12.59" stroke="#FFFFFF" stroke-opacity="1.000000" stroke-width="3.000000" stroke-linejoin="round" stroke-linecap="round"/>
</svg>
