<svg width="46.000000" height="38.000000" viewBox="0 0 46 38" fill="none" xmlns="http://www.w3.org/2000/svg" xmlns:xlink="http://www.w3.org/1999/xlink">
	<desc>
			Created with Pixso.
	</desc>
	<defs/>
	<path id="Path" d="M1 13L1 29" stroke="#2E1066" stroke-opacity="1.000000" stroke-width="2.000000" stroke-linejoin="round" stroke-linecap="round"/>
	<path id="Path" d="M1 13L1 29" stroke="#410F9E" stroke-opacity="1.000000" stroke-width="2.000000" stroke-linejoin="round" stroke-linecap="round"/>
	<path id="Path" d="M1 13L1 29" stroke="#453888" stroke-opacity="1.000000" stroke-width="2.000000" stroke-linejoin="round" stroke-linecap="round"/>
	<path id="Path" d="M1 13L1 29" stroke="#5946D7" stroke-opacity="1.000000" stroke-width="2.000000" stroke-linejoin="round" stroke-linecap="round"/>
	<path id="Path" d="M23 1L23 9" stroke="#2E1066" stroke-opacity="1.000000" stroke-width="2.000000" stroke-linejoin="round" stroke-linecap="round"/>
	<path id="Path" d="M23 1L23 9" stroke="#410F9E" stroke-opacity="1.000000" stroke-width="2.000000" stroke-linejoin="round" stroke-linecap="round"/>
	<path id="Path" d="M23 1L23 9" stroke="#453888" stroke-opacity="1.000000" stroke-width="2.000000" stroke-linejoin="round" stroke-linecap="round"/>
	<path id="Path" d="M23 1L23 9" stroke="#5946D7" stroke-opacity="1.000000" stroke-width="2.000000" stroke-linejoin="round" stroke-linecap="round"/>
	<path id="Path" d="M17 1L29 1" stroke="#2E1066" stroke-opacity="1.000000" stroke-width="2.000000" stroke-linejoin="round" stroke-linecap="round"/>
	<path id="Path" d="M17 1L29 1" stroke="#410F9E" stroke-opacity="1.000000" stroke-width="2.000000" stroke-linejoin="round" stroke-linecap="round"/>
	<path id="Path" d="M17 1L29 1" stroke="#453888" stroke-opacity="1.000000" stroke-width="2.000000" stroke-linejoin="round" stroke-linecap="round"/>
	<path id="Path" d="M17 1L29 1" stroke="#5946D7" stroke-opacity="1.000000" stroke-width="2.000000" stroke-linejoin="round" stroke-linecap="round"/>
	<path id="Path" d="M39 17L35 17L31 9L15 9L11 13L7 13L7 29L13 29L16.44 35.89C16.78 36.57 17.47 37 18.23 37L31 37C32.1 37 33 36.1 33 35L33 29L39 29L39 33L43 33C44.1 33 45 32.1 45 31L45 15C45 13.89 44.1 13 43 13L39 13L39 17Z" stroke="#2E1066" stroke-opacity="1.000000" stroke-width="2.000000" stroke-linejoin="round"/>
	<path id="Path" d="M39 17L35 17L31 9L15 9L11 13L7 13L7 29L13 29L16.44 35.89C16.78 36.57 17.47 37 18.23 37L31 37C32.1 37 33 36.1 33 35L33 29L39 29L39 33L43 33C44.1 33 45 32.1 45 31L45 15C45 13.89 44.1 13 43 13L39 13L39 17Z" stroke="#410F9E" stroke-opacity="1.000000" stroke-width="2.000000" stroke-linejoin="round"/>
	<path id="Path" d="M39 17L35 17L31 9L15 9L11 13L7 13L7 29L13 29L16.44 35.89C16.78 36.57 17.47 37 18.23 37L31 37C32.1 37 33 36.1 33 35L33 29L39 29L39 33L43 33C44.1 33 45 32.1 45 31L45 15C45 13.89 44.1 13 43 13L39 13L39 17Z" stroke="#453888" stroke-opacity="1.000000" stroke-width="2.000000" stroke-linejoin="round"/>
	<path id="Path" d="M39 17L35 17L31 9L15 9L11 13L7 13L7 29L13 29L16.44 35.89C16.78 36.57 17.47 37 18.23 37L31 37C32.1 37 33 36.1 33 35L33 29L39 29L39 33L43 33C44.1 33 45 32.1 45 31L45 15C45 13.89 44.1 13 43 13L39 13L39 17Z" stroke="#5946D7" stroke-opacity="1.000000" stroke-width="2.000000" stroke-linejoin="round"/>
	<path id="Path" d="M7 21L1 21" stroke="#2E1066" stroke-opacity="1.000000" stroke-width="2.000000" stroke-linejoin="round" stroke-linecap="round"/>
	<path id="Path" d="M7 21L1 21" stroke="#410F9E" stroke-opacity="1.000000" stroke-width="2.000000" stroke-linejoin="round" stroke-linecap="round"/>
	<path id="Path" d="M7 21L1 21" stroke="#453888" stroke-opacity="1.000000" stroke-width="2.000000" stroke-linejoin="round" stroke-linecap="round"/>
	<path id="Path" d="M7 21L1 21" stroke="#5946D7" stroke-opacity="1.000000" stroke-width="2.000000" stroke-linejoin="round" stroke-linecap="round"/>
</svg>
