<svg width="48.019531" height="48.019531" viewBox="0 0 48.0195 48.0195" fill="none" xmlns="http://www.w3.org/2000/svg" xmlns:xlink="http://www.w3.org/1999/xlink">
	<desc>
			Created with Pixso.
	</desc>
	<defs/>
	<path id="Path" d="M17.22 14L24.78 14" stroke="#2E1066" stroke-opacity="1.000000" stroke-width="2.000000" stroke-linejoin="round" stroke-linecap="round"/>
	<path id="Path" d="M17.22 14L24.78 14" stroke="#410F9E" stroke-opacity="1.000000" stroke-width="2.000000" stroke-linejoin="round" stroke-linecap="round"/>
	<path id="Path" d="M17.22 14L24.78 14" stroke="#453888" stroke-opacity="1.000000" stroke-width="2.000000" stroke-linejoin="round" stroke-linecap="round"/>
	<path id="Path" d="M17.22 14L24.78 14" stroke="#5946D7" stroke-opacity="1.000000" stroke-width="2.000000" stroke-linejoin="round" stroke-linecap="round"/>
	<path id="Path" d="M18 24L12 24L12 38.01" stroke="#2E1066" stroke-opacity="1.000000" stroke-width="2.000000" stroke-linejoin="round" stroke-linecap="round"/>
	<path id="Path" d="M18 24L12 24L12 38.01" stroke="#410F9E" stroke-opacity="1.000000" stroke-width="2.000000" stroke-linejoin="round" stroke-linecap="round"/>
	<path id="Path" d="M18 24L12 24L12 38.01" stroke="#453888" stroke-opacity="1.000000" stroke-width="2.000000" stroke-linejoin="round" stroke-linecap="round"/>
	<path id="Path" d="M18 24L12 24L12 38.01" stroke="#5946D7" stroke-opacity="1.000000" stroke-width="2.000000" stroke-linejoin="round" stroke-linecap="round"/>
	<path id="Path" d="M12 38.01L4 38.01L4 15.13C4 13.75 4.74 12.49 5.94 11.82L19.17 4.47C20.31 3.84 21.7 3.84 22.84 4.47L36.07 11.82C37.27 12.49 38.01 13.75 38.01 15.13L38.01 18" stroke="#2E1066" stroke-opacity="1.000000" stroke-width="2.000000" stroke-linejoin="round" stroke-linecap="round"/>
	<path id="Path" d="M12 38.01L4 38.01L4 15.13C4 13.75 4.74 12.49 5.94 11.82L19.17 4.47C20.31 3.84 21.7 3.84 22.84 4.47L36.07 11.82C37.27 12.49 38.01 13.75 38.01 15.13L38.01 18" stroke="#410F9E" stroke-opacity="1.000000" stroke-width="2.000000" stroke-linejoin="round" stroke-linecap="round"/>
	<path id="Path" d="M12 38.01L4 38.01L4 15.13C4 13.75 4.74 12.49 5.94 11.82L19.17 4.47C20.31 3.84 21.7 3.84 22.84 4.47L36.07 11.82C37.27 12.49 38.01 13.75 38.01 15.13L38.01 18" stroke="#453888" stroke-opacity="1.000000" stroke-width="2.000000" stroke-linejoin="round" stroke-linecap="round"/>
	<path id="Path" d="M12 38.01L4 38.01L4 15.13C4 13.75 4.74 12.49 5.94 11.82L19.17 4.47C20.31 3.84 21.7 3.84 22.84 4.47L36.07 11.82C37.27 12.49 38.01 13.75 38.01 15.13L38.01 18" stroke="#5946D7" stroke-opacity="1.000000" stroke-width="2.000000" stroke-linejoin="round" stroke-linecap="round"/>
	<path id="Path" d="M44.01 35.61C44.01 33.4 42.22 31.61 40.01 31.61L24 31.61C21.79 31.61 20 33.4 20 35.61" stroke="#2E1066" stroke-opacity="1.000000" stroke-width="2.000000" stroke-linejoin="round" stroke-linecap="round"/>
	<path id="Path" d="M44.01 35.61C44.01 33.4 42.22 31.61 40.01 31.61L24 31.61C21.79 31.61 20 33.4 20 35.61" stroke="#410F9E" stroke-opacity="1.000000" stroke-width="2.000000" stroke-linejoin="round" stroke-linecap="round"/>
	<path id="Path" d="M44.01 35.61C44.01 33.4 42.22 31.61 40.01 31.61L24 31.61C21.79 31.61 20 33.4 20 35.61" stroke="#453888" stroke-opacity="1.000000" stroke-width="2.000000" stroke-linejoin="round" stroke-linecap="round"/>
	<path id="Path" d="M44.01 35.61C44.01 33.4 42.22 31.61 40.01 31.61L24 31.61C21.79 31.61 20 33.4 20 35.61" stroke="#5946D7" stroke-opacity="1.000000" stroke-width="2.000000" stroke-linejoin="round" stroke-linecap="round"/>
	<path id="Path" d="M20 35.61L20 42.01C20 43.12 20.9 44.01 22 44.01L23.99 44.01C25.09 44.01 25.99 43.12 25.99 42.01L25.99 40.69L38.03 40.69L38.03 42.01C38.03 43.12 38.93 44.01 40.03 44.01L42.01 44.01C43.12 44.01 44.01 43.12 44.01 42.01L44.01 35.61" stroke="#2E1066" stroke-opacity="1.000000" stroke-width="2.000000" stroke-linejoin="round" stroke-linecap="round"/>
	<path id="Path" d="M20 35.61L20 42.01C20 43.12 20.9 44.01 22 44.01L23.99 44.01C25.09 44.01 25.99 43.12 25.99 42.01L25.99 40.69L38.03 40.69L38.03 42.01C38.03 43.12 38.93 44.01 40.03 44.01L42.01 44.01C43.12 44.01 44.01 43.12 44.01 42.01L44.01 35.61" stroke="#410F9E" stroke-opacity="1.000000" stroke-width="2.000000" stroke-linejoin="round" stroke-linecap="round"/>
	<path id="Path" d="M20 35.61L20 42.01C20 43.12 20.9 44.01 22 44.01L23.99 44.01C25.09 44.01 25.99 43.12 25.99 42.01L25.99 40.69L38.03 40.69L38.03 42.01C38.03 43.12 38.93 44.01 40.03 44.01L42.01 44.01C43.12 44.01 44.01 43.12 44.01 42.01L44.01 35.61" stroke="#453888" stroke-opacity="1.000000" stroke-width="2.000000" stroke-linejoin="round" stroke-linecap="round"/>
	<path id="Path" d="M20 35.61L20 42.01C20 43.12 20.9 44.01 22 44.01L23.99 44.01C25.09 44.01 25.99 43.12 25.99 42.01L25.99 40.69L38.03 40.69L38.03 42.01C38.03 43.12 38.93 44.01 40.03 44.01L42.01 44.01C43.12 44.01 44.01 43.12 44.01 42.01L44.01 35.61" stroke="#5946D7" stroke-opacity="1.000000" stroke-width="2.000000" stroke-linejoin="round" stroke-linecap="round"/>
	<path id="Path" d="M27.48 36.21L24.49 36.21" stroke="#2E1066" stroke-opacity="1.000000" stroke-width="2.000000" stroke-linejoin="round" stroke-linecap="round"/>
	<path id="Path" d="M27.48 36.21L24.49 36.21" stroke="#410F9E" stroke-opacity="1.000000" stroke-width="2.000000" stroke-linejoin="round" stroke-linecap="round"/>
	<path id="Path" d="M27.48 36.21L24.49 36.21" stroke="#453888" stroke-opacity="1.000000" stroke-width="2.000000" stroke-linejoin="round" stroke-linecap="round"/>
	<path id="Path" d="M27.48 36.21L24.49 36.21" stroke="#5946D7" stroke-opacity="1.000000" stroke-width="2.000000" stroke-linejoin="round" stroke-linecap="round"/>
	<path id="Path" d="M39.53 36.21L36.54 36.21" stroke="#2E1066" stroke-opacity="1.000000" stroke-width="2.000000" stroke-linejoin="round" stroke-linecap="round"/>
	<path id="Path" d="M39.53 36.21L36.54 36.21" stroke="#410F9E" stroke-opacity="1.000000" stroke-width="2.000000" stroke-linejoin="round" stroke-linecap="round"/>
	<path id="Path" d="M39.53 36.21L36.54 36.21" stroke="#453888" stroke-opacity="1.000000" stroke-width="2.000000" stroke-linejoin="round" stroke-linecap="round"/>
	<path id="Path" d="M39.53 36.21L36.54 36.21" stroke="#5946D7" stroke-opacity="1.000000" stroke-width="2.000000" stroke-linejoin="round" stroke-linecap="round"/>
	<path id="Path" d="M41.02 31.48L44.01 29.99" stroke="#2E1066" stroke-opacity="1.000000" stroke-width="2.000000" stroke-linejoin="round" stroke-linecap="round"/>
	<path id="Path" d="M41.02 31.48L44.01 29.99" stroke="#410F9E" stroke-opacity="1.000000" stroke-width="2.000000" stroke-linejoin="round" stroke-linecap="round"/>
	<path id="Path" d="M41.02 31.48L44.01 29.99" stroke="#453888" stroke-opacity="1.000000" stroke-width="2.000000" stroke-linejoin="round" stroke-linecap="round"/>
	<path id="Path" d="M41.02 31.48L44.01 29.99" stroke="#5946D7" stroke-opacity="1.000000" stroke-width="2.000000" stroke-linejoin="round" stroke-linecap="round"/>
	<path id="Path" d="M23 31.48L20 29.99" stroke="#2E1066" stroke-opacity="1.000000" stroke-width="2.000000" stroke-linejoin="round" stroke-linecap="round"/>
	<path id="Path" d="M23 31.48L20 29.99" stroke="#410F9E" stroke-opacity="1.000000" stroke-width="2.000000" stroke-linejoin="round" stroke-linecap="round"/>
	<path id="Path" d="M23 31.48L20 29.99" stroke="#453888" stroke-opacity="1.000000" stroke-width="2.000000" stroke-linejoin="round" stroke-linecap="round"/>
	<path id="Path" d="M23 31.48L20 29.99" stroke="#5946D7" stroke-opacity="1.000000" stroke-width="2.000000" stroke-linejoin="round" stroke-linecap="round"/>
	<path id="Path" d="M41.06 31.74L39.79 26.32C39.47 24.96 38.26 24.01 36.87 24L27.14 24C25.75 24.01 24.55 24.96 24.23 26.32L22.96 31.74L24.23 26.32M24.23 26.32C24.55 24.96 25.75 24.01 27.14 24" stroke="#2E1066" stroke-opacity="1.000000" stroke-width="2.000000" stroke-linejoin="round"/>
	<path id="Path" d="M41.06 31.74L39.79 26.32C39.47 24.96 38.26 24.01 36.87 24L27.14 24C25.75 24.01 24.55 24.96 24.23 26.32L22.96 31.74L24.23 26.32M24.23 26.32C24.55 24.96 25.75 24.01 27.14 24" stroke="#410F9E" stroke-opacity="1.000000" stroke-width="2.000000" stroke-linejoin="round"/>
	<path id="Path" d="M41.06 31.74L39.79 26.32C39.47 24.96 38.26 24.01 36.87 24L27.14 24C25.75 24.01 24.55 24.96 24.23 26.32L22.96 31.74L24.23 26.32M24.23 26.32C24.55 24.96 25.75 24.01 27.14 24" stroke="#453888" stroke-opacity="1.000000" stroke-width="2.000000" stroke-linejoin="round"/>
	<path id="Path" d="M41.06 31.74L39.79 26.32C39.47 24.96 38.26 24.01 36.87 24L27.14 24C25.75 24.01 24.55 24.96 24.23 26.32L22.96 31.74L24.23 26.32M24.23 26.32C24.55 24.96 25.75 24.01 27.14 24" stroke="#5946D7" stroke-opacity="1.000000" stroke-width="2.000000" stroke-linejoin="round"/>
</svg>
