<svg width="48.019531" height="48.019531" viewBox="0 0 48.0195 48.0195" fill="none" xmlns="http://www.w3.org/2000/svg" xmlns:xlink="http://www.w3.org/1999/xlink">
	<desc>
			Created with Pixso.
	</desc>
	<defs/>
	<path id="Path" d="M34.01 23.52L14.1 23.52" stroke="#2E1066" stroke-opacity="1.000000" stroke-width="2.000000" stroke-linejoin="round" stroke-linecap="round"/>
	<path id="Path" d="M34.01 23.52L14.1 23.52" stroke="#410F9E" stroke-opacity="1.000000" stroke-width="2.000000" stroke-linejoin="round" stroke-linecap="round"/>
	<path id="Path" d="M34.01 23.52L14.1 23.52" stroke="#453888" stroke-opacity="1.000000" stroke-width="2.000000" stroke-linejoin="round" stroke-linecap="round"/>
	<path id="Path" d="M34.01 23.52L14.1 23.52" stroke="#5946D7" stroke-opacity="1.000000" stroke-width="2.000000" stroke-linejoin="round" stroke-linecap="round"/>
	<path id="Path" d="M27.51 27.87L28.51 27.87" stroke="#2E1066" stroke-opacity="1.000000" stroke-width="2.000000" stroke-linejoin="round" stroke-linecap="round"/>
	<path id="Path" d="M27.51 27.87L28.51 27.87" stroke="#410F9E" stroke-opacity="1.000000" stroke-width="2.000000" stroke-linejoin="round" stroke-linecap="round"/>
	<path id="Path" d="M27.51 27.87L28.51 27.87" stroke="#453888" stroke-opacity="1.000000" stroke-width="2.000000" stroke-linejoin="round" stroke-linecap="round"/>
	<path id="Path" d="M27.51 27.87L28.51 27.87" stroke="#5946D7" stroke-opacity="1.000000" stroke-width="2.000000" stroke-linejoin="round" stroke-linecap="round"/>
	<path id="Path" d="M14 30.65C14 32.49 15.49 33.98 17.33 33.98L30.68 34.01C31.56 34.01 32.41 33.66 33.03 33.03C33.66 32.41 34.01 31.56 34.01 30.67L34.01 17.34C34.01 15.5 32.52 14 30.68 14L22.19 14C21.17 14 20.21 14.47 19.57 15.26L15.45 20.48C14.51 21.66 14 23.12 14 24.62L14 30.65Z" stroke="#2E1066" stroke-opacity="1.000000" stroke-width="2.000000" stroke-linejoin="round"/>
	<path id="Path" d="M14 30.65C14 32.49 15.49 33.98 17.33 33.98L30.68 34.01C31.56 34.01 32.41 33.66 33.03 33.03C33.66 32.41 34.01 31.56 34.01 30.67L34.01 17.34C34.01 15.5 32.52 14 30.68 14L22.19 14C21.17 14 20.21 14.47 19.57 15.26L15.45 20.48C14.51 21.66 14 23.12 14 24.62L14 30.65Z" stroke="#410F9E" stroke-opacity="1.000000" stroke-width="2.000000" stroke-linejoin="round"/>
	<path id="Path" d="M14 30.65C14 32.49 15.49 33.98 17.33 33.98L30.68 34.01C31.56 34.01 32.41 33.66 33.03 33.03C33.66 32.41 34.01 31.56 34.01 30.67L34.01 17.34C34.01 15.5 32.52 14 30.68 14L22.19 14C21.17 14 20.21 14.47 19.57 15.26L15.45 20.48C14.51 21.66 14 23.12 14 24.62L14 30.65Z" stroke="#453888" stroke-opacity="1.000000" stroke-width="2.000000" stroke-linejoin="round"/>
	<path id="Path" d="M14 30.65C14 32.49 15.49 33.98 17.33 33.98L30.68 34.01C31.56 34.01 32.41 33.66 33.03 33.03C33.66 32.41 34.01 31.56 34.01 30.67L34.01 17.34C34.01 15.5 32.52 14 30.68 14L22.19 14C21.17 14 20.21 14.47 19.57 15.26L15.45 20.48C14.51 21.66 14 23.12 14 24.62L14 30.65Z" stroke="#5946D7" stroke-opacity="1.000000" stroke-width="2.000000" stroke-linejoin="round"/>
	<rect id="Rectangle" x="6.001953" y="6.001953" rx="5.000000" width="36.014999" height="36.014999" stroke="#2E1066" stroke-opacity="1.000000" stroke-width="2.000000" stroke-linejoin="round"/>
	<rect id="Rectangle" x="6.001953" y="6.001953" rx="5.000000" width="36.014999" height="36.014999" stroke="#410F9E" stroke-opacity="1.000000" stroke-width="2.000000" stroke-linejoin="round"/>
	<rect id="Rectangle" x="6.001953" y="6.001953" rx="5.000000" width="36.014999" height="36.014999" stroke="#453888" stroke-opacity="1.000000" stroke-width="2.000000" stroke-linejoin="round"/>
	<rect id="Rectangle" x="6.001953" y="6.001953" rx="5.000000" width="36.014999" height="36.014999" stroke="#5946D7" stroke-opacity="1.000000" stroke-width="2.000000" stroke-linejoin="round"/>
</svg>
