<svg width="42.000000" height="42.000000" viewBox="0 0 42 42" fill="none" xmlns="http://www.w3.org/2000/svg" xmlns:xlink="http://www.w3.org/1999/xlink">
	<desc>
			Created with Pixso.
	</desc>
	<defs/>
	<path id="Path" d="M7.56 18.88C9.12 17.31 11.65 17.31 13.22 18.88L23.11 28.78C24.68 30.34 24.68 32.87 23.11 34.43L20.29 37.26C18.73 38.82 16.19 38.82 14.63 37.26L4.73 27.36C3.17 25.8 3.17 23.26 4.73 21.7L7.56 18.88Z" stroke="#2E1066" stroke-opacity="1.000000" stroke-width="2.000000" stroke-linejoin="round"/>
	<path id="Path" d="M7.56 18.88C9.12 17.31 11.65 17.31 13.22 18.88L23.11 28.78C24.68 30.34 24.68 32.87 23.11 34.43L20.29 37.26C18.73 38.82 16.19 38.82 14.63 37.26L4.73 27.36C3.17 25.8 3.17 23.26 4.73 21.7L7.56 18.88Z" stroke="#410F9E" stroke-opacity="1.000000" stroke-width="2.000000" stroke-linejoin="round"/>
	<path id="Path" d="M7.56 18.88C9.12 17.31 11.65 17.31 13.22 18.88L23.11 28.78C24.68 30.34 24.68 32.87 23.11 34.43L20.29 37.26C18.73 38.82 16.19 38.82 14.63 37.26L4.73 27.36C3.17 25.8 3.17 23.26 4.73 21.7L7.56 18.88Z" stroke="#453888" stroke-opacity="1.000000" stroke-width="2.000000" stroke-linejoin="round"/>
	<path id="Path" d="M7.56 18.88C9.12 17.31 11.65 17.31 13.22 18.88L23.11 28.78C24.68 30.34 24.68 32.87 23.11 34.43L20.29 37.26C18.73 38.82 16.19 38.82 14.63 37.26L4.73 27.36C3.17 25.8 3.17 23.26 4.73 21.7L7.56 18.88Z" stroke="#5946D7" stroke-opacity="1.000000" stroke-width="2.000000" stroke-linejoin="round"/>
	<path id="Path" d="M6.14 28.77L1.9 33.01" stroke="#2E1066" stroke-opacity="1.000000" stroke-width="2.000000" stroke-linejoin="round" stroke-linecap="round"/>
	<path id="Path" d="M6.14 28.77L1.9 33.01" stroke="#410F9E" stroke-opacity="1.000000" stroke-width="2.000000" stroke-linejoin="round" stroke-linecap="round"/>
	<path id="Path" d="M6.14 28.77L1.9 33.01" stroke="#453888" stroke-opacity="1.000000" stroke-width="2.000000" stroke-linejoin="round" stroke-linecap="round"/>
	<path id="Path" d="M6.14 28.77L1.9 33.01" stroke="#5946D7" stroke-opacity="1.000000" stroke-width="2.000000" stroke-linejoin="round" stroke-linecap="round"/>
	<path id="Path" d="M9.51 40.62L13.75 36.38" stroke="#2E1066" stroke-opacity="1.000000" stroke-width="2.000000" stroke-linejoin="round" stroke-linecap="round"/>
	<path id="Path" d="M9.51 40.62L13.75 36.38" stroke="#410F9E" stroke-opacity="1.000000" stroke-width="2.000000" stroke-linejoin="round" stroke-linecap="round"/>
	<path id="Path" d="M9.51 40.62L13.75 36.38" stroke="#453888" stroke-opacity="1.000000" stroke-width="2.000000" stroke-linejoin="round" stroke-linecap="round"/>
	<path id="Path" d="M9.51 40.62L13.75 36.38" stroke="#5946D7" stroke-opacity="1.000000" stroke-width="2.000000" stroke-linejoin="round" stroke-linecap="round"/>
	<path id="Path" d="M30.19 4.73L27.36 1.9C26.58 1.12 25.31 1.12 24.53 1.9L22.29 4.15C21.91 4.52 21.7 5.03 21.7 5.56L21.7 10.39L18.87 13.22C18.09 14 18.09 15.26 18.87 16.04L25.95 23.12C26.73 23.9 28 23.9 28.77 23.12L31.6 20.29L36.43 20.29C36.96 20.29 37.47 20.08 37.84 19.7L40.09 17.46C40.87 16.68 40.87 15.41 40.09 14.63L37.26 11.8" stroke="#2E1066" stroke-opacity="1.000000" stroke-width="2.000000" stroke-linejoin="round" stroke-linecap="round"/>
	<path id="Path" d="M30.19 4.73L27.36 1.9C26.58 1.12 25.31 1.12 24.53 1.9L22.29 4.15C21.91 4.52 21.7 5.03 21.7 5.56L21.7 10.39L18.87 13.22C18.09 14 18.09 15.26 18.87 16.04L25.95 23.12C26.73 23.9 28 23.9 28.77 23.12L31.6 20.29L36.43 20.29C36.96 20.29 37.47 20.08 37.84 19.7L40.09 17.46C40.87 16.68 40.87 15.41 40.09 14.63L37.26 11.8" stroke="#410F9E" stroke-opacity="1.000000" stroke-width="2.000000" stroke-linejoin="round" stroke-linecap="round"/>
	<path id="Path" d="M30.19 4.73L27.36 1.9C26.58 1.12 25.31 1.12 24.53 1.9L22.29 4.15C21.91 4.52 21.7 5.03 21.7 5.56L21.7 10.39L18.87 13.22C18.09 14 18.09 15.26 18.87 16.04L25.95 23.12C26.73 23.9 28 23.9 28.77 23.12L31.6 20.29L36.43 20.29C36.96 20.29 37.47 20.08 37.84 19.7L40.09 17.46C40.87 16.68 40.87 15.41 40.09 14.63L37.26 11.8" stroke="#453888" stroke-opacity="1.000000" stroke-width="2.000000" stroke-linejoin="round" stroke-linecap="round"/>
	<path id="Path" d="M30.19 4.73L27.36 1.9C26.58 1.12 25.31 1.12 24.53 1.9L22.29 4.15C21.91 4.52 21.7 5.03 21.7 5.56L21.7 10.39L18.87 13.22C18.09 14 18.09 15.26 18.87 16.04L25.95 23.12C26.73 23.9 28 23.9 28.77 23.12L31.6 20.29L36.43 20.29C36.96 20.29 37.47 20.08 37.84 19.7L40.09 17.46C40.87 16.68 40.87 15.41 40.09 14.63L37.26 11.8" stroke="#5946D7" stroke-opacity="1.000000" stroke-width="2.000000" stroke-linejoin="round" stroke-linecap="round"/>
	<path id="Path" d="M27.5 16.5L25.5 14.5" stroke="#2E1066" stroke-opacity="1.000000" stroke-width="2.000000" stroke-linejoin="round" stroke-linecap="round"/>
	<path id="Path" d="M27.5 16.5L25.5 14.5" stroke="#410F9E" stroke-opacity="1.000000" stroke-width="2.000000" stroke-linejoin="round" stroke-linecap="round"/>
	<path id="Path" d="M27.5 16.5L25.5 14.5" stroke="#453888" stroke-opacity="1.000000" stroke-width="2.000000" stroke-linejoin="round" stroke-linecap="round"/>
	<path id="Path" d="M27.5 16.5L25.5 14.5" stroke="#5946D7" stroke-opacity="1.000000" stroke-width="2.000000" stroke-linejoin="round" stroke-linecap="round"/>
	<path id="Path" d="M29 41L29 39" stroke="#2E1066" stroke-opacity="1.000000" stroke-width="2.000000" stroke-linejoin="round" stroke-linecap="round"/>
	<path id="Path" d="M29 41L29 39" stroke="#410F9E" stroke-opacity="1.000000" stroke-width="2.000000" stroke-linejoin="round" stroke-linecap="round"/>
	<path id="Path" d="M29 41L29 39" stroke="#453888" stroke-opacity="1.000000" stroke-width="2.000000" stroke-linejoin="round" stroke-linecap="round"/>
	<path id="Path" d="M29 41L29 39" stroke="#5946D7" stroke-opacity="1.000000" stroke-width="2.000000" stroke-linejoin="round" stroke-linecap="round"/>
	<path id="Path" d="M41 29L39 29" stroke="#2E1066" stroke-opacity="1.000000" stroke-width="2.000000" stroke-linejoin="round" stroke-linecap="round"/>
	<path id="Path" d="M41 29L39 29" stroke="#410F9E" stroke-opacity="1.000000" stroke-width="2.000000" stroke-linejoin="round" stroke-linecap="round"/>
	<path id="Path" d="M41 29L39 29" stroke="#453888" stroke-opacity="1.000000" stroke-width="2.000000" stroke-linejoin="round" stroke-linecap="round"/>
	<path id="Path" d="M41 29L39 29" stroke="#5946D7" stroke-opacity="1.000000" stroke-width="2.000000" stroke-linejoin="round" stroke-linecap="round"/>
	<path id="Path" d="M39 39L37 37" stroke="#2E1066" stroke-opacity="1.000000" stroke-width="2.000000" stroke-linejoin="round" stroke-linecap="round"/>
	<path id="Path" d="M39 39L37 37" stroke="#410F9E" stroke-opacity="1.000000" stroke-width="2.000000" stroke-linejoin="round" stroke-linecap="round"/>
	<path id="Path" d="M39 39L37 37" stroke="#453888" stroke-opacity="1.000000" stroke-width="2.000000" stroke-linejoin="round" stroke-linecap="round"/>
	<path id="Path" d="M39 39L37 37" stroke="#5946D7" stroke-opacity="1.000000" stroke-width="2.000000" stroke-linejoin="round" stroke-linecap="round"/>
	<path id="Path" d="M13 1L13 3" stroke="#2E1066" stroke-opacity="1.000000" stroke-width="2.000000" stroke-linejoin="round" stroke-linecap="round"/>
	<path id="Path" d="M13 1L13 3" stroke="#410F9E" stroke-opacity="1.000000" stroke-width="2.000000" stroke-linejoin="round" stroke-linecap="round"/>
	<path id="Path" d="M13 1L13 3" stroke="#453888" stroke-opacity="1.000000" stroke-width="2.000000" stroke-linejoin="round" stroke-linecap="round"/>
	<path id="Path" d="M13 1L13 3" stroke="#5946D7" stroke-opacity="1.000000" stroke-width="2.000000" stroke-linejoin="round" stroke-linecap="round"/>
	<path id="Path" d="M1 13L3 13" stroke="#2E1066" stroke-opacity="1.000000" stroke-width="2.000000" stroke-linejoin="round" stroke-linecap="round"/>
	<path id="Path" d="M1 13L3 13" stroke="#410F9E" stroke-opacity="1.000000" stroke-width="2.000000" stroke-linejoin="round" stroke-linecap="round"/>
	<path id="Path" d="M1 13L3 13" stroke="#453888" stroke-opacity="1.000000" stroke-width="2.000000" stroke-linejoin="round" stroke-linecap="round"/>
	<path id="Path" d="M1 13L3 13" stroke="#5946D7" stroke-opacity="1.000000" stroke-width="2.000000" stroke-linejoin="round" stroke-linecap="round"/>
	<path id="Path" d="M3 3L5 5" stroke="#2E1066" stroke-opacity="1.000000" stroke-width="2.000000" stroke-linejoin="round" stroke-linecap="round"/>
	<path id="Path" d="M3 3L5 5" stroke="#410F9E" stroke-opacity="1.000000" stroke-width="2.000000" stroke-linejoin="round" stroke-linecap="round"/>
	<path id="Path" d="M3 3L5 5" stroke="#453888" stroke-opacity="1.000000" stroke-width="2.000000" stroke-linejoin="round" stroke-linecap="round"/>
	<path id="Path" d="M3 3L5 5" stroke="#5946D7" stroke-opacity="1.000000" stroke-width="2.000000" stroke-linejoin="round" stroke-linecap="round"/>
	<path id="Path" d="M12 26L16 30" stroke="#2E1066" stroke-opacity="1.000000" stroke-width="2.000000" stroke-linejoin="round" stroke-linecap="round"/>
	<path id="Path" d="M12 26L16 30" stroke="#410F9E" stroke-opacity="1.000000" stroke-width="2.000000" stroke-linejoin="round" stroke-linecap="round"/>
	<path id="Path" d="M12 26L16 30" stroke="#453888" stroke-opacity="1.000000" stroke-width="2.000000" stroke-linejoin="round" stroke-linecap="round"/>
	<path id="Path" d="M12 26L16 30" stroke="#5946D7" stroke-opacity="1.000000" stroke-width="2.000000" stroke-linejoin="round" stroke-linecap="round"/>
	<path id="Path" d="M40.09 8.98L35.84 13.22C35.06 14 33.8 14 33.02 13.22L28.77 8.98C27.99 8.19 27.99 6.93 28.77 6.15L33.01 1.91" stroke="#2E1066" stroke-opacity="1.000000" stroke-width="2.000000" stroke-linejoin="round" stroke-linecap="round"/>
	<path id="Path" d="M40.09 8.98L35.84 13.22C35.06 14 33.8 14 33.02 13.22L28.77 8.98C27.99 8.19 27.99 6.93 28.77 6.15L33.01 1.91" stroke="#410F9E" stroke-opacity="1.000000" stroke-width="2.000000" stroke-linejoin="round" stroke-linecap="round"/>
	<path id="Path" d="M40.09 8.98L35.84 13.22C35.06 14 33.8 14 33.02 13.22L28.77 8.98C27.99 8.19 27.99 6.93 28.77 6.15L33.01 1.91" stroke="#453888" stroke-opacity="1.000000" stroke-width="2.000000" stroke-linejoin="round" stroke-linecap="round"/>
	<path id="Path" d="M40.09 8.98L35.84 13.22C35.06 14 33.8 14 33.02 13.22L28.77 8.98C27.99 8.19 27.99 6.93 28.77 6.15L33.01 1.91" stroke="#5946D7" stroke-opacity="1.000000" stroke-width="2.000000" stroke-linejoin="round" stroke-linecap="round"/>
</svg>
