<svg width="40.255859" height="41.777344" viewBox="0 0 40.2559 41.7773" fill="none" xmlns="http://www.w3.org/2000/svg" xmlns:xlink="http://www.w3.org/1999/xlink">
	<desc>
			Created with Pixso.
	</desc>
	<defs/>
	<path id="Path" d="M11.33 22.77L20.33 40.77" stroke="#2E1066" stroke-opacity="1.000000" stroke-width="2.000000" stroke-linejoin="round" stroke-linecap="round"/>
	<path id="Path" d="M11.33 22.77L20.33 40.77" stroke="#410F9E" stroke-opacity="1.000000" stroke-width="2.000000" stroke-linejoin="round" stroke-linecap="round"/>
	<path id="Path" d="M11.33 22.77L20.33 40.77" stroke="#453888" stroke-opacity="1.000000" stroke-width="2.000000" stroke-linejoin="round" stroke-linecap="round"/>
	<path id="Path" d="M11.33 22.77L20.33 40.77" stroke="#5946D7" stroke-opacity="1.000000" stroke-width="2.000000" stroke-linejoin="round" stroke-linecap="round"/>
	<path id="Path" d="M31.28 34.97C30.8 35.92 29.66 36.34 28.7 35.9C25.98 34.66 23.05 34.05 20.12 34.05C17.19 34.05 14.26 34.66 11.55 35.9C10.58 36.34 9.44 35.92 8.97 34.97L1.34 19.72C0.86 18.75 1.22 17.54 2.18 17.05C7.8 14.17 13.96 12.77 20.12 12.77C26.29 12.77 32.45 14.17 38.07 17.05C39.03 17.55 39.39 18.75 38.91 19.72L31.28 34.97Z" stroke="#2E1066" stroke-opacity="1.000000" stroke-width="2.000000" stroke-linejoin="round"/>
	<path id="Path" d="M31.28 34.97C30.8 35.92 29.66 36.34 28.7 35.9C25.98 34.66 23.05 34.05 20.12 34.05C17.19 34.05 14.26 34.66 11.55 35.9C10.58 36.34 9.44 35.92 8.97 34.97L1.34 19.72C0.86 18.75 1.22 17.54 2.18 17.05C7.8 14.17 13.96 12.77 20.12 12.77C26.29 12.77 32.45 14.17 38.07 17.05C39.03 17.55 39.39 18.75 38.91 19.72L31.28 34.97Z" stroke="#410F9E" stroke-opacity="1.000000" stroke-width="2.000000" stroke-linejoin="round"/>
	<path id="Path" d="M31.28 34.97C30.8 35.92 29.66 36.34 28.7 35.9C25.98 34.66 23.05 34.05 20.12 34.05C17.19 34.05 14.26 34.66 11.55 35.9C10.58 36.34 9.44 35.92 8.97 34.97L1.34 19.72C0.86 18.75 1.22 17.54 2.18 17.05C7.8 14.17 13.96 12.77 20.12 12.77C26.29 12.77 32.45 14.17 38.07 17.05C39.03 17.55 39.39 18.75 38.91 19.72L31.28 34.97Z" stroke="#453888" stroke-opacity="1.000000" stroke-width="2.000000" stroke-linejoin="round"/>
	<path id="Path" d="M31.28 34.97C30.8 35.92 29.66 36.34 28.7 35.9C25.98 34.66 23.05 34.05 20.12 34.05C17.19 34.05 14.26 34.66 11.55 35.9C10.58 36.34 9.44 35.92 8.97 34.97L1.34 19.72C0.86 18.75 1.22 17.54 2.18 17.05C7.8 14.17 13.96 12.77 20.12 12.77C26.29 12.77 32.45 14.17 38.07 17.05C39.03 17.55 39.39 18.75 38.91 19.72L31.28 34.97Z" stroke="#5946D7" stroke-opacity="1.000000" stroke-width="2.000000" stroke-linejoin="round"/>
	<path id="Path" d="M20.33 6.77C20.33 6.44 20.3 6.1 20.24 5.78" stroke="#2E1066" stroke-opacity="1.000000" stroke-width="2.000000" stroke-linejoin="round" stroke-linecap="round"/>
	<path id="Path" d="M20.33 6.77C20.33 6.44 20.3 6.1 20.24 5.78" stroke="#410F9E" stroke-opacity="1.000000" stroke-width="2.000000" stroke-linejoin="round" stroke-linecap="round"/>
	<path id="Path" d="M20.33 6.77C20.33 6.44 20.3 6.1 20.24 5.78" stroke="#453888" stroke-opacity="1.000000" stroke-width="2.000000" stroke-linejoin="round" stroke-linecap="round"/>
	<path id="Path" d="M20.33 6.77C20.33 6.44 20.3 6.1 20.24 5.78" stroke="#5946D7" stroke-opacity="1.000000" stroke-width="2.000000" stroke-linejoin="round" stroke-linecap="round"/>
	<path id="Path" d="M20.42 5.78C20.36 6.1 20.33 6.44 20.33 6.77" stroke="#2E1066" stroke-opacity="1.000000" stroke-width="2.000000" stroke-linejoin="round" stroke-linecap="round"/>
	<path id="Path" d="M20.42 5.78C20.36 6.1 20.33 6.44 20.33 6.77" stroke="#410F9E" stroke-opacity="1.000000" stroke-width="2.000000" stroke-linejoin="round" stroke-linecap="round"/>
	<path id="Path" d="M20.42 5.78C20.36 6.1 20.33 6.44 20.33 6.77" stroke="#453888" stroke-opacity="1.000000" stroke-width="2.000000" stroke-linejoin="round" stroke-linecap="round"/>
	<path id="Path" d="M20.42 5.78C20.36 6.1 20.33 6.44 20.33 6.77" stroke="#5946D7" stroke-opacity="1.000000" stroke-width="2.000000" stroke-linejoin="round" stroke-linecap="round"/>
	<path id="Path" d="M31.5 2.53C31.25 2.3 30.99 2.09 30.71 1.91" stroke="#2E1066" stroke-opacity="1.000000" stroke-width="2.000000" stroke-linejoin="round" stroke-linecap="round"/>
	<path id="Path" d="M31.5 2.53C31.25 2.3 30.99 2.09 30.71 1.91" stroke="#410F9E" stroke-opacity="1.000000" stroke-width="2.000000" stroke-linejoin="round" stroke-linecap="round"/>
	<path id="Path" d="M31.5 2.53C31.25 2.3 30.99 2.09 30.71 1.91" stroke="#453888" stroke-opacity="1.000000" stroke-width="2.000000" stroke-linejoin="round" stroke-linecap="round"/>
	<path id="Path" d="M31.5 2.53C31.25 2.3 30.99 2.09 30.71 1.91" stroke="#5946D7" stroke-opacity="1.000000" stroke-width="2.000000" stroke-linejoin="round" stroke-linecap="round"/>
	<path id="Path" d="M25.09 1C24.73 1.09 24.38 1.23 24.04 1.39" stroke="#2E1066" stroke-opacity="1.000000" stroke-width="2.000000" stroke-linejoin="round" stroke-linecap="round"/>
	<path id="Path" d="M25.09 1C24.73 1.09 24.38 1.23 24.04 1.39" stroke="#410F9E" stroke-opacity="1.000000" stroke-width="2.000000" stroke-linejoin="round" stroke-linecap="round"/>
	<path id="Path" d="M25.09 1C24.73 1.09 24.38 1.23 24.04 1.39" stroke="#453888" stroke-opacity="1.000000" stroke-width="2.000000" stroke-linejoin="round" stroke-linecap="round"/>
	<path id="Path" d="M25.09 1C24.73 1.09 24.38 1.23 24.04 1.39" stroke="#5946D7" stroke-opacity="1.000000" stroke-width="2.000000" stroke-linejoin="round" stroke-linecap="round"/>
	<path id="Path" d="M9.94 1.91C9.67 2.09 9.4 2.3 9.16 2.53" stroke="#2E1066" stroke-opacity="1.000000" stroke-width="2.000000" stroke-linejoin="round" stroke-linecap="round"/>
	<path id="Path" d="M9.94 1.91C9.67 2.09 9.4 2.3 9.16 2.53" stroke="#410F9E" stroke-opacity="1.000000" stroke-width="2.000000" stroke-linejoin="round" stroke-linecap="round"/>
	<path id="Path" d="M9.94 1.91C9.67 2.09 9.4 2.3 9.16 2.53" stroke="#453888" stroke-opacity="1.000000" stroke-width="2.000000" stroke-linejoin="round" stroke-linecap="round"/>
	<path id="Path" d="M9.94 1.91C9.67 2.09 9.4 2.3 9.16 2.53" stroke="#5946D7" stroke-opacity="1.000000" stroke-width="2.000000" stroke-linejoin="round" stroke-linecap="round"/>
	<path id="Path" d="M15.57 1C15.93 1.09 16.28 1.23 16.62 1.39" stroke="#2E1066" stroke-opacity="1.000000" stroke-width="2.000000" stroke-linejoin="round" stroke-linecap="round"/>
	<path id="Path" d="M15.57 1C15.93 1.09 16.28 1.23 16.62 1.39" stroke="#410F9E" stroke-opacity="1.000000" stroke-width="2.000000" stroke-linejoin="round" stroke-linecap="round"/>
	<path id="Path" d="M15.57 1C15.93 1.09 16.28 1.23 16.62 1.39" stroke="#453888" stroke-opacity="1.000000" stroke-width="2.000000" stroke-linejoin="round" stroke-linecap="round"/>
	<path id="Path" d="M15.57 1C15.93 1.09 16.28 1.23 16.62 1.39" stroke="#5946D7" stroke-opacity="1.000000" stroke-width="2.000000" stroke-linejoin="round" stroke-linecap="round"/>
</svg>
