<svg width="48.019531" height="48.019531" viewBox="0 0 48.0195 48.0195" fill="none" xmlns="http://www.w3.org/2000/svg" xmlns:xlink="http://www.w3.org/1999/xlink">
	<desc>
			Created with Pixso.
	</desc>
	<defs/>
	<path id="Path" d="M16 36L26 36" stroke="#2E1066" stroke-opacity="1.000000" stroke-width="2.000000" stroke-linejoin="round" stroke-linecap="round"/>
	<path id="Path" d="M16 36L26 36" stroke="#410F9E" stroke-opacity="1.000000" stroke-width="2.000000" stroke-linejoin="round" stroke-linecap="round"/>
	<path id="Path" d="M16 36L26 36" stroke="#453888" stroke-opacity="1.000000" stroke-width="2.000000" stroke-linejoin="round" stroke-linecap="round"/>
	<path id="Path" d="M16 36L26 36" stroke="#5946D7" stroke-opacity="1.000000" stroke-width="2.000000" stroke-linejoin="round" stroke-linecap="round"/>
	<path id="Path" d="M16 30L20 30" stroke="#2E1066" stroke-opacity="1.000000" stroke-width="2.000000" stroke-linejoin="round" stroke-linecap="round"/>
	<path id="Path" d="M16 30L20 30" stroke="#410F9E" stroke-opacity="1.000000" stroke-width="2.000000" stroke-linejoin="round" stroke-linecap="round"/>
	<path id="Path" d="M16 30L20 30" stroke="#453888" stroke-opacity="1.000000" stroke-width="2.000000" stroke-linejoin="round" stroke-linecap="round"/>
	<path id="Path" d="M16 30L20 30" stroke="#5946D7" stroke-opacity="1.000000" stroke-width="2.000000" stroke-linejoin="round" stroke-linecap="round"/>
	<path id="Rectangle" d="M40 39C40 40.66 38.66 42 37 42L13 42C11.35 42 10 40.66 10 39L10 14C10 12.9 10.9 12 12 12L29.18 12C29.71 12 30.22 12.22 30.59 12.59L39.42 21.42C39.79 21.79 40 22.3 40 22.83L40 39Z" stroke="#2E1066" stroke-opacity="1.000000" stroke-width="2.000000" stroke-linejoin="round"/>
	<path id="Rectangle" d="M40 39C40 40.66 38.66 42 37 42L13 42C11.35 42 10 40.66 10 39L10 14C10 12.9 10.9 12 12 12L29.18 12C29.71 12 30.22 12.22 30.59 12.59L39.42 21.42C39.79 21.79 40 22.3 40 22.83L40 39Z" stroke="#410F9E" stroke-opacity="1.000000" stroke-width="2.000000" stroke-linejoin="round"/>
	<path id="Rectangle" d="M40 39C40 40.66 38.66 42 37 42L13 42C11.35 42 10 40.66 10 39L10 14C10 12.9 10.9 12 12 12L29.18 12C29.71 12 30.22 12.22 30.59 12.59L39.42 21.42C39.79 21.79 40 22.3 40 22.83L40 39Z" stroke="#453888" stroke-opacity="1.000000" stroke-width="2.000000" stroke-linejoin="round"/>
	<path id="Rectangle" d="M40 39C40 40.66 38.66 42 37 42L13 42C11.35 42 10 40.66 10 39L10 14C10 12.9 10.9 12 12 12L29.18 12C29.71 12 30.22 12.22 30.59 12.59L39.42 21.42C39.79 21.79 40 22.3 40 22.83L40 39Z" stroke="#5946D7" stroke-opacity="1.000000" stroke-width="2.000000" stroke-linejoin="round"/>
	<path id="Rectangle 16" d="M14 12L14 7C14 6.45 14.45 6 15 6L24 6C24.56 6 25 6.45 25 7L25 12" stroke="#2E1066" stroke-opacity="1.000000" stroke-width="2.000000"/>
	<path id="Rectangle 16" d="M14 12L14 7C14 6.45 14.45 6 15 6L24 6C24.56 6 25 6.45 25 7L25 12" stroke="#410F9E" stroke-opacity="1.000000" stroke-width="2.000000"/>
	<path id="Rectangle 16" d="M14 12L14 7C14 6.45 14.45 6 15 6L24 6C24.56 6 25 6.45 25 7L25 12" stroke="#453888" stroke-opacity="1.000000" stroke-width="2.000000"/>
	<path id="Rectangle 16" d="M14 12L14 7C14 6.45 14.45 6 15 6L24 6C24.56 6 25 6.45 25 7L25 12" stroke="#5946D7" stroke-opacity="1.000000" stroke-width="2.000000"/>
	<rect id="Rectangle 17" x="27.130859" y="16.888672" rx="2.689341" width="10.757362" height="5.378681" transform="rotate(45 27.130859 16.888672)" stroke="#2E1066" stroke-opacity="1.000000" stroke-width="2.000000"/>
	<rect id="Rectangle 17" x="27.130859" y="16.888672" rx="2.689341" width="10.757362" height="5.378681" transform="rotate(45 27.130859 16.888672)" stroke="#410F9E" stroke-opacity="1.000000" stroke-width="2.000000"/>
	<rect id="Rectangle 17" x="27.130859" y="16.888672" rx="2.689341" width="10.757362" height="5.378681" transform="rotate(45 27.130859 16.888672)" stroke="#453888" stroke-opacity="1.000000" stroke-width="2.000000"/>
	<rect id="Rectangle 17" x="27.130859" y="16.888672" rx="2.689341" width="10.757362" height="5.378681" transform="rotate(45 27.130859 16.888672)" stroke="#5946D7" stroke-opacity="1.000000" stroke-width="2.000000"/>
</svg>
