<svg width="42.000000" height="42.000000" viewBox="0 0 42 42" fill="none" xmlns="http://www.w3.org/2000/svg" xmlns:xlink="http://www.w3.org/1999/xlink">
	<desc>
			Created with Pixso.
	</desc>
	<defs/>
	<path id="Path" d="M21 17L21 7" stroke="#2E1066" stroke-opacity="1.000000" stroke-width="2.000000" stroke-linejoin="round" stroke-linecap="round"/>
	<path id="Path" d="M21 17L21 7" stroke="#410F9E" stroke-opacity="1.000000" stroke-width="2.000000" stroke-linejoin="round" stroke-linecap="round"/>
	<path id="Path" d="M21 17L21 7" stroke="#453888" stroke-opacity="1.000000" stroke-width="2.000000" stroke-linejoin="round" stroke-linecap="round"/>
	<path id="Path" d="M21 17L21 7" stroke="#5946D7" stroke-opacity="1.000000" stroke-width="2.000000" stroke-linejoin="round" stroke-linecap="round"/>
	<path id="Path" d="M21 35L21 25" stroke="#2E1066" stroke-opacity="1.000000" stroke-width="2.000000" stroke-linejoin="round" stroke-linecap="round"/>
	<path id="Path" d="M21 35L21 25" stroke="#410F9E" stroke-opacity="1.000000" stroke-width="2.000000" stroke-linejoin="round" stroke-linecap="round"/>
	<path id="Path" d="M21 35L21 25" stroke="#453888" stroke-opacity="1.000000" stroke-width="2.000000" stroke-linejoin="round" stroke-linecap="round"/>
	<path id="Path" d="M21 35L21 25" stroke="#5946D7" stroke-opacity="1.000000" stroke-width="2.000000" stroke-linejoin="round" stroke-linecap="round"/>
	<path id="Path" d="M23.82 18.17L30.9 11.09" stroke="#2E1066" stroke-opacity="1.000000" stroke-width="2.000000" stroke-linejoin="round" stroke-linecap="round"/>
	<path id="Path" d="M23.82 18.17L30.9 11.09" stroke="#410F9E" stroke-opacity="1.000000" stroke-width="2.000000" stroke-linejoin="round" stroke-linecap="round"/>
	<path id="Path" d="M23.82 18.17L30.9 11.09" stroke="#453888" stroke-opacity="1.000000" stroke-width="2.000000" stroke-linejoin="round" stroke-linecap="round"/>
	<path id="Path" d="M23.82 18.17L30.9 11.09" stroke="#5946D7" stroke-opacity="1.000000" stroke-width="2.000000" stroke-linejoin="round" stroke-linecap="round"/>
	<path id="Path" d="M11.09 30.9L18.17 23.82" stroke="#2E1066" stroke-opacity="1.000000" stroke-width="2.000000" stroke-linejoin="round" stroke-linecap="round"/>
	<path id="Path" d="M11.09 30.9L18.17 23.82" stroke="#410F9E" stroke-opacity="1.000000" stroke-width="2.000000" stroke-linejoin="round" stroke-linecap="round"/>
	<path id="Path" d="M11.09 30.9L18.17 23.82" stroke="#453888" stroke-opacity="1.000000" stroke-width="2.000000" stroke-linejoin="round" stroke-linecap="round"/>
	<path id="Path" d="M11.09 30.9L18.17 23.82" stroke="#5946D7" stroke-opacity="1.000000" stroke-width="2.000000" stroke-linejoin="round" stroke-linecap="round"/>
	<path id="Path" d="M25 21L35 21" stroke="#2E1066" stroke-opacity="1.000000" stroke-width="2.000000" stroke-linejoin="round" stroke-linecap="round"/>
	<path id="Path" d="M25 21L35 21" stroke="#410F9E" stroke-opacity="1.000000" stroke-width="2.000000" stroke-linejoin="round" stroke-linecap="round"/>
	<path id="Path" d="M25 21L35 21" stroke="#453888" stroke-opacity="1.000000" stroke-width="2.000000" stroke-linejoin="round" stroke-linecap="round"/>
	<path id="Path" d="M25 21L35 21" stroke="#5946D7" stroke-opacity="1.000000" stroke-width="2.000000" stroke-linejoin="round" stroke-linecap="round"/>
	<path id="Path" d="M7 21L17 21" stroke="#2E1066" stroke-opacity="1.000000" stroke-width="2.000000" stroke-linejoin="round" stroke-linecap="round"/>
	<path id="Path" d="M7 21L17 21" stroke="#410F9E" stroke-opacity="1.000000" stroke-width="2.000000" stroke-linejoin="round" stroke-linecap="round"/>
	<path id="Path" d="M7 21L17 21" stroke="#453888" stroke-opacity="1.000000" stroke-width="2.000000" stroke-linejoin="round" stroke-linecap="round"/>
	<path id="Path" d="M7 21L17 21" stroke="#5946D7" stroke-opacity="1.000000" stroke-width="2.000000" stroke-linejoin="round" stroke-linecap="round"/>
	<path id="Path" d="M23.82 23.82L30.9 30.9" stroke="#2E1066" stroke-opacity="1.000000" stroke-width="2.000000" stroke-linejoin="round" stroke-linecap="round"/>
	<path id="Path" d="M23.82 23.82L30.9 30.9" stroke="#410F9E" stroke-opacity="1.000000" stroke-width="2.000000" stroke-linejoin="round" stroke-linecap="round"/>
	<path id="Path" d="M23.82 23.82L30.9 30.9" stroke="#453888" stroke-opacity="1.000000" stroke-width="2.000000" stroke-linejoin="round" stroke-linecap="round"/>
	<path id="Path" d="M23.82 23.82L30.9 30.9" stroke="#5946D7" stroke-opacity="1.000000" stroke-width="2.000000" stroke-linejoin="round" stroke-linecap="round"/>
	<path id="Path" d="M11.09 11.09L18.17 18.17" stroke="#2E1066" stroke-opacity="1.000000" stroke-width="2.000000" stroke-linejoin="round" stroke-linecap="round"/>
	<path id="Path" d="M11.09 11.09L18.17 18.17" stroke="#410F9E" stroke-opacity="1.000000" stroke-width="2.000000" stroke-linejoin="round" stroke-linecap="round"/>
	<path id="Path" d="M11.09 11.09L18.17 18.17" stroke="#453888" stroke-opacity="1.000000" stroke-width="2.000000" stroke-linejoin="round" stroke-linecap="round"/>
	<path id="Path" d="M11.09 11.09L18.17 18.17" stroke="#5946D7" stroke-opacity="1.000000" stroke-width="2.000000" stroke-linejoin="round" stroke-linecap="round"/>
	<path id="Path" d="M35.14 35.14C27.33 42.95 14.66 42.95 6.85 35.14C-0.96 27.33 -0.96 14.66 6.85 6.85C14.66 -0.96 27.33 -0.96 35.14 6.85C42.95 14.66 42.95 27.33 35.14 35.14Z" stroke="#2E1066" stroke-opacity="1.000000" stroke-width="2.000000" stroke-linejoin="round"/>
	<path id="Path" d="M35.14 35.14C27.33 42.95 14.66 42.95 6.85 35.14C-0.96 27.33 -0.96 14.66 6.85 6.85C14.66 -0.96 27.33 -0.96 35.14 6.85C42.95 14.66 42.95 27.33 35.14 35.14Z" stroke="#410F9E" stroke-opacity="1.000000" stroke-width="2.000000" stroke-linejoin="round"/>
	<path id="Path" d="M35.14 35.14C27.33 42.95 14.66 42.95 6.85 35.14C-0.96 27.33 -0.96 14.66 6.85 6.85C14.66 -0.96 27.33 -0.96 35.14 6.85C42.95 14.66 42.95 27.33 35.14 35.14Z" stroke="#453888" stroke-opacity="1.000000" stroke-width="2.000000" stroke-linejoin="round"/>
	<path id="Path" d="M35.14 35.14C27.33 42.95 14.66 42.95 6.85 35.14C-0.96 27.33 -0.96 14.66 6.85 6.85C14.66 -0.96 27.33 -0.96 35.14 6.85C42.95 14.66 42.95 27.33 35.14 35.14Z" stroke="#5946D7" stroke-opacity="1.000000" stroke-width="2.000000" stroke-linejoin="round"/>
	<path id="Path" d="M30.9 30.9C25.43 36.36 16.56 36.36 11.09 30.9C5.63 25.43 5.63 16.56 11.09 11.09C16.56 5.63 25.43 5.63 30.9 11.09C36.36 16.56 36.36 25.43 30.9 30.9Z" stroke="#2E1066" stroke-opacity="1.000000" stroke-width="2.000000" stroke-linejoin="round"/>
	<path id="Path" d="M30.9 30.9C25.43 36.36 16.56 36.36 11.09 30.9C5.63 25.43 5.63 16.56 11.09 11.09C16.56 5.63 25.43 5.63 30.9 11.09C36.36 16.56 36.36 25.43 30.9 30.9Z" stroke="#410F9E" stroke-opacity="1.000000" stroke-width="2.000000" stroke-linejoin="round"/>
	<path id="Path" d="M30.9 30.9C25.43 36.36 16.56 36.36 11.09 30.9C5.63 25.43 5.63 16.56 11.09 11.09C16.56 5.63 25.43 5.63 30.9 11.09C36.36 16.56 36.36 25.43 30.9 30.9Z" stroke="#453888" stroke-opacity="1.000000" stroke-width="2.000000" stroke-linejoin="round"/>
	<path id="Path" d="M30.9 30.9C25.43 36.36 16.56 36.36 11.09 30.9C5.63 25.43 5.63 16.56 11.09 11.09C16.56 5.63 25.43 5.63 30.9 11.09C36.36 16.56 36.36 25.43 30.9 30.9Z" stroke="#5946D7" stroke-opacity="1.000000" stroke-width="2.000000" stroke-linejoin="round"/>
	<path id="Path" d="M23.82 23.82C22.26 25.39 19.73 25.39 18.17 23.82C16.6 22.26 16.6 19.73 18.17 18.17C19.73 16.6 22.26 16.6 23.82 18.17C25.39 19.73 25.39 22.26 23.82 23.82Z" stroke="#2E1066" stroke-opacity="1.000000" stroke-width="2.000000" stroke-linejoin="round"/>
	<path id="Path" d="M23.82 23.82C22.26 25.39 19.73 25.39 18.17 23.82C16.6 22.26 16.6 19.73 18.17 18.17C19.73 16.6 22.26 16.6 23.82 18.17C25.39 19.73 25.39 22.26 23.82 23.82Z" stroke="#410F9E" stroke-opacity="1.000000" stroke-width="2.000000" stroke-linejoin="round"/>
	<path id="Path" d="M23.82 23.82C22.26 25.39 19.73 25.39 18.17 23.82C16.6 22.26 16.6 19.73 18.17 18.17C19.73 16.6 22.26 16.6 23.82 18.17C25.39 19.73 25.39 22.26 23.82 23.82Z" stroke="#453888" stroke-opacity="1.000000" stroke-width="2.000000" stroke-linejoin="round"/>
	<path id="Path" d="M23.82 23.82C22.26 25.39 19.73 25.39 18.17 23.82C16.6 22.26 16.6 19.73 18.17 18.17C19.73 16.6 22.26 16.6 23.82 18.17C25.39 19.73 25.39 22.26 23.82 23.82Z" stroke="#5946D7" stroke-opacity="1.000000" stroke-width="2.000000" stroke-linejoin="round"/>
</svg>
