<svg width="32.000000" height="32.000000" viewBox="0 0 32 32" fill="none" xmlns="http://www.w3.org/2000/svg" xmlns:xlink="http://www.w3.org/1999/xlink">
	<desc>
			Created with Pixso.
	</desc>
	<defs/>
	<path id="Path" d="M13.58 9.33L24.66 9.33C25.53 9.33 26.16 10.14 25.96 10.99L24.16 18.17C23.88 19.27 22.96 20.07 21.84 20.18L12.75 21.09C11.39 21.23 10.16 20.32 9.87 18.99L7.83 9.33" stroke="#2E1066" stroke-opacity="1.000000" stroke-width="2.000000" stroke-linejoin="round" stroke-linecap="round"/>
	<path id="Path" d="M13.58 9.33L24.66 9.33C25.53 9.33 26.16 10.14 25.96 10.99L24.16 18.17C23.88 19.27 22.96 20.07 21.84 20.18L12.75 21.09C11.39 21.23 10.16 20.32 9.87 18.99L7.83 9.33" stroke="#410F9E" stroke-opacity="1.000000" stroke-width="2.000000" stroke-linejoin="round" stroke-linecap="round"/>
	<path id="Path" d="M13.58 9.33L24.66 9.33C25.53 9.33 26.16 10.14 25.96 10.99L24.16 18.17C23.88 19.27 22.96 20.07 21.84 20.18L12.75 21.09C11.39 21.23 10.16 20.32 9.87 18.99L7.83 9.33" stroke="#453888" stroke-opacity="1.000000" stroke-width="2.000000" stroke-linejoin="round" stroke-linecap="round"/>
	<path id="Path" d="M13.58 9.33L24.66 9.33C25.53 9.33 26.16 10.14 25.96 10.99L24.16 18.17C23.88 19.27 22.96 20.07 21.84 20.18L12.75 21.09C11.39 21.23 10.16 20.32 9.87 18.99L7.83 9.33" stroke="#5946D7" stroke-opacity="1.000000" stroke-width="2.000000" stroke-linejoin="round" stroke-linecap="round"/>
	<path id="Path" d="M13.58 9.33L24.66 9.33C25.53 9.33 26.16 10.14 25.96 10.99L24.16 18.17C23.88 19.27 22.96 20.07 21.84 20.18L12.75 21.09C11.39 21.23 10.16 20.32 9.87 18.99L7.83 9.33" stroke="#6B59CC" stroke-opacity="1.000000" stroke-width="2.000000" stroke-linejoin="round" stroke-linecap="round"/>
	<path id="Path" d="M7.83 9.33L6.96 5.33L4.66 5.33" stroke="#2E1066" stroke-opacity="1.000000" stroke-width="2.000000" stroke-linejoin="round" stroke-linecap="round"/>
	<path id="Path" d="M7.83 9.33L6.96 5.33L4.66 5.33" stroke="#410F9E" stroke-opacity="1.000000" stroke-width="2.000000" stroke-linejoin="round" stroke-linecap="round"/>
	<path id="Path" d="M7.83 9.33L6.96 5.33L4.66 5.33" stroke="#453888" stroke-opacity="1.000000" stroke-width="2.000000" stroke-linejoin="round" stroke-linecap="round"/>
	<path id="Path" d="M7.83 9.33L6.96 5.33L4.66 5.33" stroke="#5946D7" stroke-opacity="1.000000" stroke-width="2.000000" stroke-linejoin="round" stroke-linecap="round"/>
	<path id="Path" d="M7.83 9.33L6.96 5.33L4.66 5.33" stroke="#6B59CC" stroke-opacity="1.000000" stroke-width="2.000000" stroke-linejoin="round" stroke-linecap="round"/>
	<path id="Path" d="M22.32 26.17C22.32 26.44 22.54 26.66 22.81 26.66C23.08 26.66 23.3 26.44 23.3 26.17C23.3 25.9 23.08 25.68 22.81 25.68C22.54 25.68 22.32 25.9 22.32 26.17Z" stroke="#2E1066" stroke-opacity="1.000000" stroke-width="2.000000" stroke-linejoin="round"/>
	<path id="Path" d="M22.32 26.17C22.32 26.44 22.54 26.66 22.81 26.66C23.08 26.66 23.3 26.44 23.3 26.17C23.3 25.9 23.08 25.68 22.81 25.68C22.54 25.68 22.32 25.9 22.32 26.17Z" stroke="#410F9E" stroke-opacity="1.000000" stroke-width="2.000000" stroke-linejoin="round"/>
	<path id="Path" d="M22.32 26.17C22.32 26.44 22.54 26.66 22.81 26.66C23.08 26.66 23.3 26.44 23.3 26.17C23.3 25.9 23.08 25.68 22.81 25.68C22.54 25.68 22.32 25.9 22.32 26.17Z" stroke="#453888" stroke-opacity="1.000000" stroke-width="2.000000" stroke-linejoin="round"/>
	<path id="Path" d="M22.32 26.17C22.32 26.44 22.54 26.66 22.81 26.66C23.08 26.66 23.3 26.44 23.3 26.17C23.3 25.9 23.08 25.68 22.81 25.68C22.54 25.68 22.32 25.9 22.32 26.17Z" stroke="#5946D7" stroke-opacity="1.000000" stroke-width="2.000000" stroke-linejoin="round"/>
	<path id="Path" d="M22.32 26.17C22.32 26.44 22.54 26.66 22.81 26.66C23.08 26.66 23.3 26.44 23.3 26.17C23.3 25.9 23.08 25.68 22.81 25.68C22.54 25.68 22.32 25.9 22.32 26.17Z" stroke="#6B59CC" stroke-opacity="1.000000" stroke-width="2.000000" stroke-linejoin="round"/>
	<path id="Path" d="M11.11 26.17C11.1 26.44 11.32 26.66 11.59 26.66C11.86 26.66 12.08 26.44 12.08 26.17C12.08 25.9 11.86 25.68 11.59 25.68C11.32 25.68 11.1 25.9 11.11 26.17Z" stroke="#2E1066" stroke-opacity="1.000000" stroke-width="2.000000" stroke-linejoin="round"/>
	<path id="Path" d="M11.11 26.17C11.1 26.44 11.32 26.66 11.59 26.66C11.86 26.66 12.08 26.44 12.08 26.17C12.08 25.9 11.86 25.68 11.59 25.68C11.32 25.68 11.1 25.9 11.11 26.17Z" stroke="#410F9E" stroke-opacity="1.000000" stroke-width="2.000000" stroke-linejoin="round"/>
	<path id="Path" d="M11.11 26.17C11.1 26.44 11.32 26.66 11.59 26.66C11.86 26.66 12.08 26.44 12.08 26.17C12.08 25.9 11.86 25.68 11.59 25.68C11.32 25.68 11.1 25.9 11.11 26.17Z" stroke="#453888" stroke-opacity="1.000000" stroke-width="2.000000" stroke-linejoin="round"/>
	<path id="Path" d="M11.11 26.17C11.1 26.44 11.32 26.66 11.59 26.66C11.86 26.66 12.08 26.44 12.08 26.17C12.08 25.9 11.86 25.68 11.59 25.68C11.32 25.68 11.1 25.9 11.11 26.17Z" stroke="#5946D7" stroke-opacity="1.000000" stroke-width="2.000000" stroke-linejoin="round"/>
	<path id="Path" d="M11.11 26.17C11.1 26.44 11.32 26.66 11.59 26.66C11.86 26.66 12.08 26.44 12.08 26.17C12.08 25.9 11.86 25.68 11.59 25.68C11.32 25.68 11.1 25.9 11.11 26.17Z" stroke="#6B59CC" stroke-opacity="1.000000" stroke-width="2.000000" stroke-linejoin="round"/>
</svg>
