<svg width="16.666016" height="16.458008" viewBox="0 0 16.666 16.458" fill="none" xmlns="http://www.w3.org/2000/svg" xmlns:xlink="http://www.w3.org/1999/xlink">
	<desc>
			Created with Pixso.
	</desc>
	<defs/>
	<path id="Shape" d="M0.31 3.05C0.55 1.65 1.66 0.62 3.07 0.4C4.42 0.2 6.27 0 8.33 0C10.38 0 12.23 0.2 13.58 0.4C14.99 0.62 16.11 1.65 16.35 3.05C16.52 4.03 16.66 5.27 16.66 6.66C16.66 8.05 16.52 9.29 16.35 10.27C16.11 11.67 14.99 12.71 13.58 12.92C12.35 13.11 10.69 13.29 8.85 13.32L3.75 16.34C3.2 16.66 2.5 16.26 2.5 15.62L2.5 12.78C1.37 12.41 0.51 11.48 0.31 10.27C0.14 9.29 0 8.05 0 6.66C0 5.27 0.14 4.03 0.31 3.05ZM3.33 5C3.33 4.54 3.7 4.16 4.16 4.16L12.5 4.16C12.96 4.16 13.33 4.54 13.33 5C13.33 5.45 12.96 5.83 12.5 5.83L4.16 5.83C3.7 5.83 3.33 5.45 3.33 5ZM3.33 8.33C3.33 7.87 3.7 7.5 4.16 7.5L7.5 7.5C7.96 7.5 8.33 7.87 8.33 8.33C8.33 8.79 7.96 9.16 7.5 9.16L4.16 9.16C3.7 9.16 3.33 8.79 3.33 8.33Z" fill="#FFFFFF" fill-opacity="1.000000" fill-rule="evenodd"/>
</svg>
