<svg width="14.832031" height="14.832031" viewBox="0 0 14.832 14.832" fill="none" xmlns="http://www.w3.org/2000/svg" xmlns:xlink="http://www.w3.org/1999/xlink">
	<desc>
			Created with Pixso.
	</desc>
	<defs/>
	<path id="Path" d="M1.58 8.24C1.12 8.24 0.75 7.87 0.75 7.41C0.75 6.95 1.12 6.58 1.58 6.58C2.04 6.58 2.41 6.95 2.41 7.41C2.41 7.87 2.04 8.24 1.58 8.24Z" fill="#FFFFFF" fill-opacity="1.000000" fill-rule="evenodd"/>
	<path id="Path" d="M0.75 7.41C0.75 6.95 1.12 6.58 1.58 6.58C2.04 6.58 2.41 6.95 2.41 7.41C2.41 7.87 2.04 8.24 1.58 8.24C1.12 8.24 0.75 7.87 0.75 7.41Z" stroke="#FFFFFF" stroke-opacity="1.000000" stroke-width="1.500000" stroke-linejoin="round"/>
	<path id="Path" d="M7.41 8.24C6.95 8.24 6.58 7.87 6.58 7.41C6.58 6.95 6.95 6.58 7.41 6.58C7.87 6.58 8.24 6.95 8.24 7.41C8.24 7.87 7.87 8.24 7.41 8.24Z" fill="#FFFFFF" fill-opacity="1.000000" fill-rule="evenodd"/>
	<path id="Path" d="M6.58 7.41C6.58 6.95 6.95 6.58 7.41 6.58C7.87 6.58 8.24 6.95 8.24 7.41C8.24 7.87 7.87 8.24 7.41 8.24C6.95 8.24 6.58 7.87 6.58 7.41Z" stroke="#FFFFFF" stroke-opacity="1.000000" stroke-width="1.500000" stroke-linejoin="round"/>
	<path id="Path" d="M13.25 8.24C12.78 8.24 12.41 7.87 12.41 7.41C12.41 6.95 12.78 6.58 13.25 6.58C13.7 6.58 14.08 6.95 14.08 7.41C14.08 7.87 13.7 8.24 13.25 8.24Z" fill="#FFFFFF" fill-opacity="1.000000" fill-rule="evenodd"/>
	<path id="Path" d="M12.41 7.41C12.41 6.95 12.78 6.58 13.25 6.58C13.7 6.58 14.08 6.95 14.08 7.41C14.08 7.87 13.7 8.24 13.25 8.24C12.78 8.24 12.41 7.87 12.41 7.41Z" stroke="#FFFFFF" stroke-opacity="1.000000" stroke-width="1.500000" stroke-linejoin="round"/>
	<path id="Path" d="M1.58 14.08C1.12 14.08 0.75 13.7 0.75 13.25C0.75 12.78 1.12 12.41 1.58 12.41C2.04 12.41 2.41 12.78 2.41 13.25C2.41 13.7 2.04 14.08 1.58 14.08Z" fill="#FFFFFF" fill-opacity="1.000000" fill-rule="evenodd"/>
	<path id="Path" d="M0.75 13.25C0.75 12.78 1.12 12.41 1.58 12.41C2.04 12.41 2.41 12.78 2.41 13.25C2.41 13.7 2.04 14.08 1.58 14.08C1.12 14.08 0.75 13.7 0.75 13.25Z" stroke="#FFFFFF" stroke-opacity="1.000000" stroke-width="1.500000" stroke-linejoin="round"/>
	<path id="Path" d="M7.41 14.08C6.95 14.08 6.58 13.7 6.58 13.25C6.58 12.78 6.95 12.41 7.41 12.41C7.87 12.41 8.24 12.78 8.24 13.25C8.24 13.7 7.87 14.08 7.41 14.08Z" fill="#FFFFFF" fill-opacity="1.000000" fill-rule="evenodd"/>
	<path id="Path" d="M6.58 13.25C6.58 12.78 6.95 12.41 7.41 12.41C7.87 12.41 8.24 12.78 8.24 13.25C8.24 13.7 7.87 14.08 7.41 14.08C6.95 14.08 6.58 13.7 6.58 13.25Z" stroke="#FFFFFF" stroke-opacity="1.000000" stroke-width="1.500000" stroke-linejoin="round"/>
	<path id="Path" d="M13.25 14.08C12.78 14.08 12.41 13.7 12.41 13.25C12.41 12.78 12.78 12.41 13.25 12.41C13.7 12.41 14.08 12.78 14.08 13.25C14.08 13.7 13.7 14.08 13.25 14.08Z" fill="#FFFFFF" fill-opacity="1.000000" fill-rule="evenodd"/>
	<path id="Path" d="M12.41 13.25C12.41 12.78 12.78 12.41 13.25 12.41C13.7 12.41 14.08 12.78 14.08 13.25C14.08 13.7 13.7 14.08 13.25 14.08C12.78 14.08 12.41 13.7 12.41 13.25Z" stroke="#FFFFFF" stroke-opacity="1.000000" stroke-width="1.500000" stroke-linejoin="round"/>
	<path id="Path" d="M1.58 2.41C1.12 2.41 0.75 2.04 0.75 1.58C0.75 1.12 1.12 0.75 1.58 0.75C2.04 0.75 2.41 1.12 2.41 1.58C2.41 2.04 2.04 2.41 1.58 2.41Z" fill="#FFFFFF" fill-opacity="1.000000" fill-rule="evenodd"/>
	<path id="Path" d="M0.75 1.58C0.75 1.12 1.12 0.75 1.58 0.75C2.04 0.75 2.41 1.12 2.41 1.58C2.41 2.04 2.04 2.41 1.58 2.41C1.12 2.41 0.75 2.04 0.75 1.58Z" stroke="#FFFFFF" stroke-opacity="1.000000" stroke-width="1.500000" stroke-linejoin="round"/>
	<path id="Path" d="M7.41 2.41C6.95 2.41 6.58 2.04 6.58 1.58C6.58 1.12 6.95 0.75 7.41 0.75C7.87 0.75 8.24 1.12 8.24 1.58C8.24 2.04 7.87 2.41 7.41 2.41Z" fill="#FFFFFF" fill-opacity="1.000000" fill-rule="evenodd"/>
	<path id="Path" d="M6.58 1.58C6.58 1.12 6.95 0.75 7.41 0.75C7.87 0.75 8.24 1.12 8.24 1.58C8.24 2.04 7.87 2.41 7.41 2.41C6.95 2.41 6.58 2.04 6.58 1.58Z" stroke="#FFFFFF" stroke-opacity="1.000000" stroke-width="1.500000" stroke-linejoin="round"/>
	<path id="Path" d="M13.25 2.41C12.78 2.41 12.41 2.04 12.41 1.58C12.41 1.12 12.78 0.75 13.25 0.75C13.7 0.75 14.08 1.12 14.08 1.58C14.08 2.04 13.7 2.41 13.25 2.41Z" fill="#FFFFFF" fill-opacity="1.000000" fill-rule="evenodd"/>
	<path id="Path" d="M12.41 1.58C12.41 1.12 12.78 0.75 13.25 0.75C13.7 0.75 14.08 1.12 14.08 1.58C14.08 2.04 13.7 2.41 13.25 2.41C12.78 2.41 12.41 2.04 12.41 1.58Z" stroke="#FFFFFF" stroke-opacity="1.000000" stroke-width="1.500000" stroke-linejoin="round"/>
</svg>
