<svg width="24.000000" height="24.000000" viewBox="0 0 24 24" fill="none" xmlns="http://www.w3.org/2000/svg" xmlns:xlink="http://www.w3.org/1999/xlink">
	<desc>
			Created with Pixso.
	</desc>
	<defs/>
	<rect id="Group/Pin, Location" width="24.000000" height="24.000000" fill="#FFFFFF" fill-opacity="0"/>
	<g opacity="0.500000">
		<path id="Path" d="M9 10C9 8.34 10.34 7 12 7C13.65 7 15 8.34 15 10C15 11.65 13.65 13 12 13C10.34 13 9 11.65 9 10Z" stroke="#2E1066" stroke-opacity="1.000000" stroke-width="1.500000" stroke-linejoin="round"/>
		<path id="Path" d="M9 10C9 8.34 10.34 7 12 7C13.65 7 15 8.34 15 10C15 11.65 13.65 13 12 13C10.34 13 9 11.65 9 10Z" stroke="#410F9E" stroke-opacity="1.000000" stroke-width="1.500000" stroke-linejoin="round"/>
		<path id="Path" d="M9 10C9 8.34 10.34 7 12 7C13.65 7 15 8.34 15 10C15 11.65 13.65 13 12 13C10.34 13 9 11.65 9 10Z" stroke="#453888" stroke-opacity="1.000000" stroke-width="1.500000" stroke-linejoin="round"/>
		<path id="Path" d="M9 10C9 8.34 10.34 7 12 7C13.65 7 15 8.34 15 10C15 11.65 13.65 13 12 13C10.34 13 9 11.65 9 10Z" stroke="#5946D7" stroke-opacity="1.000000" stroke-width="1.500000" stroke-linejoin="round"/>
		<path id="Path" d="M9 10C9 8.34 10.34 7 12 7C13.65 7 15 8.34 15 10C15 11.65 13.65 13 12 13C10.34 13 9 11.65 9 10Z" stroke="#6B59CC" stroke-opacity="1.000000" stroke-width="1.500000" stroke-linejoin="round"/>
	</g>
	<path id="Path" d="M5 10C5 6.13 8.13 3 12 3C15.86 3 19 6.13 19 10C19 15.25 12 21 12 21C12 21 5 15.25 5 10Z" stroke="#2E1066" stroke-opacity="1.000000" stroke-width="1.500000" stroke-linejoin="round"/>
	<path id="Path" d="M5 10C5 6.13 8.13 3 12 3C15.86 3 19 6.13 19 10C19 15.25 12 21 12 21C12 21 5 15.25 5 10Z" stroke="#410F9E" stroke-opacity="1.000000" stroke-width="1.500000" stroke-linejoin="round"/>
	<path id="Path" d="M5 10C5 6.13 8.13 3 12 3C15.86 3 19 6.13 19 10C19 15.25 12 21 12 21C12 21 5 15.25 5 10Z" stroke="#453888" stroke-opacity="1.000000" stroke-width="1.500000" stroke-linejoin="round"/>
	<path id="Path" d="M5 10C5 6.13 8.13 3 12 3C15.86 3 19 6.13 19 10C19 15.25 12 21 12 21C12 21 5 15.25 5 10Z" stroke="#5946D7" stroke-opacity="1.000000" stroke-width="1.500000" stroke-linejoin="round"/>
	<path id="Path" d="M5 10C5 6.13 8.13 3 12 3C15.86 3 19 6.13 19 10C19 15.25 12 21 12 21C12 21 5 15.25 5 10Z" stroke="#6B59CC" stroke-opacity="1.000000" stroke-width="1.500000" stroke-linejoin="round"/>
</svg>
