<svg width="205.371094" height="41.000000" viewBox="0 0 205.371 41" fill="none" xmlns="http://www.w3.org/2000/svg" xmlns:xlink="http://www.w3.org/1999/xlink">
	<desc>
			Created with Pixso.
	</desc>
	<defs>
		<clipPath id="clip1_15665">
			<rect id="akar-icons:gear" width="44.000000" height="44.000000" transform="translate(-2.000000 -1.000000)" fill="white" fill-opacity="0"/>
		</clipPath>
		<clipPath id="clip1_15669">
			<rect id="ph:gear-duotone" width="46.000000" height="46.000000" transform="translate(-3.000000 -2.000000)" fill="white" fill-opacity="0"/>
		</clipPath>
		<clipPath id="clip1_15662">
			<rect id="gear 1" width="40.000000" height="40.000000" transform="translate(0.000000 1.000000)" fill="white" fill-opacity="0"/>
		</clipPath>
		<clipPath id="clip1_15673">
			<rect id="sedan-car-front 1" width="19.000000" height="26.000000" transform="translate(6.000000 8.000000)" fill="white" fill-opacity="0"/>
		</clipPath>
		<clipPath id="clip1_15660">
			<rect id="settings 1" width="40.000000" height="40.000000" transform="translate(0.000000 1.000000)" fill="white" fill-opacity="0"/>
		</clipPath>
		<clipPath id="clip1_15630">
			<rect id="Frame" width="40.000000" height="40.000000" transform="translate(0.000000 1.000000)" fill="white" fill-opacity="0"/>
		</clipPath>
	</defs>
	<path id="Oner.ru" d="M50.26 21.85Q50.26 20.2 50.7 18.67Q51.6 15.52 54.35 12.9Q56.81 10.57 59.71 9.63Q61.67 9 63.84 9Q67.33 9 69.94 10.52Q71.02 11.16 71.95 12.06Q73.58 13.63 74.37 15.55Q75.1 17.35 75.1 19.45Q75.1 20.65 74.87 21.81Q74.43 23.91 73.21 25.84C71.95 27.83 70.28 29.41 68.2 30.59Q66.39 31.62 64.45 32.05Q63.05 32.35 61.59 32.35Q58.1 32.35 55.48 30.84Q54.39 30.21 53.45 29.31Q51.82 27.74 51.02 25.83Q50.26 24 50.26 21.85ZM97.54 9.46L102.34 9.46L97.6 31.87L93.6 31.87L85.42 17.6L82.4 31.87L77.6 31.87L82.34 9.46L86.34 9.46L94.54 23.75L97.54 9.46ZM109.7 27.56L121.7 27.56L120.79 31.87L103.99 31.87L108.73 9.46L125.21 9.46L124.32 13.79L112.63 13.79L111.68 18.28L120.79 18.28L119.87 22.59L110.74 22.59L109.7 27.56ZM125.92 31.87L130.65 9.46L140.12 9.46Q141.74 9.46 143.07 10.09Q144.07 10.56 144.9 11.39C146.2 12.67 146.85 14.16 146.85 15.87C146.85 16.97 146.66 18 146.27 18.93Q145.7 20.32 144.87 21.12C144.33 21.65 143.79 22.1 143.26 22.46C142.73 22.83 142.27 23.07 141.88 23.2L141.31 23.39L144.32 31.87L139.32 31.87L136.67 24.03L132.38 24.03L130.71 31.87L125.92 31.87ZM157.91 31.87L162.65 9.46L172.12 9.46Q173.74 9.46 175.07 10.09Q176.07 10.56 176.9 11.39C178.2 12.67 178.85 14.16 178.85 15.87C178.85 16.97 178.66 18 178.27 18.93Q177.69 20.32 176.87 21.12C176.33 21.65 175.79 22.1 175.26 22.46C174.73 22.83 174.27 23.07 173.88 23.2L173.3 23.39L176.32 31.87L171.32 31.87L168.66 24.03L164.38 24.03L162.71 31.87L157.91 31.87ZM191.84 28.03C193.2 28.03 194.44 27.53 195.57 26.53C196.7 25.53 197.43 24.27 197.76 22.75L200.57 9.46L205.37 9.46L202.55 22.75C201.96 25.54 200.67 27.84 198.68 29.65C196.7 31.45 194.35 32.35 191.62 32.35C189.12 32.35 187.03 31.62 185.35 30.15C183.68 28.67 182.85 26.8 182.85 24.54Q182.85 23.68 183.04 22.75L185.85 9.46L190.65 9.46L187.84 22.75C187.75 23.11 187.71 23.5 187.71 23.9C187.71 25.12 188.1 26.11 188.87 26.89C189.65 27.65 190.64 28.03 191.84 28.03ZM63.51 13.28Q62.47 13.28 61.51 13.54Q59.49 14.09 57.79 15.79Q56.19 17.4 55.61 19.32Q55.29 20.4 55.29 21.57Q55.29 23.2 55.93 24.52Q56.37 25.42 57.12 26.18Q57.72 26.79 58.44 27.19Q59.91 28.03 61.85 28.03Q62.88 28.03 63.83 27.77Q65.84 27.24 67.54 25.57Q68.98 24.17 69.6 22.46Q70.07 21.17 70.07 19.71Q70.07 18.11 69.44 16.82Q68.99 15.89 68.21 15.12Q67.55 14.46 66.75 14.03Q65.33 13.28 63.51 13.28ZM138.21 19.71C139.19 19.71 140.06 19.42 140.81 18.82C141.57 18.22 141.95 17.42 141.95 16.42Q141.95 15.69 141.66 15.1Q141.51 14.81 141.29 14.56Q141.02 14.25 140.69 14.06Q140.2 13.79 139.56 13.79L134.56 13.79L133.27 19.71L138.21 19.71ZM170.21 19.71C171.19 19.71 172.05 19.42 172.8 18.82C173.57 18.22 173.94 17.42 173.94 16.42Q173.94 15.69 173.65 15.1Q173.51 14.81 173.29 14.56Q173.02 14.25 172.69 14.06Q172.2 13.79 171.55 13.79L166.55 13.79L165.27 19.71L170.21 19.71ZM148.23 30.01C148.23 29.35 148.51 28.75 149.09 28.21C149.66 27.66 150.32 27.39 151.07 27.39C151.76 27.39 152.32 27.6 152.76 28.03C153.21 28.45 153.43 28.97 153.43 29.57C153.43 30.28 153.14 30.9 152.57 31.42C152 31.93 151.34 32.18 150.59 32.18C149.9 32.18 149.33 31.96 148.88 31.53C148.45 31.09 148.23 30.58 148.23 30.01Z" fill="#2E1066" fill-opacity="1.000000" fill-rule="evenodd"/>
	<path id="Oner.ru" d="M50.26 21.85Q50.26 20.2 50.7 18.67Q51.6 15.52 54.35 12.9Q56.81 10.57 59.71 9.63Q61.67 9 63.84 9Q67.33 9 69.94 10.52Q71.02 11.16 71.95 12.06Q73.58 13.63 74.37 15.55Q75.1 17.35 75.1 19.45Q75.1 20.65 74.87 21.81Q74.43 23.91 73.21 25.84C71.95 27.83 70.28 29.41 68.2 30.59Q66.39 31.62 64.45 32.05Q63.05 32.35 61.59 32.35Q58.1 32.35 55.48 30.84Q54.39 30.21 53.45 29.31Q51.82 27.74 51.02 25.83Q50.26 24 50.26 21.85ZM97.54 9.46L102.34 9.46L97.6 31.87L93.6 31.87L85.42 17.6L82.4 31.87L77.6 31.87L82.34 9.46L86.34 9.46L94.54 23.75L97.54 9.46ZM109.7 27.56L121.7 27.56L120.79 31.87L103.99 31.87L108.73 9.46L125.21 9.46L124.32 13.79L112.63 13.79L111.68 18.28L120.79 18.28L119.87 22.59L110.74 22.59L109.7 27.56ZM125.92 31.87L130.65 9.46L140.12 9.46Q141.74 9.46 143.07 10.09Q144.07 10.56 144.9 11.39C146.2 12.67 146.85 14.16 146.85 15.87C146.85 16.97 146.66 18 146.27 18.93Q145.7 20.32 144.87 21.12C144.33 21.65 143.79 22.1 143.26 22.46C142.73 22.83 142.27 23.07 141.88 23.2L141.31 23.39L144.32 31.87L139.32 31.87L136.67 24.03L132.38 24.03L130.71 31.87L125.92 31.87ZM157.91 31.87L162.65 9.46L172.12 9.46Q173.74 9.46 175.07 10.09Q176.07 10.56 176.9 11.39C178.2 12.67 178.85 14.16 178.85 15.87C178.85 16.97 178.66 18 178.27 18.93Q177.69 20.32 176.87 21.12C176.33 21.65 175.79 22.1 175.26 22.46C174.73 22.83 174.27 23.07 173.88 23.2L173.3 23.39L176.32 31.87L171.32 31.87L168.66 24.03L164.38 24.03L162.71 31.87L157.91 31.87ZM191.84 28.03C193.2 28.03 194.44 27.53 195.57 26.53C196.7 25.53 197.43 24.27 197.76 22.75L200.57 9.46L205.37 9.46L202.55 22.75C201.96 25.54 200.67 27.84 198.68 29.65C196.7 31.45 194.35 32.35 191.62 32.35C189.12 32.35 187.03 31.62 185.35 30.15C183.68 28.67 182.85 26.8 182.85 24.54Q182.85 23.68 183.04 22.75L185.85 9.46L190.65 9.46L187.84 22.75C187.75 23.11 187.71 23.5 187.71 23.9C187.71 25.12 188.1 26.11 188.87 26.89C189.65 27.65 190.64 28.03 191.84 28.03ZM63.51 13.28Q62.47 13.28 61.51 13.54Q59.49 14.09 57.79 15.79Q56.19 17.4 55.61 19.32Q55.29 20.4 55.29 21.57Q55.29 23.2 55.93 24.52Q56.37 25.42 57.12 26.18Q57.72 26.79 58.44 27.19Q59.91 28.03 61.85 28.03Q62.88 28.03 63.83 27.77Q65.84 27.24 67.54 25.57Q68.98 24.17 69.6 22.46Q70.07 21.17 70.07 19.71Q70.07 18.11 69.44 16.82Q68.99 15.89 68.21 15.12Q67.55 14.46 66.75 14.03Q65.33 13.28 63.51 13.28ZM138.21 19.71C139.19 19.71 140.06 19.42 140.81 18.82C141.57 18.22 141.95 17.42 141.95 16.42Q141.95 15.69 141.66 15.1Q141.51 14.81 141.29 14.56Q141.02 14.25 140.69 14.06Q140.2 13.79 139.56 13.79L134.56 13.79L133.27 19.71L138.21 19.71ZM170.21 19.71C171.19 19.71 172.05 19.42 172.8 18.82C173.57 18.22 173.94 17.42 173.94 16.42Q173.94 15.69 173.65 15.1Q173.51 14.81 173.29 14.56Q173.02 14.25 172.69 14.06Q172.2 13.79 171.55 13.79L166.55 13.79L165.27 19.71L170.21 19.71ZM148.23 30.01C148.23 29.35 148.51 28.75 149.09 28.21C149.66 27.66 150.32 27.39 151.07 27.39C151.76 27.39 152.32 27.6 152.76 28.03C153.21 28.45 153.43 28.97 153.43 29.57C153.43 30.28 153.14 30.9 152.57 31.42C152 31.93 151.34 32.18 150.59 32.18C149.9 32.18 149.33 31.96 148.88 31.53C148.45 31.09 148.23 30.58 148.23 30.01Z" fill="#410F9E" fill-opacity="1.000000" fill-rule="evenodd"/>
	<path id="Oner.ru" d="M50.26 21.85Q50.26 20.2 50.7 18.67Q51.6 15.52 54.35 12.9Q56.81 10.57 59.71 9.63Q61.67 9 63.84 9Q67.33 9 69.94 10.52Q71.02 11.16 71.95 12.06Q73.58 13.63 74.37 15.55Q75.1 17.35 75.1 19.45Q75.1 20.65 74.87 21.81Q74.43 23.91 73.21 25.84C71.95 27.83 70.28 29.41 68.2 30.59Q66.39 31.62 64.45 32.05Q63.05 32.35 61.59 32.35Q58.1 32.35 55.48 30.84Q54.39 30.21 53.45 29.31Q51.82 27.74 51.02 25.83Q50.26 24 50.26 21.85ZM97.54 9.46L102.34 9.46L97.6 31.87L93.6 31.87L85.42 17.6L82.4 31.87L77.6 31.87L82.34 9.46L86.34 9.46L94.54 23.75L97.54 9.46ZM109.7 27.56L121.7 27.56L120.79 31.87L103.99 31.87L108.73 9.46L125.21 9.46L124.32 13.79L112.63 13.79L111.68 18.28L120.79 18.28L119.87 22.59L110.74 22.59L109.7 27.56ZM125.92 31.87L130.65 9.46L140.12 9.46Q141.74 9.46 143.07 10.09Q144.07 10.56 144.9 11.39C146.2 12.67 146.85 14.16 146.85 15.87C146.85 16.97 146.66 18 146.27 18.93Q145.7 20.32 144.87 21.12C144.33 21.65 143.79 22.1 143.26 22.46C142.73 22.83 142.27 23.07 141.88 23.2L141.31 23.39L144.32 31.87L139.32 31.87L136.67 24.03L132.38 24.03L130.71 31.87L125.92 31.87ZM157.91 31.87L162.65 9.46L172.12 9.46Q173.74 9.46 175.07 10.09Q176.07 10.56 176.9 11.39C178.2 12.67 178.85 14.16 178.85 15.87C178.85 16.97 178.66 18 178.27 18.93Q177.69 20.32 176.87 21.12C176.33 21.65 175.79 22.1 175.26 22.46C174.73 22.83 174.27 23.07 173.88 23.2L173.3 23.39L176.32 31.87L171.32 31.87L168.66 24.03L164.38 24.03L162.71 31.87L157.91 31.87ZM191.84 28.03C193.2 28.03 194.44 27.53 195.57 26.53C196.7 25.53 197.43 24.27 197.76 22.75L200.57 9.46L205.37 9.46L202.55 22.75C201.96 25.54 200.67 27.84 198.68 29.65C196.7 31.45 194.35 32.35 191.62 32.35C189.12 32.35 187.03 31.62 185.35 30.15C183.68 28.67 182.85 26.8 182.85 24.54Q182.85 23.68 183.04 22.75L185.85 9.46L190.65 9.46L187.84 22.75C187.75 23.11 187.71 23.5 187.71 23.9C187.71 25.12 188.1 26.11 188.87 26.89C189.65 27.65 190.64 28.03 191.84 28.03ZM63.51 13.28Q62.47 13.28 61.51 13.54Q59.49 14.09 57.79 15.79Q56.19 17.4 55.61 19.32Q55.29 20.4 55.29 21.57Q55.29 23.2 55.93 24.52Q56.37 25.42 57.12 26.18Q57.72 26.79 58.44 27.19Q59.91 28.03 61.85 28.03Q62.88 28.03 63.83 27.77Q65.84 27.24 67.54 25.57Q68.98 24.17 69.6 22.46Q70.07 21.17 70.07 19.71Q70.07 18.11 69.44 16.82Q68.99 15.89 68.21 15.12Q67.55 14.46 66.75 14.03Q65.33 13.28 63.51 13.28ZM138.21 19.71C139.19 19.71 140.06 19.42 140.81 18.82C141.57 18.22 141.95 17.42 141.95 16.42Q141.95 15.69 141.66 15.1Q141.51 14.81 141.29 14.56Q141.02 14.25 140.69 14.06Q140.2 13.79 139.56 13.79L134.56 13.79L133.27 19.71L138.21 19.71ZM170.21 19.71C171.19 19.71 172.05 19.42 172.8 18.82C173.57 18.22 173.94 17.42 173.94 16.42Q173.94 15.69 173.65 15.1Q173.51 14.81 173.29 14.56Q173.02 14.25 172.69 14.06Q172.2 13.79 171.55 13.79L166.55 13.79L165.27 19.71L170.21 19.71ZM148.23 30.01C148.23 29.35 148.51 28.75 149.09 28.21C149.66 27.66 150.32 27.39 151.07 27.39C151.76 27.39 152.32 27.6 152.76 28.03C153.21 28.45 153.43 28.97 153.43 29.57C153.43 30.28 153.14 30.9 152.57 31.42C152 31.93 151.34 32.18 150.59 32.18C149.9 32.18 149.33 31.96 148.88 31.53C148.45 31.09 148.23 30.58 148.23 30.01Z" fill="#453888" fill-opacity="1.000000" fill-rule="evenodd"/>
	<path id="Oner.ru" d="M50.26 21.85Q50.26 20.2 50.7 18.67Q51.6 15.52 54.35 12.9Q56.81 10.57 59.71 9.63Q61.67 9 63.84 9Q67.33 9 69.94 10.52Q71.02 11.16 71.95 12.06Q73.58 13.63 74.37 15.55Q75.1 17.35 75.1 19.45Q75.1 20.65 74.87 21.81Q74.43 23.91 73.21 25.84C71.95 27.83 70.28 29.41 68.2 30.59Q66.39 31.62 64.45 32.05Q63.05 32.35 61.59 32.35Q58.1 32.35 55.48 30.84Q54.39 30.21 53.45 29.31Q51.82 27.74 51.02 25.83Q50.26 24 50.26 21.85ZM97.54 9.46L102.34 9.46L97.6 31.87L93.6 31.87L85.42 17.6L82.4 31.87L77.6 31.87L82.34 9.46L86.34 9.46L94.54 23.75L97.54 9.46ZM109.7 27.56L121.7 27.56L120.79 31.87L103.99 31.87L108.73 9.46L125.21 9.46L124.32 13.79L112.63 13.79L111.68 18.28L120.79 18.28L119.87 22.59L110.74 22.59L109.7 27.56ZM125.92 31.87L130.65 9.46L140.12 9.46Q141.74 9.46 143.07 10.09Q144.07 10.56 144.9 11.39C146.2 12.67 146.85 14.16 146.85 15.87C146.85 16.97 146.66 18 146.27 18.93Q145.7 20.32 144.87 21.12C144.33 21.65 143.79 22.1 143.26 22.46C142.73 22.83 142.27 23.07 141.88 23.2L141.31 23.39L144.32 31.87L139.32 31.87L136.67 24.03L132.38 24.03L130.71 31.87L125.92 31.87ZM157.91 31.87L162.65 9.46L172.12 9.46Q173.74 9.46 175.07 10.09Q176.07 10.56 176.9 11.39C178.2 12.67 178.85 14.16 178.85 15.87C178.85 16.97 178.66 18 178.27 18.93Q177.69 20.32 176.87 21.12C176.33 21.65 175.79 22.1 175.26 22.46C174.73 22.83 174.27 23.07 173.88 23.2L173.3 23.39L176.32 31.87L171.32 31.87L168.66 24.03L164.38 24.03L162.71 31.87L157.91 31.87ZM191.84 28.03C193.2 28.03 194.44 27.53 195.57 26.53C196.7 25.53 197.43 24.27 197.76 22.75L200.57 9.46L205.37 9.46L202.55 22.75C201.96 25.54 200.67 27.84 198.68 29.65C196.7 31.45 194.35 32.35 191.62 32.35C189.12 32.35 187.03 31.62 185.35 30.15C183.68 28.67 182.85 26.8 182.85 24.54Q182.85 23.68 183.04 22.75L185.85 9.46L190.65 9.46L187.84 22.75C187.75 23.11 187.71 23.5 187.71 23.9C187.71 25.12 188.1 26.11 188.87 26.89C189.65 27.65 190.64 28.03 191.84 28.03ZM63.51 13.28Q62.47 13.28 61.51 13.54Q59.49 14.09 57.79 15.79Q56.19 17.4 55.61 19.32Q55.29 20.4 55.29 21.57Q55.29 23.2 55.93 24.52Q56.37 25.42 57.12 26.18Q57.72 26.79 58.44 27.19Q59.91 28.03 61.85 28.03Q62.88 28.03 63.83 27.77Q65.84 27.24 67.54 25.57Q68.98 24.17 69.6 22.46Q70.07 21.17 70.07 19.71Q70.07 18.11 69.44 16.82Q68.99 15.89 68.21 15.12Q67.55 14.46 66.75 14.03Q65.33 13.28 63.51 13.28ZM138.21 19.71C139.19 19.71 140.06 19.42 140.81 18.82C141.57 18.22 141.95 17.42 141.95 16.42Q141.95 15.69 141.66 15.1Q141.51 14.81 141.29 14.56Q141.02 14.25 140.69 14.06Q140.2 13.79 139.56 13.79L134.56 13.79L133.27 19.71L138.21 19.71ZM170.21 19.71C171.19 19.71 172.05 19.42 172.8 18.82C173.57 18.22 173.94 17.42 173.94 16.42Q173.94 15.69 173.65 15.1Q173.51 14.81 173.29 14.56Q173.02 14.25 172.69 14.06Q172.2 13.79 171.55 13.79L166.55 13.79L165.27 19.71L170.21 19.71ZM148.23 30.01C148.23 29.35 148.51 28.75 149.09 28.21C149.66 27.66 150.32 27.39 151.07 27.39C151.76 27.39 152.32 27.6 152.76 28.03C153.21 28.45 153.43 28.97 153.43 29.57C153.43 30.28 153.14 30.9 152.57 31.42C152 31.93 151.34 32.18 150.59 32.18C149.9 32.18 149.33 31.96 148.88 31.53C148.45 31.09 148.23 30.58 148.23 30.01Z" fill="#5946D7" fill-opacity="1.000000" fill-rule="evenodd"/>
	<g clip-path="url(#clip1_15630)">
		<rect id="settings 1" width="40.000000" height="40.000000" transform="translate(0.000000 1.000000)" fill="#FFFFFF" fill-opacity="0"/>
		<g clip-path="url(#clip1_15660)">
			<rect id="gear 1" width="40.000000" height="40.000000" transform="translate(0.000000 1.000000)" fill="#FFFFFF" fill-opacity="0"/>
			<g clip-path="url(#clip1_15662)">
				<path id="Vector" d="M39 17.27L37.5 17.09C36.25 16.94 35.24 16.02 34.76 14.86L34.76 14.86C34.28 13.7 34.36 12.36 35.14 11.37L36.07 10.18C36.41 9.75 36.37 9.08 35.97 8.69L32.3 5.01C31.91 4.62 31.24 4.58 30.8 4.92L29.61 5.85C28.62 6.63 27.28 6.71 26.12 6.23L26.12 6.23C24.96 5.75 24.04 4.74 23.9 3.49L23.72 1.99C23.65 1.44 23.15 1 22.59 1L17.39 1C16.84 1 16.34 1.44 16.27 1.99L16.09 3.49C15.94 4.74 15.02 5.75 13.86 6.23L13.86 6.23C12.7 6.71 11.36 6.63 10.37 5.86L9.18 4.92C8.75 4.58 8.08 4.62 7.69 5.01L4.01 8.69C3.62 9.08 3.58 9.75 3.92 10.19L4.86 11.37C5.63 12.36 5.71 13.7 5.23 14.87L5.23 14.87C4.75 16.03 3.74 16.95 2.49 17.1L0.99 17.28C0.44 17.34 0 17.84 0 18.4L0 23.6C0 24.15 0.44 24.65 0.99 24.72L2.49 24.9C3.74 25.05 4.75 25.97 5.23 27.13L5.23 27.13C5.71 28.29 5.64 29.63 4.86 30.62L3.93 31.81C3.59 32.24 3.63 32.91 4.02 33.3L7.69 36.98C8.08 37.37 8.75 37.41 9.18 37.07L10.37 36.14C11.36 35.36 12.7 35.28 13.86 35.76L13.86 35.76C15.03 36.25 15.94 37.25 16.09 38.5L16.27 40C16.34 40.55 16.84 41 17.39 41L22.6 41C23.15 41 23.65 40.55 23.72 40L23.9 38.5C24.05 37.25 24.97 36.24 26.13 35.76L26.13 35.76C27.29 35.28 28.63 35.36 29.62 36.14L30.81 37.07C31.24 37.41 31.91 37.37 32.3 36.98L35.98 33.3C36.37 32.91 36.41 32.24 36.07 31.8L35.14 30.62C34.36 29.63 34.28 28.28 34.76 27.12L34.76 27.12C35.24 25.96 36.25 25.05 37.5 24.9L39 24.72C39.55 24.65 40 24.15 40 23.6L40 18.39C40 17.84 39.55 17.34 39 17.27ZM20 30.99C14.47 30.99 10 26.52 10 21C10 15.47 14.47 11 20 11C25.52 11 30 15.47 30 21C30 26.52 25.52 30.99 20 30.99Z" fill="#2E1066" fill-opacity="1.000000" fill-rule="nonzero"/>
				<path id="Vector" d="M39 17.27L37.5 17.09C36.25 16.94 35.24 16.02 34.76 14.86L34.76 14.86C34.28 13.7 34.36 12.36 35.14 11.37L36.07 10.18C36.41 9.75 36.37 9.08 35.97 8.69L32.3 5.01C31.91 4.62 31.24 4.58 30.8 4.92L29.61 5.85C28.62 6.63 27.28 6.71 26.12 6.23L26.12 6.23C24.96 5.75 24.04 4.74 23.9 3.49L23.72 1.99C23.65 1.44 23.15 1 22.59 1L17.39 1C16.84 1 16.34 1.44 16.27 1.99L16.09 3.49C15.94 4.74 15.02 5.75 13.86 6.23L13.86 6.23C12.7 6.71 11.36 6.63 10.37 5.86L9.18 4.92C8.75 4.58 8.08 4.62 7.69 5.01L4.01 8.69C3.62 9.08 3.58 9.75 3.92 10.19L4.86 11.37C5.63 12.36 5.71 13.7 5.23 14.87L5.23 14.87C4.75 16.03 3.74 16.95 2.49 17.1L0.99 17.28C0.44 17.34 0 17.84 0 18.4L0 23.6C0 24.15 0.44 24.65 0.99 24.72L2.49 24.9C3.74 25.05 4.75 25.97 5.23 27.13L5.23 27.13C5.71 28.29 5.64 29.63 4.86 30.62L3.93 31.81C3.59 32.24 3.63 32.91 4.02 33.3L7.69 36.98C8.08 37.37 8.75 37.41 9.18 37.07L10.37 36.14C11.36 35.36 12.7 35.28 13.86 35.76L13.86 35.76C15.03 36.25 15.94 37.25 16.09 38.5L16.27 40C16.34 40.55 16.84 41 17.39 41L22.6 41C23.15 41 23.65 40.55 23.72 40L23.9 38.5C24.05 37.25 24.97 36.24 26.13 35.76L26.13 35.76C27.29 35.28 28.63 35.36 29.62 36.14L30.81 37.07C31.24 37.41 31.91 37.37 32.3 36.98L35.98 33.3C36.37 32.91 36.41 32.24 36.07 31.8L35.14 30.62C34.36 29.63 34.28 28.28 34.76 27.12L34.76 27.12C35.24 25.96 36.25 25.05 37.5 24.9L39 24.72C39.55 24.65 40 24.15 40 23.6L40 18.39C40 17.84 39.55 17.34 39 17.27ZM20 30.99C14.47 30.99 10 26.52 10 21C10 15.47 14.47 11 20 11C25.52 11 30 15.47 30 21C30 26.52 25.52 30.99 20 30.99Z" fill="#410F9E" fill-opacity="1.000000" fill-rule="nonzero"/>
				<path id="Vector" d="M39 17.27L37.5 17.09C36.25 16.94 35.24 16.02 34.76 14.86L34.76 14.86C34.28 13.7 34.36 12.36 35.14 11.37L36.07 10.18C36.41 9.75 36.37 9.08 35.97 8.69L32.3 5.01C31.91 4.62 31.24 4.58 30.8 4.92L29.61 5.85C28.62 6.63 27.28 6.71 26.12 6.23L26.12 6.23C24.96 5.75 24.04 4.74 23.9 3.49L23.72 1.99C23.65 1.44 23.15 1 22.59 1L17.39 1C16.84 1 16.34 1.44 16.27 1.99L16.09 3.49C15.94 4.74 15.02 5.75 13.86 6.23L13.86 6.23C12.7 6.71 11.36 6.63 10.37 5.86L9.18 4.92C8.75 4.58 8.08 4.62 7.69 5.01L4.01 8.69C3.62 9.08 3.58 9.75 3.92 10.19L4.86 11.37C5.63 12.36 5.71 13.7 5.23 14.87L5.23 14.87C4.75 16.03 3.74 16.95 2.49 17.1L0.99 17.28C0.44 17.34 0 17.84 0 18.4L0 23.6C0 24.15 0.44 24.65 0.99 24.72L2.49 24.9C3.74 25.05 4.75 25.97 5.23 27.13L5.23 27.13C5.71 28.29 5.64 29.63 4.86 30.62L3.93 31.81C3.59 32.24 3.63 32.91 4.02 33.3L7.69 36.98C8.08 37.37 8.75 37.41 9.18 37.07L10.37 36.14C11.36 35.36 12.7 35.28 13.86 35.76L13.86 35.76C15.03 36.25 15.94 37.25 16.09 38.5L16.27 40C16.34 40.55 16.84 41 17.39 41L22.6 41C23.15 41 23.65 40.55 23.72 40L23.9 38.5C24.05 37.25 24.97 36.24 26.13 35.76L26.13 35.76C27.29 35.28 28.63 35.36 29.62 36.14L30.81 37.07C31.24 37.41 31.91 37.37 32.3 36.98L35.98 33.3C36.37 32.91 36.41 32.24 36.07 31.8L35.14 30.62C34.36 29.63 34.28 28.28 34.76 27.12L34.76 27.12C35.24 25.96 36.25 25.05 37.5 24.9L39 24.72C39.55 24.65 40 24.15 40 23.6L40 18.39C40 17.84 39.55 17.34 39 17.27ZM20 30.99C14.47 30.99 10 26.52 10 21C10 15.47 14.47 11 20 11C25.52 11 30 15.47 30 21C30 26.52 25.52 30.99 20 30.99Z" fill="#453888" fill-opacity="1.000000" fill-rule="nonzero"/>
				<path id="Vector" d="M39 17.27L37.5 17.09C36.25 16.94 35.24 16.02 34.76 14.86L34.76 14.86C34.28 13.7 34.36 12.36 35.14 11.37L36.07 10.18C36.41 9.75 36.37 9.08 35.97 8.69L32.3 5.01C31.91 4.62 31.24 4.58 30.8 4.92L29.61 5.85C28.62 6.63 27.28 6.71 26.12 6.23L26.12 6.23C24.96 5.75 24.04 4.74 23.9 3.49L23.72 1.99C23.65 1.44 23.15 1 22.59 1L17.39 1C16.84 1 16.34 1.44 16.27 1.99L16.09 3.49C15.94 4.74 15.02 5.75 13.86 6.23L13.86 6.23C12.7 6.71 11.36 6.63 10.37 5.86L9.18 4.92C8.75 4.58 8.08 4.62 7.69 5.01L4.01 8.69C3.62 9.08 3.58 9.75 3.92 10.19L4.86 11.37C5.63 12.36 5.71 13.7 5.23 14.87L5.23 14.87C4.75 16.03 3.74 16.95 2.49 17.1L0.99 17.28C0.44 17.34 0 17.84 0 18.4L0 23.6C0 24.15 0.44 24.65 0.99 24.72L2.49 24.9C3.74 25.05 4.75 25.97 5.23 27.13L5.23 27.13C5.71 28.29 5.64 29.63 4.86 30.62L3.93 31.81C3.59 32.24 3.63 32.91 4.02 33.3L7.69 36.98C8.08 37.37 8.75 37.41 9.18 37.07L10.37 36.14C11.36 35.36 12.7 35.28 13.86 35.76L13.86 35.76C15.03 36.25 15.94 37.25 16.09 38.5L16.27 40C16.34 40.55 16.84 41 17.39 41L22.6 41C23.15 41 23.65 40.55 23.72 40L23.9 38.5C24.05 37.25 24.97 36.24 26.13 35.76L26.13 35.76C27.29 35.28 28.63 35.36 29.62 36.14L30.81 37.07C31.24 37.41 31.91 37.37 32.3 36.98L35.98 33.3C36.37 32.91 36.41 32.24 36.07 31.8L35.14 30.62C34.36 29.63 34.28 28.28 34.76 27.12L34.76 27.12C35.24 25.96 36.25 25.05 37.5 24.9L39 24.72C39.55 24.65 40 24.15 40 23.6L40 18.39C40 17.84 39.55 17.34 39 17.27ZM20 30.99C14.47 30.99 10 26.52 10 21C10 15.47 14.47 11 20 11C25.52 11 30 15.47 30 21C30 26.52 25.52 30.99 20 30.99Z" fill="#5946D7" fill-opacity="1.000000" fill-rule="nonzero"/>
				<path id="Vector" d="M0.24 24.29C0.09 24.09 0 23.85 0 23.6L0 18.4C0 18.15 0.09 17.9 0.24 17.71C0.42 17.48 0.69 17.31 0.99 17.28L2.49 17.1C3.49 16.98 4.33 16.37 4.88 15.53C4.95 15.42 5.01 15.31 5.07 15.2C5.13 15.09 5.18 14.98 5.23 14.87C5.27 14.76 5.31 14.65 5.34 14.55C5.38 14.42 5.42 14.3 5.44 14.17C5.65 13.19 5.48 12.17 4.86 11.37L3.92 10.19C3.74 9.95 3.67 9.65 3.7 9.35C3.73 9.11 3.83 8.87 4.01 8.69L7.69 5.01C7.87 4.83 8.11 4.73 8.35 4.7C8.65 4.67 8.95 4.74 9.18 4.92L10.37 5.86C11.17 6.48 12.19 6.65 13.17 6.44C13.3 6.42 13.42 6.38 13.55 6.34C13.65 6.31 13.76 6.27 13.86 6.23C13.97 6.18 14.08 6.13 14.19 6.07C14.31 6.01 14.42 5.95 14.53 5.88C15.36 5.33 15.97 4.49 16.09 3.49L16.27 1.99C16.31 1.69 16.47 1.42 16.71 1.24C16.9 1.09 17.14 1 17.39 1L22.59 1C22.84 1 23.08 1.09 23.28 1.24C23.51 1.42 23.68 1.69 23.72 1.99L23.9 3.49C24.01 4.49 24.62 5.33 25.46 5.88C25.57 5.95 25.68 6.01 25.79 6.07C25.9 6.13 26.01 6.18 26.12 6.23C26.23 6.27 26.33 6.31 26.44 6.34C26.57 6.38 26.69 6.42 26.82 6.44C27.8 6.65 28.82 6.48 29.61 5.85L30.8 4.92C31.04 4.73 31.34 4.66 31.64 4.7C31.88 4.73 32.12 4.83 32.3 5.01L34.03 6.74L34.26 6.97L35.97 8.69C36.15 8.87 36.26 9.1 36.29 9.35C36.32 9.64 36.25 9.95 36.07 10.18L35.14 11.37C34.51 12.16 34.34 13.19 34.54 14.16C34.57 14.29 34.6 14.42 34.64 14.54C34.68 14.65 34.72 14.76 34.76 14.86C34.81 14.98 34.86 15.09 34.92 15.19C34.98 15.31 35.04 15.42 35.11 15.53C35.66 16.36 36.5 16.97 37.5 17.09L39 17.27C39.3 17.31 39.57 17.48 39.75 17.71C39.9 17.9 40 18.14 40 18.39L40 23.6C40 23.85 39.9 24.09 39.75 24.28C39.57 24.51 39.3 24.68 39 24.72L37.5 24.9C36.5 25.02 35.66 25.63 35.11 26.46C35.04 26.57 34.98 26.68 34.91 26.79C34.86 26.9 34.81 27.01 34.76 27.12C34.72 27.23 34.68 27.34 34.65 27.44C34.6 27.57 34.57 27.7 34.54 27.83C34.34 28.8 34.51 29.82 35.14 30.62L36.07 31.8C36.25 32.04 36.33 32.35 36.29 32.64C36.26 32.89 36.16 33.12 35.98 33.3L32.3 36.98C32.12 37.16 31.88 37.26 31.64 37.29C31.34 37.33 31.04 37.25 30.81 37.07L29.62 36.14C28.82 35.51 27.8 35.34 26.82 35.55C26.7 35.57 26.57 35.61 26.45 35.65C26.34 35.68 26.23 35.72 26.13 35.76C26.01 35.81 25.9 35.86 25.8 35.92C25.68 35.98 25.57 36.04 25.46 36.11C24.63 36.66 24.01 37.5 23.9 38.5L23.72 40C23.68 40.3 23.52 40.57 23.29 40.75C23.09 40.9 22.85 41 22.6 41L17.39 41C17.14 41 16.9 40.9 16.7 40.75C16.47 40.57 16.31 40.3 16.27 40L16.09 38.5C15.98 37.5 15.36 36.66 14.53 36.12C14.42 36.05 14.31 35.98 14.19 35.92C14.09 35.86 13.98 35.81 13.86 35.76C13.76 35.72 13.65 35.68 13.55 35.65C13.42 35.61 13.3 35.58 13.17 35.55C12.19 35.34 11.17 35.51 10.37 36.14L9.18 37.07C8.95 37.25 8.65 37.33 8.36 37.3C8.11 37.27 7.87 37.16 7.69 36.98L4.02 33.3C3.84 33.12 3.74 32.89 3.71 32.64C3.67 32.35 3.74 32.04 3.93 31.81L4.86 30.62C5.48 29.82 5.65 28.8 5.45 27.83C5.42 27.7 5.39 27.57 5.35 27.45C5.31 27.34 5.27 27.23 5.23 27.13C5.18 27.01 5.13 26.91 5.08 26.8C5.02 26.68 4.95 26.57 4.88 26.46C4.34 25.63 3.49 25.02 2.49 24.9L0.99 24.72C0.69 24.68 0.42 24.52 0.24 24.29ZM10.54 24.25C10.67 24.64 10.83 25.02 11.01 25.39C11.99 27.38 13.61 29 15.6 29.98C15.97 30.16 16.35 30.32 16.75 30.45C17.77 30.8 18.86 30.99 20 30.99C21.13 30.99 22.22 30.81 23.24 30.46C23.64 30.32 24.02 30.16 24.39 29.98C26.38 29 28 27.38 28.98 25.39C29.16 25.02 29.32 24.64 29.46 24.24C29.79 23.28 29.98 22.25 30 21.17C30 21.11 30 21.06 30 21C30 20.93 30 20.87 30 20.81C29.98 19.74 29.79 18.71 29.46 17.75C29.32 17.35 29.16 16.97 28.98 16.6C28.51 15.63 27.89 14.76 27.15 14C27.09 13.95 27.04 13.9 26.99 13.85C26.23 13.1 25.35 12.48 24.39 12.01C24.02 11.83 23.64 11.67 23.24 11.53C22.25 11.19 21.19 11 20.09 11C20.06 11 20.03 11 20 11C19.97 11 19.94 11 19.91 11C18.8 11 17.74 11.19 16.75 11.53C16.35 11.67 15.97 11.83 15.6 12.01C13.61 12.99 11.99 14.61 11.01 16.6C10.83 16.97 10.67 17.35 10.54 17.75C10.19 18.77 10 19.86 10 21C10 22.13 10.19 23.23 10.54 24.25Z" fill="#2E1066" fill-opacity="1.000000" fill-rule="evenodd"/>
				<path id="Vector" d="M0.24 24.29C0.09 24.09 0 23.85 0 23.6L0 18.4C0 18.15 0.09 17.9 0.24 17.71C0.42 17.48 0.69 17.31 0.99 17.28L2.49 17.1C3.49 16.98 4.33 16.37 4.88 15.53C4.95 15.42 5.01 15.31 5.07 15.2C5.13 15.09 5.18 14.98 5.23 14.87C5.27 14.76 5.31 14.65 5.34 14.55C5.38 14.42 5.42 14.3 5.44 14.17C5.65 13.19 5.48 12.17 4.86 11.37L3.92 10.19C3.74 9.95 3.67 9.65 3.7 9.35C3.73 9.11 3.83 8.87 4.01 8.69L7.69 5.01C7.87 4.83 8.11 4.73 8.35 4.7C8.65 4.67 8.95 4.74 9.18 4.92L10.37 5.86C11.17 6.48 12.19 6.65 13.17 6.44C13.3 6.42 13.42 6.38 13.55 6.34C13.65 6.31 13.76 6.27 13.86 6.23C13.97 6.18 14.08 6.13 14.19 6.07C14.31 6.01 14.42 5.95 14.53 5.88C15.36 5.33 15.97 4.49 16.09 3.49L16.27 1.99C16.31 1.69 16.47 1.42 16.71 1.24C16.9 1.09 17.14 1 17.39 1L22.59 1C22.84 1 23.08 1.09 23.28 1.24C23.51 1.42 23.68 1.69 23.72 1.99L23.9 3.49C24.01 4.49 24.62 5.33 25.46 5.88C25.57 5.95 25.68 6.01 25.79 6.07C25.9 6.13 26.01 6.18 26.12 6.23C26.23 6.27 26.33 6.31 26.44 6.34C26.57 6.38 26.69 6.42 26.82 6.44C27.8 6.65 28.82 6.48 29.61 5.85L30.8 4.92C31.04 4.73 31.34 4.66 31.64 4.7C31.88 4.73 32.12 4.83 32.3 5.01L34.03 6.74L34.26 6.97L35.97 8.69C36.15 8.87 36.26 9.1 36.29 9.35C36.32 9.64 36.25 9.95 36.07 10.18L35.14 11.37C34.51 12.16 34.34 13.19 34.54 14.16C34.57 14.29 34.6 14.42 34.64 14.54C34.68 14.65 34.72 14.76 34.76 14.86C34.81 14.98 34.86 15.09 34.92 15.19C34.98 15.31 35.04 15.42 35.11 15.53C35.66 16.36 36.5 16.97 37.5 17.09L39 17.27C39.3 17.31 39.57 17.48 39.75 17.71C39.9 17.9 40 18.14 40 18.39L40 23.6C40 23.85 39.9 24.09 39.75 24.28C39.57 24.51 39.3 24.68 39 24.72L37.5 24.9C36.5 25.02 35.66 25.63 35.11 26.46C35.04 26.57 34.98 26.68 34.91 26.79C34.86 26.9 34.81 27.01 34.76 27.12C34.72 27.23 34.68 27.34 34.65 27.44C34.6 27.57 34.57 27.7 34.54 27.83C34.34 28.8 34.51 29.82 35.14 30.62L36.07 31.8C36.25 32.04 36.33 32.35 36.29 32.64C36.26 32.89 36.16 33.12 35.98 33.3L32.3 36.98C32.12 37.16 31.88 37.26 31.64 37.29C31.34 37.33 31.04 37.25 30.81 37.07L29.62 36.14C28.82 35.51 27.8 35.34 26.82 35.55C26.7 35.57 26.57 35.61 26.45 35.65C26.34 35.68 26.23 35.72 26.13 35.76C26.01 35.81 25.9 35.86 25.8 35.92C25.68 35.98 25.57 36.04 25.46 36.11C24.63 36.66 24.01 37.5 23.9 38.5L23.72 40C23.68 40.3 23.52 40.57 23.29 40.75C23.09 40.9 22.85 41 22.6 41L17.39 41C17.14 41 16.9 40.9 16.7 40.75C16.47 40.57 16.31 40.3 16.27 40L16.09 38.5C15.98 37.5 15.36 36.66 14.53 36.12C14.42 36.05 14.31 35.98 14.19 35.92C14.09 35.86 13.98 35.81 13.86 35.76C13.76 35.72 13.65 35.68 13.55 35.65C13.42 35.61 13.3 35.58 13.17 35.55C12.19 35.34 11.17 35.51 10.37 36.14L9.18 37.07C8.95 37.25 8.65 37.33 8.36 37.3C8.11 37.27 7.87 37.16 7.69 36.98L4.02 33.3C3.84 33.12 3.74 32.89 3.71 32.64C3.67 32.35 3.74 32.04 3.93 31.81L4.86 30.62C5.48 29.82 5.65 28.8 5.45 27.83C5.42 27.7 5.39 27.57 5.35 27.45C5.31 27.34 5.27 27.23 5.23 27.13C5.18 27.01 5.13 26.91 5.08 26.8C5.02 26.68 4.95 26.57 4.88 26.46C4.34 25.63 3.49 25.02 2.49 24.9L0.99 24.72C0.69 24.68 0.42 24.52 0.24 24.29ZM10.54 24.25C10.67 24.64 10.83 25.02 11.01 25.39C11.99 27.38 13.61 29 15.6 29.98C15.97 30.16 16.35 30.32 16.75 30.45C17.77 30.8 18.86 30.99 20 30.99C21.13 30.99 22.22 30.81 23.24 30.46C23.64 30.32 24.02 30.16 24.39 29.98C26.38 29 28 27.38 28.98 25.39C29.16 25.02 29.32 24.64 29.46 24.24C29.79 23.28 29.98 22.25 30 21.17C30 21.11 30 21.06 30 21C30 20.93 30 20.87 30 20.81C29.98 19.74 29.79 18.71 29.46 17.75C29.32 17.35 29.16 16.97 28.98 16.6C28.51 15.63 27.89 14.76 27.15 14C27.09 13.95 27.04 13.9 26.99 13.85C26.23 13.1 25.35 12.48 24.39 12.01C24.02 11.83 23.64 11.67 23.24 11.53C22.25 11.19 21.19 11 20.09 11C20.06 11 20.03 11 20 11C19.97 11 19.94 11 19.91 11C18.8 11 17.74 11.19 16.75 11.53C16.35 11.67 15.97 11.83 15.6 12.01C13.61 12.99 11.99 14.61 11.01 16.6C10.83 16.97 10.67 17.35 10.54 17.75C10.19 18.77 10 19.86 10 21C10 22.13 10.19 23.23 10.54 24.25Z" fill="#410F9E" fill-opacity="1.000000" fill-rule="evenodd"/>
				<path id="Vector" d="M0.24 24.29C0.09 24.09 0 23.85 0 23.6L0 18.4C0 18.15 0.09 17.9 0.24 17.71C0.42 17.48 0.69 17.31 0.99 17.28L2.49 17.1C3.49 16.98 4.33 16.37 4.88 15.53C4.95 15.42 5.01 15.31 5.07 15.2C5.13 15.09 5.18 14.98 5.23 14.87C5.27 14.76 5.31 14.65 5.34 14.55C5.38 14.42 5.42 14.3 5.44 14.17C5.65 13.19 5.48 12.17 4.86 11.37L3.92 10.19C3.74 9.95 3.67 9.65 3.7 9.35C3.73 9.11 3.83 8.87 4.01 8.69L7.69 5.01C7.87 4.83 8.11 4.73 8.35 4.7C8.65 4.67 8.95 4.74 9.18 4.92L10.37 5.86C11.17 6.48 12.19 6.65 13.17 6.44C13.3 6.42 13.42 6.38 13.55 6.34C13.65 6.31 13.76 6.27 13.86 6.23C13.97 6.18 14.08 6.13 14.19 6.07C14.31 6.01 14.42 5.95 14.53 5.88C15.36 5.33 15.97 4.49 16.09 3.49L16.27 1.99C16.31 1.69 16.47 1.42 16.71 1.24C16.9 1.09 17.14 1 17.39 1L22.59 1C22.84 1 23.08 1.09 23.28 1.24C23.51 1.42 23.68 1.69 23.72 1.99L23.9 3.49C24.01 4.49 24.62 5.33 25.46 5.88C25.57 5.95 25.68 6.01 25.79 6.07C25.9 6.13 26.01 6.18 26.12 6.23C26.23 6.27 26.33 6.31 26.44 6.34C26.57 6.38 26.69 6.42 26.82 6.44C27.8 6.65 28.82 6.48 29.61 5.85L30.8 4.92C31.04 4.73 31.34 4.66 31.64 4.7C31.88 4.73 32.12 4.83 32.3 5.01L34.03 6.74L34.26 6.97L35.97 8.69C36.15 8.87 36.26 9.1 36.29 9.35C36.32 9.64 36.25 9.95 36.07 10.18L35.14 11.37C34.51 12.16 34.34 13.19 34.54 14.16C34.57 14.29 34.6 14.42 34.64 14.54C34.68 14.65 34.72 14.76 34.76 14.86C34.81 14.98 34.86 15.09 34.92 15.19C34.98 15.31 35.04 15.42 35.11 15.53C35.66 16.36 36.5 16.97 37.5 17.09L39 17.27C39.3 17.31 39.57 17.48 39.75 17.71C39.9 17.9 40 18.14 40 18.39L40 23.6C40 23.85 39.9 24.09 39.75 24.28C39.57 24.51 39.3 24.68 39 24.72L37.5 24.9C36.5 25.02 35.66 25.63 35.11 26.46C35.04 26.57 34.98 26.68 34.91 26.79C34.86 26.9 34.81 27.01 34.76 27.12C34.72 27.23 34.68 27.34 34.65 27.44C34.6 27.57 34.57 27.7 34.54 27.83C34.34 28.8 34.51 29.82 35.14 30.62L36.07 31.8C36.25 32.04 36.33 32.35 36.29 32.64C36.26 32.89 36.16 33.12 35.98 33.3L32.3 36.98C32.12 37.16 31.88 37.26 31.64 37.29C31.34 37.33 31.04 37.25 30.81 37.07L29.62 36.14C28.82 35.51 27.8 35.34 26.82 35.55C26.7 35.57 26.57 35.61 26.45 35.65C26.34 35.68 26.23 35.72 26.13 35.76C26.01 35.81 25.9 35.86 25.8 35.92C25.68 35.98 25.57 36.04 25.46 36.11C24.63 36.66 24.01 37.5 23.9 38.5L23.72 40C23.68 40.3 23.52 40.57 23.29 40.75C23.09 40.9 22.85 41 22.6 41L17.39 41C17.14 41 16.9 40.9 16.7 40.75C16.47 40.57 16.31 40.3 16.27 40L16.09 38.5C15.98 37.5 15.36 36.66 14.53 36.12C14.42 36.05 14.31 35.98 14.19 35.92C14.09 35.86 13.98 35.81 13.86 35.76C13.76 35.72 13.65 35.68 13.55 35.65C13.42 35.61 13.3 35.58 13.17 35.55C12.19 35.34 11.17 35.51 10.37 36.14L9.18 37.07C8.95 37.25 8.65 37.33 8.36 37.3C8.11 37.27 7.87 37.16 7.69 36.98L4.02 33.3C3.84 33.12 3.74 32.89 3.71 32.64C3.67 32.35 3.74 32.04 3.93 31.81L4.86 30.62C5.48 29.82 5.65 28.8 5.45 27.83C5.42 27.7 5.39 27.57 5.35 27.45C5.31 27.34 5.27 27.23 5.23 27.13C5.18 27.01 5.13 26.91 5.08 26.8C5.02 26.68 4.95 26.57 4.88 26.46C4.34 25.63 3.49 25.02 2.49 24.9L0.99 24.72C0.69 24.68 0.42 24.52 0.24 24.29ZM10.54 24.25C10.67 24.64 10.83 25.02 11.01 25.39C11.99 27.38 13.61 29 15.6 29.98C15.97 30.16 16.35 30.32 16.75 30.45C17.77 30.8 18.86 30.99 20 30.99C21.13 30.99 22.22 30.81 23.24 30.46C23.64 30.32 24.02 30.16 24.39 29.98C26.38 29 28 27.38 28.98 25.39C29.16 25.02 29.32 24.64 29.46 24.24C29.79 23.28 29.98 22.25 30 21.17C30 21.11 30 21.06 30 21C30 20.93 30 20.87 30 20.81C29.98 19.74 29.79 18.71 29.46 17.75C29.32 17.35 29.16 16.97 28.98 16.6C28.51 15.63 27.89 14.76 27.15 14C27.09 13.95 27.04 13.9 26.99 13.85C26.23 13.1 25.35 12.48 24.39 12.01C24.02 11.83 23.64 11.67 23.24 11.53C22.25 11.19 21.19 11 20.09 11C20.06 11 20.03 11 20 11C19.97 11 19.94 11 19.91 11C18.8 11 17.74 11.19 16.75 11.53C16.35 11.67 15.97 11.83 15.6 12.01C13.61 12.99 11.99 14.61 11.01 16.6C10.83 16.97 10.67 17.35 10.54 17.75C10.19 18.77 10 19.86 10 21C10 22.13 10.19 23.23 10.54 24.25Z" fill="#453888" fill-opacity="1.000000" fill-rule="evenodd"/>
				<path id="Vector" d="M0.24 24.29C0.09 24.09 0 23.85 0 23.6L0 18.4C0 18.15 0.09 17.9 0.24 17.71C0.42 17.48 0.69 17.31 0.99 17.28L2.49 17.1C3.49 16.98 4.33 16.37 4.88 15.53C4.95 15.42 5.01 15.31 5.07 15.2C5.13 15.09 5.18 14.98 5.23 14.87C5.27 14.76 5.31 14.65 5.34 14.55C5.38 14.42 5.42 14.3 5.44 14.17C5.65 13.19 5.48 12.17 4.86 11.37L3.92 10.19C3.74 9.95 3.67 9.65 3.7 9.35C3.73 9.11 3.83 8.87 4.01 8.69L7.69 5.01C7.87 4.83 8.11 4.73 8.35 4.7C8.65 4.67 8.95 4.74 9.18 4.92L10.37 5.86C11.17 6.48 12.19 6.65 13.17 6.44C13.3 6.42 13.42 6.38 13.55 6.34C13.65 6.31 13.76 6.27 13.86 6.23C13.97 6.18 14.08 6.13 14.19 6.07C14.31 6.01 14.42 5.95 14.53 5.88C15.36 5.33 15.97 4.49 16.09 3.49L16.27 1.99C16.31 1.69 16.47 1.42 16.71 1.24C16.9 1.09 17.14 1 17.39 1L22.59 1C22.84 1 23.08 1.09 23.28 1.24C23.51 1.42 23.68 1.69 23.72 1.99L23.9 3.49C24.01 4.49 24.62 5.33 25.46 5.88C25.57 5.95 25.68 6.01 25.79 6.07C25.9 6.13 26.01 6.18 26.12 6.23C26.23 6.27 26.33 6.31 26.44 6.34C26.57 6.38 26.69 6.42 26.82 6.44C27.8 6.65 28.82 6.48 29.61 5.85L30.8 4.92C31.04 4.73 31.34 4.66 31.64 4.7C31.88 4.73 32.12 4.83 32.3 5.01L34.03 6.74L34.26 6.97L35.97 8.69C36.15 8.87 36.26 9.1 36.29 9.35C36.32 9.64 36.25 9.95 36.07 10.18L35.14 11.37C34.51 12.16 34.34 13.19 34.54 14.16C34.57 14.29 34.6 14.42 34.64 14.54C34.68 14.65 34.72 14.76 34.76 14.86C34.81 14.98 34.86 15.09 34.92 15.19C34.98 15.31 35.04 15.42 35.11 15.53C35.66 16.36 36.5 16.97 37.5 17.09L39 17.27C39.3 17.31 39.57 17.48 39.75 17.71C39.9 17.9 40 18.14 40 18.39L40 23.6C40 23.85 39.9 24.09 39.75 24.28C39.57 24.51 39.3 24.68 39 24.72L37.5 24.9C36.5 25.02 35.66 25.63 35.11 26.46C35.04 26.57 34.98 26.68 34.91 26.79C34.86 26.9 34.81 27.01 34.76 27.12C34.72 27.23 34.68 27.34 34.65 27.44C34.6 27.57 34.57 27.7 34.54 27.83C34.34 28.8 34.51 29.82 35.14 30.62L36.07 31.8C36.25 32.04 36.33 32.35 36.29 32.64C36.26 32.89 36.16 33.12 35.98 33.3L32.3 36.98C32.12 37.16 31.88 37.26 31.64 37.29C31.34 37.33 31.04 37.25 30.81 37.07L29.62 36.14C28.82 35.51 27.8 35.34 26.82 35.55C26.7 35.57 26.57 35.61 26.45 35.65C26.34 35.68 26.23 35.72 26.13 35.76C26.01 35.81 25.9 35.86 25.8 35.92C25.68 35.98 25.57 36.04 25.46 36.11C24.63 36.66 24.01 37.5 23.9 38.5L23.72 40C23.68 40.3 23.52 40.57 23.29 40.75C23.09 40.9 22.85 41 22.6 41L17.39 41C17.14 41 16.9 40.9 16.7 40.75C16.47 40.57 16.31 40.3 16.27 40L16.09 38.5C15.98 37.5 15.36 36.66 14.53 36.12C14.42 36.05 14.31 35.98 14.19 35.92C14.09 35.86 13.98 35.81 13.86 35.76C13.76 35.72 13.65 35.68 13.55 35.65C13.42 35.61 13.3 35.58 13.17 35.55C12.19 35.34 11.17 35.51 10.37 36.14L9.18 37.07C8.95 37.25 8.65 37.33 8.36 37.3C8.11 37.27 7.87 37.16 7.69 36.98L4.02 33.3C3.84 33.12 3.74 32.89 3.71 32.64C3.67 32.35 3.74 32.04 3.93 31.81L4.86 30.62C5.48 29.82 5.65 28.8 5.45 27.83C5.42 27.7 5.39 27.57 5.35 27.45C5.31 27.34 5.27 27.23 5.23 27.13C5.18 27.01 5.13 26.91 5.08 26.8C5.02 26.68 4.95 26.57 4.88 26.46C4.34 25.63 3.49 25.02 2.49 24.9L0.99 24.72C0.69 24.68 0.42 24.52 0.24 24.29ZM10.54 24.25C10.67 24.64 10.83 25.02 11.01 25.39C11.99 27.38 13.61 29 15.6 29.98C15.97 30.16 16.35 30.32 16.75 30.45C17.77 30.8 18.86 30.99 20 30.99C21.13 30.99 22.22 30.81 23.24 30.46C23.64 30.32 24.02 30.16 24.39 29.98C26.38 29 28 27.38 28.98 25.39C29.16 25.02 29.32 24.64 29.46 24.24C29.79 23.28 29.98 22.25 30 21.17C30 21.11 30 21.06 30 21C30 20.93 30 20.87 30 20.81C29.98 19.74 29.79 18.71 29.46 17.75C29.32 17.35 29.16 16.97 28.98 16.6C28.51 15.63 27.89 14.76 27.15 14C27.09 13.95 27.04 13.9 26.99 13.85C26.23 13.1 25.35 12.48 24.39 12.01C24.02 11.83 23.64 11.67 23.24 11.53C22.25 11.19 21.19 11 20.09 11C20.06 11 20.03 11 20 11C19.97 11 19.94 11 19.91 11C18.8 11 17.74 11.19 16.75 11.53C16.35 11.67 15.97 11.83 15.6 12.01C13.61 12.99 11.99 14.61 11.01 16.6C10.83 16.97 10.67 17.35 10.54 17.75C10.19 18.77 10 19.86 10 21C10 22.13 10.19 23.23 10.54 24.25Z" fill="#5946D7" fill-opacity="1.000000" fill-rule="evenodd"/>
			</g>
			<circle id="Ellipse 116" cx="20.000000" cy="21.000000" r="16.000000" fill="#FFFFFF" fill-opacity="1.000000"/>
			<circle id="Ellipse 116" cx="20.000000" cy="21.000000" r="14.000000" stroke="#2E1066" stroke-opacity="1.000000" stroke-width="4.000000"/>
			<circle id="Ellipse 116" cx="20.000000" cy="21.000000" r="14.000000" stroke="#410F9E" stroke-opacity="1.000000" stroke-width="4.000000"/>
			<circle id="Ellipse 116" cx="20.000000" cy="21.000000" r="14.000000" stroke="#453888" stroke-opacity="1.000000" stroke-width="4.000000"/>
			<circle id="Ellipse 116" cx="20.000000" cy="21.000000" r="14.000000" stroke="#5946D7" stroke-opacity="1.000000" stroke-width="4.000000"/>
			<rect id="sedan-car-front 1" width="19.000000" height="26.000000" transform="translate(6.000000 8.000000)" fill="#FFFFFF" fill-opacity="0"/>
			<g clip-path="url(#clip1_15673)">
				<path id="Vector" d="M23.37 17.86C23.39 17.88 23.41 17.9 23.42 17.92C24.37 18.75 25 20.3 24.99 21.42L24.99 24.75C24.99 25.56 24.68 26.29 24.18 26.84L24.18 28.13C24.18 28.89 23.57 29.5 22.81 29.5L21.15 29.5C20.39 29.5 19.77 28.89 19.77 28.13L19.77 27.8L4.88 27.8L4.88 28.13C4.88 28.89 4.27 29.5 3.51 29.5L1.85 29.5C1.09 29.5 0.47 28.89 0.47 28.13L0.47 26.84C-0.03 26.29 -0.34 25.56 -0.34 24.75L-0.34 21.42C-0.34 20.3 0.28 18.75 1.23 17.92C1.25 17.9 1.26 17.88 1.28 17.86L2.17 16.98C1.43 16.81 0.64 16.17 0.64 15.53C0.64 14.77 1.66 14.5 2.54 14.5C3.45 14.5 3.56 15.14 3.57 15.6L5.86 13.33C6.32 12.86 7.21 12.49 7.87 12.49L16.79 12.49C17.45 12.49 18.33 12.86 18.8 13.33L21.09 15.6C21.1 15.14 21.2 14.5 22.12 14.5C22.99 14.5 24.01 14.77 24.01 15.53C24.01 16.17 23.22 16.81 22.49 16.98L23.37 17.86ZM7.87 13.85C7.58 13.85 7.02 14.06 6.7 14.34L3.7 17.33L20 17.33L17.67 14.5C17.41 14.28 17.03 14.31 16.74 14.33C16.67 14.33 16.6 14.34 16.54 14.34L12.63 14.34L11 14L7.87 13.85ZM2.09 19.43C1.32 19.43 0.69 20.09 0.69 20.91C0.69 21.74 1.32 22.4 2.09 22.4C2.19 22.4 2.33 22.4 2.48 22.41C3.49 22.43 5.38 22.48 5.38 21.77C5.38 20.95 2.86 19.43 2.09 19.43ZM22.17 22.41C22.33 22.4 22.46 22.4 22.57 22.4C23.34 22.4 23.96 21.73 23.96 20.91C23.96 20.09 23.34 19.43 22.57 19.43C21.8 19.43 19.27 20.95 19.27 21.77C19.27 22.48 21.17 22.43 22.17 22.41ZM12.33 23.81L16.54 23.81C17.42 23.81 18.14 22.7 18.14 21.33L6.52 21.33C6.52 22.7 7.23 23.81 8.11 23.81L12.33 23.81ZM4.62 26.34L4.88 26.34L6.1 26.34L4.3 24.22L1.61 24.22C1.61 24.22 1.2 24.75 1.4 25.32C1.43 25.41 1.48 25.5 1.54 25.59C1.61 25.68 1.69 25.77 1.81 25.86C2.02 26.04 2.33 26.2 2.77 26.34L4.35 26.34L4.62 26.34ZM23.11 25.59C23.18 25.5 23.23 25.41 23.26 25.32C23.46 24.75 23.05 24.22 23.05 24.22L20.35 24.22L18.56 26.34L20.3 26.34L21.88 26.34C22.32 26.2 22.63 26.04 22.85 25.86C22.96 25.78 23.05 25.68 23.11 25.59Z" fill="#2E1066" fill-opacity="1.000000" fill-rule="evenodd"/>
				<path id="Vector" d="M23.37 17.86C23.39 17.88 23.41 17.9 23.42 17.92C24.37 18.75 25 20.3 24.99 21.42L24.99 24.75C24.99 25.56 24.68 26.29 24.18 26.84L24.18 28.13C24.18 28.89 23.57 29.5 22.81 29.5L21.15 29.5C20.39 29.5 19.77 28.89 19.77 28.13L19.77 27.8L4.88 27.8L4.88 28.13C4.88 28.89 4.27 29.5 3.51 29.5L1.85 29.5C1.09 29.5 0.47 28.89 0.47 28.13L0.47 26.84C-0.03 26.29 -0.34 25.56 -0.34 24.75L-0.34 21.42C-0.34 20.3 0.28 18.75 1.23 17.92C1.25 17.9 1.26 17.88 1.28 17.86L2.17 16.98C1.43 16.81 0.64 16.17 0.64 15.53C0.64 14.77 1.66 14.5 2.54 14.5C3.45 14.5 3.56 15.14 3.57 15.6L5.86 13.33C6.32 12.86 7.21 12.49 7.87 12.49L16.79 12.49C17.45 12.49 18.33 12.86 18.8 13.33L21.09 15.6C21.1 15.14 21.2 14.5 22.12 14.5C22.99 14.5 24.01 14.77 24.01 15.53C24.01 16.17 23.22 16.81 22.49 16.98L23.37 17.86ZM7.87 13.85C7.58 13.85 7.02 14.06 6.7 14.34L3.7 17.33L20 17.33L17.67 14.5C17.41 14.28 17.03 14.31 16.74 14.33C16.67 14.33 16.6 14.34 16.54 14.34L12.63 14.34L11 14L7.87 13.85ZM2.09 19.43C1.32 19.43 0.69 20.09 0.69 20.91C0.69 21.74 1.32 22.4 2.09 22.4C2.19 22.4 2.33 22.4 2.48 22.41C3.49 22.43 5.38 22.48 5.38 21.77C5.38 20.95 2.86 19.43 2.09 19.43ZM22.17 22.41C22.33 22.4 22.46 22.4 22.57 22.4C23.34 22.4 23.96 21.73 23.96 20.91C23.96 20.09 23.34 19.43 22.57 19.43C21.8 19.43 19.27 20.95 19.27 21.77C19.27 22.48 21.17 22.43 22.17 22.41ZM12.33 23.81L16.54 23.81C17.42 23.81 18.14 22.7 18.14 21.33L6.52 21.33C6.52 22.7 7.23 23.81 8.11 23.81L12.33 23.81ZM4.62 26.34L4.88 26.34L6.1 26.34L4.3 24.22L1.61 24.22C1.61 24.22 1.2 24.75 1.4 25.32C1.43 25.41 1.48 25.5 1.54 25.59C1.61 25.68 1.69 25.77 1.81 25.86C2.02 26.04 2.33 26.2 2.77 26.34L4.35 26.34L4.62 26.34ZM23.11 25.59C23.18 25.5 23.23 25.41 23.26 25.32C23.46 24.75 23.05 24.22 23.05 24.22L20.35 24.22L18.56 26.34L20.3 26.34L21.88 26.34C22.32 26.2 22.63 26.04 22.85 25.86C22.96 25.78 23.05 25.68 23.11 25.59Z" fill="#410F9E" fill-opacity="1.000000" fill-rule="evenodd"/>
				<path id="Vector" d="M23.37 17.86C23.39 17.88 23.41 17.9 23.42 17.92C24.37 18.75 25 20.3 24.99 21.42L24.99 24.75C24.99 25.56 24.68 26.29 24.18 26.84L24.18 28.13C24.18 28.89 23.57 29.5 22.81 29.5L21.15 29.5C20.39 29.5 19.77 28.89 19.77 28.13L19.77 27.8L4.88 27.8L4.88 28.13C4.88 28.89 4.27 29.5 3.51 29.5L1.85 29.5C1.09 29.5 0.47 28.89 0.47 28.13L0.47 26.84C-0.03 26.29 -0.34 25.56 -0.34 24.75L-0.34 21.42C-0.34 20.3 0.28 18.75 1.23 17.92C1.25 17.9 1.26 17.88 1.28 17.86L2.17 16.98C1.43 16.81 0.64 16.17 0.64 15.53C0.64 14.77 1.66 14.5 2.54 14.5C3.45 14.5 3.56 15.14 3.57 15.6L5.86 13.33C6.32 12.86 7.21 12.49 7.87 12.49L16.79 12.49C17.45 12.49 18.33 12.86 18.8 13.33L21.09 15.6C21.1 15.14 21.2 14.5 22.12 14.5C22.99 14.5 24.01 14.77 24.01 15.53C24.01 16.17 23.22 16.81 22.49 16.98L23.37 17.86ZM7.87 13.85C7.58 13.85 7.02 14.06 6.7 14.34L3.7 17.33L20 17.33L17.67 14.5C17.41 14.28 17.03 14.31 16.74 14.33C16.67 14.33 16.6 14.34 16.54 14.34L12.63 14.34L11 14L7.87 13.85ZM2.09 19.43C1.32 19.43 0.69 20.09 0.69 20.91C0.69 21.74 1.32 22.4 2.09 22.4C2.19 22.4 2.33 22.4 2.48 22.41C3.49 22.43 5.38 22.48 5.38 21.77C5.38 20.95 2.86 19.43 2.09 19.43ZM22.17 22.41C22.33 22.4 22.46 22.4 22.57 22.4C23.34 22.4 23.96 21.73 23.96 20.91C23.96 20.09 23.34 19.43 22.57 19.43C21.8 19.43 19.27 20.95 19.27 21.77C19.27 22.48 21.17 22.43 22.17 22.41ZM12.33 23.81L16.54 23.81C17.42 23.81 18.14 22.7 18.14 21.33L6.52 21.33C6.52 22.7 7.23 23.81 8.11 23.81L12.33 23.81ZM4.62 26.34L4.88 26.34L6.1 26.34L4.3 24.22L1.61 24.22C1.61 24.22 1.2 24.75 1.4 25.32C1.43 25.41 1.48 25.5 1.54 25.59C1.61 25.68 1.69 25.77 1.81 25.86C2.02 26.04 2.33 26.2 2.77 26.34L4.35 26.34L4.62 26.34ZM23.11 25.59C23.18 25.5 23.23 25.41 23.26 25.32C23.46 24.75 23.05 24.22 23.05 24.22L20.35 24.22L18.56 26.34L20.3 26.34L21.88 26.34C22.32 26.2 22.63 26.04 22.85 25.86C22.96 25.78 23.05 25.68 23.11 25.59Z" fill="#453888" fill-opacity="1.000000" fill-rule="evenodd"/>
				<path id="Vector" d="M23.37 17.86C23.39 17.88 23.41 17.9 23.42 17.92C24.37 18.75 25 20.3 24.99 21.42L24.99 24.75C24.99 25.56 24.68 26.29 24.18 26.84L24.18 28.13C24.18 28.89 23.57 29.5 22.81 29.5L21.15 29.5C20.39 29.5 19.77 28.89 19.77 28.13L19.77 27.8L4.88 27.8L4.88 28.13C4.88 28.89 4.27 29.5 3.51 29.5L1.85 29.5C1.09 29.5 0.47 28.89 0.47 28.13L0.47 26.84C-0.03 26.29 -0.34 25.56 -0.34 24.75L-0.34 21.42C-0.34 20.3 0.28 18.75 1.23 17.92C1.25 17.9 1.26 17.88 1.28 17.86L2.17 16.98C1.43 16.81 0.64 16.17 0.64 15.53C0.64 14.77 1.66 14.5 2.54 14.5C3.45 14.5 3.56 15.14 3.57 15.6L5.86 13.33C6.32 12.86 7.21 12.49 7.87 12.49L16.79 12.49C17.45 12.49 18.33 12.86 18.8 13.33L21.09 15.6C21.1 15.14 21.2 14.5 22.12 14.5C22.99 14.5 24.01 14.77 24.01 15.53C24.01 16.17 23.22 16.81 22.49 16.98L23.37 17.86ZM7.87 13.85C7.58 13.85 7.02 14.06 6.7 14.34L3.7 17.33L20 17.33L17.67 14.5C17.41 14.28 17.03 14.31 16.74 14.33C16.67 14.33 16.6 14.34 16.54 14.34L12.63 14.34L11 14L7.87 13.85ZM2.09 19.43C1.32 19.43 0.69 20.09 0.69 20.91C0.69 21.74 1.32 22.4 2.09 22.4C2.19 22.4 2.33 22.4 2.48 22.41C3.49 22.43 5.38 22.48 5.38 21.77C5.38 20.95 2.86 19.43 2.09 19.43ZM22.17 22.41C22.33 22.4 22.46 22.4 22.57 22.4C23.34 22.4 23.96 21.73 23.96 20.91C23.96 20.09 23.34 19.43 22.57 19.43C21.8 19.43 19.27 20.95 19.27 21.77C19.27 22.48 21.17 22.43 22.17 22.41ZM12.33 23.81L16.54 23.81C17.42 23.81 18.14 22.7 18.14 21.33L6.52 21.33C6.52 22.7 7.23 23.81 8.11 23.81L12.33 23.81ZM4.62 26.34L4.88 26.34L6.1 26.34L4.3 24.22L1.61 24.22C1.61 24.22 1.2 24.75 1.4 25.32C1.43 25.41 1.48 25.5 1.54 25.59C1.61 25.68 1.69 25.77 1.81 25.86C2.02 26.04 2.33 26.2 2.77 26.34L4.35 26.34L4.62 26.34ZM23.11 25.59C23.18 25.5 23.23 25.41 23.26 25.32C23.46 24.75 23.05 24.22 23.05 24.22L20.35 24.22L18.56 26.34L20.3 26.34L21.88 26.34C22.32 26.2 22.63 26.04 22.85 25.86C22.96 25.78 23.05 25.68 23.11 25.59Z" fill="#5946D7" fill-opacity="1.000000" fill-rule="evenodd"/>
			</g>
			<circle id="Ellipse 117" cx="20.000000" cy="21.000000" r="11.500000" stroke="#FFFFFF" stroke-opacity="1.000000" stroke-width="3.000000"/>
		</g>
	</g>
</svg>
