<svg width="19.537109" height="19.537109" viewBox="0 0 19.5371 19.5371" fill="none" xmlns="http://www.w3.org/2000/svg" xmlns:xlink="http://www.w3.org/1999/xlink">
	<desc>
			Created with Pixso.
	</desc>
	<defs/>
	<path id="Path" d="M15.54 13.22C14.95 12.63 14 12.63 13.42 13.22L12.5 14.14C12.29 14.34 11.98 14.41 11.71 14.3C10.38 13.71 9.06 12.83 7.88 11.65C6.71 10.48 5.82 9.16 5.24 7.83C5.11 7.56 5.19 7.23 5.4 7.02L6.22 6.19C6.9 5.52 6.9 4.58 6.31 3.99L5.14 2.82C4.36 2.03 3.09 2.03 2.31 2.82L1.66 3.47C0.91 4.21 0.61 5.28 0.81 6.34C1.3 8.95 2.82 11.81 5.27 14.26C7.72 16.71 10.58 18.23 13.19 18.72C14.25 18.92 15.32 18.61 16.06 17.87L16.71 17.22C17.49 16.44 17.49 15.17 16.71 14.39L15.54 13.22Z" stroke="#2E1066" stroke-opacity="1.000000" stroke-width="1.500000" stroke-linejoin="round"/>
	<path id="Path" d="M15.54 13.22C14.95 12.63 14 12.63 13.42 13.22L12.5 14.14C12.29 14.34 11.98 14.41 11.71 14.3C10.38 13.71 9.06 12.83 7.88 11.65C6.71 10.48 5.82 9.16 5.24 7.83C5.11 7.56 5.19 7.23 5.4 7.02L6.22 6.19C6.9 5.52 6.9 4.58 6.31 3.99L5.14 2.82C4.36 2.03 3.09 2.03 2.31 2.82L1.66 3.47C0.91 4.21 0.61 5.28 0.81 6.34C1.3 8.95 2.82 11.81 5.27 14.26C7.72 16.71 10.58 18.23 13.19 18.72C14.25 18.92 15.32 18.61 16.06 17.87L16.71 17.22C17.49 16.44 17.49 15.17 16.71 14.39L15.54 13.22Z" stroke="#410F9E" stroke-opacity="1.000000" stroke-width="1.500000" stroke-linejoin="round"/>
	<path id="Path" d="M15.54 13.22C14.95 12.63 14 12.63 13.42 13.22L12.5 14.14C12.29 14.34 11.98 14.41 11.71 14.3C10.38 13.71 9.06 12.83 7.88 11.65C6.71 10.48 5.82 9.16 5.24 7.83C5.11 7.56 5.19 7.23 5.4 7.02L6.22 6.19C6.9 5.52 6.9 4.58 6.31 3.99L5.14 2.82C4.36 2.03 3.09 2.03 2.31 2.82L1.66 3.47C0.91 4.21 0.61 5.28 0.81 6.34C1.3 8.95 2.82 11.81 5.27 14.26C7.72 16.71 10.58 18.23 13.19 18.72C14.25 18.92 15.32 18.61 16.06 17.87L16.71 17.22C17.49 16.44 17.49 15.17 16.71 14.39L15.54 13.22Z" stroke="#453888" stroke-opacity="1.000000" stroke-width="1.500000" stroke-linejoin="round"/>
	<path id="Path" d="M15.54 13.22C14.95 12.63 14 12.63 13.42 13.22L12.5 14.14C12.29 14.34 11.98 14.41 11.71 14.3C10.38 13.71 9.06 12.83 7.88 11.65C6.71 10.48 5.82 9.16 5.24 7.83C5.11 7.56 5.19 7.23 5.4 7.02L6.22 6.19C6.9 5.52 6.9 4.58 6.31 3.99L5.14 2.82C4.36 2.03 3.09 2.03 2.31 2.82L1.66 3.47C0.91 4.21 0.61 5.28 0.81 6.34C1.3 8.95 2.82 11.81 5.27 14.26C7.72 16.71 10.58 18.23 13.19 18.72C14.25 18.92 15.32 18.61 16.06 17.87L16.71 17.22C17.49 16.44 17.49 15.17 16.71 14.39L15.54 13.22Z" stroke="#5946D7" stroke-opacity="1.000000" stroke-width="1.500000" stroke-linejoin="round"/>
	<path id="Path" d="M15.54 13.22C14.95 12.63 14 12.63 13.42 13.22L12.5 14.14C12.29 14.34 11.98 14.41 11.71 14.3C10.38 13.71 9.06 12.83 7.88 11.65C6.71 10.48 5.82 9.16 5.24 7.83C5.11 7.56 5.19 7.23 5.4 7.02L6.22 6.19C6.9 5.52 6.9 4.58 6.31 3.99L5.14 2.82C4.36 2.03 3.09 2.03 2.31 2.82L1.66 3.47C0.91 4.21 0.61 5.28 0.81 6.34C1.3 8.95 2.82 11.81 5.27 14.26C7.72 16.71 10.58 18.23 13.19 18.72C14.25 18.92 15.32 18.61 16.06 17.87L16.71 17.22C17.49 16.44 17.49 15.17 16.71 14.39L15.54 13.22Z" stroke="#6B59CC" stroke-opacity="1.000000" stroke-width="1.500000" stroke-linejoin="round"/>
	<g opacity="0.500000">
		<path id="Vector" d="M10.75 4.77C11.78 4.76 12.81 5.14 13.6 5.93C14.39 6.71 14.77 7.75 14.76 8.78M18.78 8.78C18.78 6.73 18 4.67 16.43 3.1C14.86 1.53 12.8 0.75 10.75 0.75" stroke="#2E1066" stroke-opacity="1.000000" stroke-width="1.500000" stroke-linejoin="round"/>
		<path id="Vector" d="M10.75 4.77C11.78 4.76 12.81 5.14 13.6 5.93C14.39 6.71 14.77 7.75 14.76 8.78M18.78 8.78C18.78 6.73 18 4.67 16.43 3.1C14.86 1.53 12.8 0.75 10.75 0.75" stroke="#410F9E" stroke-opacity="1.000000" stroke-width="1.500000" stroke-linejoin="round"/>
		<path id="Vector" d="M10.75 4.77C11.78 4.76 12.81 5.14 13.6 5.93C14.39 6.71 14.77 7.75 14.76 8.78M18.78 8.78C18.78 6.73 18 4.67 16.43 3.1C14.86 1.53 12.8 0.75 10.75 0.75" stroke="#453888" stroke-opacity="1.000000" stroke-width="1.500000" stroke-linejoin="round"/>
		<path id="Vector" d="M10.75 4.77C11.78 4.76 12.81 5.14 13.6 5.93C14.39 6.71 14.77 7.75 14.76 8.78M18.78 8.78C18.78 6.73 18 4.67 16.43 3.1C14.86 1.53 12.8 0.75 10.75 0.75" stroke="#5946D7" stroke-opacity="1.000000" stroke-width="1.500000" stroke-linejoin="round"/>
		<path id="Vector" d="M10.75 4.77C11.78 4.76 12.81 5.14 13.6 5.93C14.39 6.71 14.77 7.75 14.76 8.78M18.78 8.78C18.78 6.73 18 4.67 16.43 3.1C14.86 1.53 12.8 0.75 10.75 0.75" stroke="#6B59CC" stroke-opacity="1.000000" stroke-width="1.500000" stroke-linejoin="round"/>
	</g>
</svg>
