<svg width="20.003906" height="20.003906" viewBox="0 0 20.0039 20.0039" fill="none" xmlns="http://www.w3.org/2000/svg" xmlns:xlink="http://www.w3.org/1999/xlink">
	<desc>
			Created with Pixso.
	</desc>
	<defs/>
	<path id="Union" d="M9 18Q7.99805 18 7.04297 17.7871Q6.25391 17.6133 5.49609 17.293Q4.73242 16.9688 4.05273 16.5215Q3.29297 16.0215 2.63672 15.3633Q1.97852 14.707 1.47852 13.9473Q1.03125 13.2676 0.707031 12.5039Q0.386719 11.7461 0.212891 10.957L0.212891 10.957Q0 10.002 0 9Q0 7.99805 0.212891 7.04297L0.212891 7.04297Q0.386719 6.25391 0.707031 5.49609Q1.03125 4.73242 1.47852 4.05273Q1.97852 3.29297 2.63672 2.63672Q3.29297 1.97852 4.05273 1.47852Q4.73242 1.03125 5.49609 0.707031Q6.25391 0.386719 7.04297 0.212891L7.04297 0.212891Q7.99805 0 9 0Q10.002 0 10.957 0.212891L10.957 0.212891Q11.7461 0.386719 12.5039 0.707031Q13.2676 1.03125 13.9473 1.47852Q14.707 1.97852 15.3633 2.63672Q16.0215 3.29297 16.5215 4.05273Q16.9688 4.73242 17.293 5.49609Q17.6133 6.25391 17.7871 7.04297Q18 7.99805 18 9Q18 10.002 17.7871 10.957L17.7871 10.957Q17.6133 11.7461 17.293 12.5039Q16.9688 13.2676 16.5215 13.9473Q16.293 14.293 16.0332 14.6191L19.707 18.293C20.1035 18.6895 20.1035 19.3105 19.707 19.707C19.3105 20.1035 18.6895 20.1035 18.293 19.707L14.6191 16.0332Q14.293 16.293 13.9473 16.5215Q13.2676 16.9688 12.5039 17.293Q11.7461 17.6133 10.957 17.7871L10.957 17.7871Q10.002 18 9 18ZM9 16Q9.79883 16 10.5605 15.8262Q11.1543 15.6914 11.7246 15.4512Q12.3086 15.2031 12.8301 14.8613Q13.4316 14.4688 13.9492 13.9492Q14.4688 13.4316 14.8613 12.8301Q15.2031 12.3086 15.4512 11.7246Q15.6914 11.1543 15.8262 10.5605L15.8262 10.5605L15.8262 10.5605Q16 9.79883 16 9Q16 8.20117 15.8262 7.43945Q15.6914 6.8457 15.4512 6.27539Q15.2031 5.69141 14.8613 5.16992L14.8613 5.16992Q14.4688 4.56836 13.9492 4.05078Q13.4316 3.53125 12.8301 3.13867L12.8301 3.13867L12.8301 3.13867Q12.3086 2.79688 11.7246 2.54883Q11.1543 2.30859 10.5605 2.17383L10.5605 2.17383Q9.79883 2 9 2Q8.20117 2 7.43945 2.17383L7.43945 2.17383L7.43945 2.17383Q6.8457 2.30859 6.27539 2.54883Q5.69141 2.79688 5.16992 3.13867L5.16992 3.13867Q4.56836 3.53125 4.05078 4.05078Q3.53125 4.56836 3.13867 5.16992Q2.79688 5.69141 2.54883 6.27539Q2.30859 6.8457 2.17383 7.43945Q2 8.20117 2 9Q2 9.79883 2.17383 10.5605L2.17383 10.5605Q2.30859 11.1543 2.54883 11.7246Q2.79688 12.3086 3.13867 12.8301L3.13867 12.8301Q3.53125 13.4316 4.05078 13.9492Q4.56836 14.4688 5.16992 14.8613Q5.69141 15.2031 6.27539 15.4512Q6.8457 15.6914 7.43945 15.8262L7.43945 15.8262Q8.20117 16 9 16Z" clip-rule="evenodd" fill="#2E1066" fill-opacity="1.000000" fill-rule="evenodd"/>
	<path id="Union" d="M9 18Q7.99805 18 7.04297 17.7871Q6.25391 17.6133 5.49609 17.293Q4.73242 16.9688 4.05273 16.5215Q3.29297 16.0215 2.63672 15.3633Q1.97852 14.707 1.47852 13.9473Q1.03125 13.2676 0.707031 12.5039Q0.386719 11.7461 0.212891 10.957L0.212891 10.957Q0 10.002 0 9Q0 7.99805 0.212891 7.04297L0.212891 7.04297Q0.386719 6.25391 0.707031 5.49609Q1.03125 4.73242 1.47852 4.05273Q1.97852 3.29297 2.63672 2.63672Q3.29297 1.97852 4.05273 1.47852Q4.73242 1.03125 5.49609 0.707031Q6.25391 0.386719 7.04297 0.212891L7.04297 0.212891Q7.99805 0 9 0Q10.002 0 10.957 0.212891L10.957 0.212891Q11.7461 0.386719 12.5039 0.707031Q13.2676 1.03125 13.9473 1.47852Q14.707 1.97852 15.3633 2.63672Q16.0215 3.29297 16.5215 4.05273Q16.9688 4.73242 17.293 5.49609Q17.6133 6.25391 17.7871 7.04297Q18 7.99805 18 9Q18 10.002 17.7871 10.957L17.7871 10.957Q17.6133 11.7461 17.293 12.5039Q16.9688 13.2676 16.5215 13.9473Q16.293 14.293 16.0332 14.6191L19.707 18.293C20.1035 18.6895 20.1035 19.3105 19.707 19.707C19.3105 20.1035 18.6895 20.1035 18.293 19.707L14.6191 16.0332Q14.293 16.293 13.9473 16.5215Q13.2676 16.9688 12.5039 17.293Q11.7461 17.6133 10.957 17.7871L10.957 17.7871Q10.002 18 9 18ZM9 16Q9.79883 16 10.5605 15.8262Q11.1543 15.6914 11.7246 15.4512Q12.3086 15.2031 12.8301 14.8613Q13.4316 14.4688 13.9492 13.9492Q14.4688 13.4316 14.8613 12.8301Q15.2031 12.3086 15.4512 11.7246Q15.6914 11.1543 15.8262 10.5605L15.8262 10.5605L15.8262 10.5605Q16 9.79883 16 9Q16 8.20117 15.8262 7.43945Q15.6914 6.8457 15.4512 6.27539Q15.2031 5.69141 14.8613 5.16992L14.8613 5.16992Q14.4688 4.56836 13.9492 4.05078Q13.4316 3.53125 12.8301 3.13867L12.8301 3.13867L12.8301 3.13867Q12.3086 2.79688 11.7246 2.54883Q11.1543 2.30859 10.5605 2.17383L10.5605 2.17383Q9.79883 2 9 2Q8.20117 2 7.43945 2.17383L7.43945 2.17383L7.43945 2.17383Q6.8457 2.30859 6.27539 2.54883Q5.69141 2.79688 5.16992 3.13867L5.16992 3.13867Q4.56836 3.53125 4.05078 4.05078Q3.53125 4.56836 3.13867 5.16992Q2.79688 5.69141 2.54883 6.27539Q2.30859 6.8457 2.17383 7.43945Q2 8.20117 2 9Q2 9.79883 2.17383 10.5605L2.17383 10.5605Q2.30859 11.1543 2.54883 11.7246Q2.79688 12.3086 3.13867 12.8301L3.13867 12.8301Q3.53125 13.4316 4.05078 13.9492Q4.56836 14.4688 5.16992 14.8613Q5.69141 15.2031 6.27539 15.4512Q6.8457 15.6914 7.43945 15.8262L7.43945 15.8262Q8.20117 16 9 16Z" clip-rule="evenodd" fill="#410F9E" fill-opacity="1.000000" fill-rule="evenodd"/>
	<path id="Union" d="M9 18Q7.99805 18 7.04297 17.7871Q6.25391 17.6133 5.49609 17.293Q4.73242 16.9688 4.05273 16.5215Q3.29297 16.0215 2.63672 15.3633Q1.97852 14.707 1.47852 13.9473Q1.03125 13.2676 0.707031 12.5039Q0.386719 11.7461 0.212891 10.957L0.212891 10.957Q0 10.002 0 9Q0 7.99805 0.212891 7.04297L0.212891 7.04297Q0.386719 6.25391 0.707031 5.49609Q1.03125 4.73242 1.47852 4.05273Q1.97852 3.29297 2.63672 2.63672Q3.29297 1.97852 4.05273 1.47852Q4.73242 1.03125 5.49609 0.707031Q6.25391 0.386719 7.04297 0.212891L7.04297 0.212891Q7.99805 0 9 0Q10.002 0 10.957 0.212891L10.957 0.212891Q11.7461 0.386719 12.5039 0.707031Q13.2676 1.03125 13.9473 1.47852Q14.707 1.97852 15.3633 2.63672Q16.0215 3.29297 16.5215 4.05273Q16.9688 4.73242 17.293 5.49609Q17.6133 6.25391 17.7871 7.04297Q18 7.99805 18 9Q18 10.002 17.7871 10.957L17.7871 10.957Q17.6133 11.7461 17.293 12.5039Q16.9688 13.2676 16.5215 13.9473Q16.293 14.293 16.0332 14.6191L19.707 18.293C20.1035 18.6895 20.1035 19.3105 19.707 19.707C19.3105 20.1035 18.6895 20.1035 18.293 19.707L14.6191 16.0332Q14.293 16.293 13.9473 16.5215Q13.2676 16.9688 12.5039 17.293Q11.7461 17.6133 10.957 17.7871L10.957 17.7871Q10.002 18 9 18ZM9 16Q9.79883 16 10.5605 15.8262Q11.1543 15.6914 11.7246 15.4512Q12.3086 15.2031 12.8301 14.8613Q13.4316 14.4688 13.9492 13.9492Q14.4688 13.4316 14.8613 12.8301Q15.2031 12.3086 15.4512 11.7246Q15.6914 11.1543 15.8262 10.5605L15.8262 10.5605L15.8262 10.5605Q16 9.79883 16 9Q16 8.20117 15.8262 7.43945Q15.6914 6.8457 15.4512 6.27539Q15.2031 5.69141 14.8613 5.16992L14.8613 5.16992Q14.4688 4.56836 13.9492 4.05078Q13.4316 3.53125 12.8301 3.13867L12.8301 3.13867L12.8301 3.13867Q12.3086 2.79688 11.7246 2.54883Q11.1543 2.30859 10.5605 2.17383L10.5605 2.17383Q9.79883 2 9 2Q8.20117 2 7.43945 2.17383L7.43945 2.17383L7.43945 2.17383Q6.8457 2.30859 6.27539 2.54883Q5.69141 2.79688 5.16992 3.13867L5.16992 3.13867Q4.56836 3.53125 4.05078 4.05078Q3.53125 4.56836 3.13867 5.16992Q2.79688 5.69141 2.54883 6.27539Q2.30859 6.8457 2.17383 7.43945Q2 8.20117 2 9Q2 9.79883 2.17383 10.5605L2.17383 10.5605Q2.30859 11.1543 2.54883 11.7246Q2.79688 12.3086 3.13867 12.8301L3.13867 12.8301Q3.53125 13.4316 4.05078 13.9492Q4.56836 14.4688 5.16992 14.8613Q5.69141 15.2031 6.27539 15.4512Q6.8457 15.6914 7.43945 15.8262L7.43945 15.8262Q8.20117 16 9 16Z" clip-rule="evenodd" fill="#453888" fill-opacity="1.000000" fill-rule="evenodd"/>
	<path id="Union" d="M9 18Q7.99805 18 7.04297 17.7871Q6.25391 17.6133 5.49609 17.293Q4.73242 16.9688 4.05273 16.5215Q3.29297 16.0215 2.63672 15.3633Q1.97852 14.707 1.47852 13.9473Q1.03125 13.2676 0.707031 12.5039Q0.386719 11.7461 0.212891 10.957L0.212891 10.957Q0 10.002 0 9Q0 7.99805 0.212891 7.04297L0.212891 7.04297Q0.386719 6.25391 0.707031 5.49609Q1.03125 4.73242 1.47852 4.05273Q1.97852 3.29297 2.63672 2.63672Q3.29297 1.97852 4.05273 1.47852Q4.73242 1.03125 5.49609 0.707031Q6.25391 0.386719 7.04297 0.212891L7.04297 0.212891Q7.99805 0 9 0Q10.002 0 10.957 0.212891L10.957 0.212891Q11.7461 0.386719 12.5039 0.707031Q13.2676 1.03125 13.9473 1.47852Q14.707 1.97852 15.3633 2.63672Q16.0215 3.29297 16.5215 4.05273Q16.9688 4.73242 17.293 5.49609Q17.6133 6.25391 17.7871 7.04297Q18 7.99805 18 9Q18 10.002 17.7871 10.957L17.7871 10.957Q17.6133 11.7461 17.293 12.5039Q16.9688 13.2676 16.5215 13.9473Q16.293 14.293 16.0332 14.6191L19.707 18.293C20.1035 18.6895 20.1035 19.3105 19.707 19.707C19.3105 20.1035 18.6895 20.1035 18.293 19.707L14.6191 16.0332Q14.293 16.293 13.9473 16.5215Q13.2676 16.9688 12.5039 17.293Q11.7461 17.6133 10.957 17.7871L10.957 17.7871Q10.002 18 9 18ZM9 16Q9.79883 16 10.5605 15.8262Q11.1543 15.6914 11.7246 15.4512Q12.3086 15.2031 12.8301 14.8613Q13.4316 14.4688 13.9492 13.9492Q14.4688 13.4316 14.8613 12.8301Q15.2031 12.3086 15.4512 11.7246Q15.6914 11.1543 15.8262 10.5605L15.8262 10.5605L15.8262 10.5605Q16 9.79883 16 9Q16 8.20117 15.8262 7.43945Q15.6914 6.8457 15.4512 6.27539Q15.2031 5.69141 14.8613 5.16992L14.8613 5.16992Q14.4688 4.56836 13.9492 4.05078Q13.4316 3.53125 12.8301 3.13867L12.8301 3.13867L12.8301 3.13867Q12.3086 2.79688 11.7246 2.54883Q11.1543 2.30859 10.5605 2.17383L10.5605 2.17383Q9.79883 2 9 2Q8.20117 2 7.43945 2.17383L7.43945 2.17383L7.43945 2.17383Q6.8457 2.30859 6.27539 2.54883Q5.69141 2.79688 5.16992 3.13867L5.16992 3.13867Q4.56836 3.53125 4.05078 4.05078Q3.53125 4.56836 3.13867 5.16992Q2.79688 5.69141 2.54883 6.27539Q2.30859 6.8457 2.17383 7.43945Q2 8.20117 2 9Q2 9.79883 2.17383 10.5605L2.17383 10.5605Q2.30859 11.1543 2.54883 11.7246Q2.79688 12.3086 3.13867 12.8301L3.13867 12.8301Q3.53125 13.4316 4.05078 13.9492Q4.56836 14.4688 5.16992 14.8613Q5.69141 15.2031 6.27539 15.4512Q6.8457 15.6914 7.43945 15.8262L7.43945 15.8262Q8.20117 16 9 16Z" clip-rule="evenodd" fill="#5946D7" fill-opacity="1.000000" fill-rule="evenodd"/>
</svg>
