<svg width="72.000000" height="12.000000" viewBox="0 0 72 12" fill="none" xmlns="http://www.w3.org/2000/svg" xmlns:xlink="http://www.w3.org/1999/xlink">
	<desc>
			Created with Pixso.
	</desc>
	<defs>
		<clipPath id="clip1_6169">
			<rect id="General / rate-full" width="12.000000" height="12.000000" fill="white" fill-opacity="0"/>
		</clipPath>
		<clipPath id="clip1_6171">
			<rect id="General / rate-full" width="12.000000" height="12.000000" transform="translate(15.000000 0.000000)" fill="white" fill-opacity="0"/>
		</clipPath>
		<clipPath id="clip1_6173">
			<rect id="General / rate-full" width="12.000000" height="12.000000" transform="translate(30.000000 0.000000)" fill="white" fill-opacity="0"/>
		</clipPath>
		<clipPath id="clip1_6175">
			<rect id="General / rate-full" width="12.000000" height="12.000000" transform="translate(45.000000 0.000000)" fill="white" fill-opacity="0"/>
		</clipPath>
		<clipPath id="clip1_6177">
			<rect id="General / rate-full" width="12.000000" height="12.000000" transform="translate(60.000000 0.000000)" fill="white" fill-opacity="0"/>
		</clipPath>
	</defs>
	<rect id="General / rate-full" width="12.000000" height="12.000000" fill="#FFFFFF" fill-opacity="0"/>
	<g clip-path="url(#clip1_6169)">
		<path id="Rate Full" d="M6.71 0.58L8.21 3.75L11.29 4.08C11.44 4.1 11.59 4.16 11.71 4.26C11.83 4.36 11.92 4.49 11.97 4.64C12.01 4.79 12.01 4.95 11.97 5.1C11.92 5.25 11.83 5.38 11.71 5.48L9.25 7.5L10.01 10.89C10.05 11.04 10.03 11.2 9.98 11.34C9.92 11.49 9.83 11.61 9.7 11.7C9.58 11.79 9.43 11.85 9.27 11.85C9.12 11.86 8.97 11.82 8.83 11.74L6 10.01L3.15 11.74C3.02 11.82 2.87 11.86 2.71 11.85C2.56 11.84 2.41 11.79 2.28 11.7C2.16 11.61 2.06 11.49 2.01 11.34C1.95 11.2 1.94 11.04 1.97 10.89L2.74 7.5L0.28 5.48C0.16 5.38 0.07 5.25 0.03 5.1C-0.02 4.95 -0.02 4.79 0.02 4.64C0.07 4.49 0.16 4.36 0.28 4.26C0.4 4.16 0.55 4.1 0.7 4.08L3.78 3.76L5.28 0.58C5.35 0.45 5.45 0.33 5.57 0.25C5.7 0.18 5.84 0.13 6 0.13C6.14 0.13 6.29 0.18 6.41 0.25C6.54 0.33 6.64 0.45 6.71 0.58Z" fill="#FF9431" fill-opacity="1.000000" fill-rule="nonzero"/>
	</g>
	<rect id="General / rate-full" width="12.000000" height="12.000000" transform="translate(15.000000 0.000000)" fill="#FFFFFF" fill-opacity="0"/>
	<g clip-path="url(#clip1_6171)">
		<path id="Rate Full" d="M21.71 0.58L23.21 3.75L26.29 4.08C26.44 4.1 26.59 4.16 26.71 4.26C26.83 4.36 26.92 4.49 26.97 4.64C27.01 4.79 27.01 4.95 26.97 5.1C26.92 5.25 26.83 5.38 26.71 5.48L24.25 7.5L25.01 10.89C25.05 11.04 25.03 11.2 24.98 11.34C24.92 11.49 24.83 11.61 24.7 11.7C24.58 11.79 24.43 11.85 24.27 11.85C24.12 11.86 23.97 11.82 23.83 11.74L21 10.01L18.15 11.74C18.02 11.82 17.87 11.86 17.71 11.85C17.56 11.84 17.41 11.79 17.28 11.7C17.16 11.61 17.06 11.49 17.01 11.34C16.95 11.2 16.94 11.04 16.97 10.89L17.74 7.5L15.28 5.48C15.16 5.38 15.07 5.25 15.03 5.1C14.98 4.95 14.98 4.79 15.02 4.64C15.07 4.49 15.16 4.36 15.28 4.26C15.4 4.16 15.55 4.1 15.7 4.08L18.78 3.76L20.28 0.58C20.35 0.45 20.45 0.33 20.57 0.25C20.7 0.18 20.84 0.13 21 0.13C21.14 0.13 21.29 0.18 21.41 0.25C21.54 0.33 21.64 0.45 21.71 0.58Z" fill="#FF9431" fill-opacity="1.000000" fill-rule="nonzero"/>
	</g>
	<rect id="General / rate-full" width="12.000000" height="12.000000" transform="translate(30.000000 0.000000)" fill="#FFFFFF" fill-opacity="0"/>
	<g clip-path="url(#clip1_6173)">
		<path id="Rate Full" d="M36.71 0.58L38.21 3.75L41.29 4.08C41.44 4.1 41.59 4.16 41.71 4.26C41.83 4.36 41.92 4.49 41.97 4.64C42.01 4.79 42.01 4.95 41.97 5.1C41.92 5.25 41.83 5.38 41.71 5.48L39.25 7.5L40.01 10.89C40.05 11.04 40.03 11.2 39.98 11.34C39.92 11.49 39.83 11.61 39.7 11.7C39.58 11.79 39.43 11.85 39.27 11.85C39.12 11.86 38.97 11.82 38.83 11.74L36 10.01L33.15 11.74C33.02 11.82 32.87 11.86 32.71 11.85C32.56 11.84 32.41 11.79 32.28 11.7C32.16 11.61 32.06 11.49 32.01 11.34C31.95 11.2 31.94 11.04 31.97 10.89L32.74 7.5L30.28 5.48C30.16 5.38 30.07 5.25 30.03 5.1C29.98 4.95 29.98 4.79 30.02 4.64C30.07 4.49 30.16 4.36 30.28 4.26C30.4 4.16 30.55 4.1 30.7 4.08L33.78 3.76L35.28 0.58C35.35 0.45 35.45 0.33 35.57 0.25C35.7 0.18 35.84 0.13 36 0.13C36.14 0.13 36.29 0.18 36.41 0.25C36.54 0.33 36.64 0.45 36.71 0.58Z" fill="#FF9431" fill-opacity="1.000000" fill-rule="nonzero"/>
	</g>
	<rect id="General / rate-full" width="12.000000" height="12.000000" transform="translate(45.000000 0.000000)" fill="#FFFFFF" fill-opacity="0"/>
	<g clip-path="url(#clip1_6175)">
		<path id="Rate Full" d="M51.71 0.58L53.21 3.75L56.29 4.08C56.44 4.1 56.59 4.16 56.71 4.26C56.83 4.36 56.92 4.49 56.97 4.64C57.01 4.79 57.01 4.95 56.97 5.1C56.92 5.25 56.83 5.38 56.71 5.48L54.25 7.5L55.01 10.89C55.05 11.04 55.03 11.2 54.98 11.34C54.92 11.49 54.83 11.61 54.7 11.7C54.58 11.79 54.43 11.85 54.27 11.85C54.12 11.86 53.97 11.82 53.83 11.74L51 10.01L48.15 11.74C48.02 11.82 47.87 11.86 47.71 11.85C47.56 11.84 47.41 11.79 47.28 11.7C47.16 11.61 47.06 11.49 47.01 11.34C46.95 11.2 46.94 11.04 46.97 10.89L47.74 7.5L45.28 5.48C45.16 5.38 45.07 5.25 45.03 5.1C44.98 4.95 44.98 4.79 45.02 4.64C45.07 4.49 45.16 4.36 45.28 4.26C45.4 4.16 45.55 4.1 45.7 4.08L48.78 3.76L50.28 0.58C50.35 0.45 50.45 0.33 50.57 0.25C50.7 0.18 50.84 0.13 51 0.13C51.14 0.13 51.29 0.18 51.41 0.25C51.54 0.33 51.64 0.45 51.71 0.58Z" fill="#FF9431" fill-opacity="1.000000" fill-rule="nonzero"/>
	</g>
	<rect id="General / rate-full" width="12.000000" height="12.000000" transform="translate(60.000000 0.000000)" fill="#FFFFFF" fill-opacity="0"/>
	<g clip-path="url(#clip1_6177)">
		<path id="Rate Full" d="M66.71 0.58L68.21 3.75L71.29 4.08C71.44 4.1 71.59 4.16 71.71 4.26C71.83 4.36 71.92 4.49 71.97 4.64C72.01 4.79 72.01 4.95 71.97 5.1C71.92 5.25 71.83 5.38 71.71 5.48L69.25 7.5L70.01 10.89C70.05 11.04 70.03 11.2 69.98 11.34C69.92 11.49 69.83 11.61 69.7 11.7C69.58 11.79 69.43 11.85 69.27 11.85C69.12 11.86 68.97 11.82 68.83 11.74L66 10.01L63.15 11.74C63.02 11.82 62.87 11.86 62.71 11.85C62.56 11.84 62.41 11.79 62.28 11.7C62.16 11.61 62.06 11.49 62.01 11.34C61.95 11.2 61.94 11.04 61.97 10.89L62.74 7.5L60.28 5.48C60.16 5.38 60.07 5.25 60.03 5.1C59.98 4.95 59.98 4.79 60.02 4.64C60.07 4.49 60.16 4.36 60.28 4.26C60.4 4.16 60.55 4.1 60.7 4.08L63.78 3.76L65.28 0.58C65.35 0.45 65.45 0.33 65.57 0.25C65.7 0.18 65.84 0.13 66 0.13C66.14 0.13 66.29 0.18 66.41 0.25C66.54 0.33 66.64 0.45 66.71 0.58Z" fill="#C5C3C8" fill-opacity="1.000000" fill-rule="nonzero"/>
		<mask id="mask1_6179" mask-type="alpha" maskUnits="userSpaceOnUse" x="59.996094" y="0.138672" width="12.009506" height="11.718836">
			<path id="Rate Full" d="M66.71 0.58L68.21 3.75L71.29 4.08C71.44 4.1 71.59 4.16 71.71 4.26C71.83 4.36 71.92 4.49 71.97 4.64C72.01 4.79 72.01 4.95 71.97 5.1C71.92 5.25 71.83 5.38 71.71 5.48L69.25 7.5L70.01 10.89C70.05 11.04 70.03 11.2 69.98 11.34C69.92 11.49 69.83 11.61 69.7 11.7C69.58 11.79 69.43 11.85 69.27 11.85C69.12 11.86 68.97 11.82 68.83 11.74L66 10.01L63.15 11.74C63.02 11.82 62.87 11.86 62.71 11.85C62.56 11.84 62.41 11.79 62.28 11.7C62.16 11.61 62.06 11.49 62.01 11.34C61.95 11.2 61.94 11.04 61.97 10.89L62.74 7.5L60.28 5.48C60.16 5.38 60.07 5.25 60.03 5.1C59.98 4.95 59.98 4.79 60.02 4.64C60.07 4.49 60.16 4.36 60.28 4.26C60.4 4.16 60.55 4.1 60.7 4.08L63.78 3.76L65.28 0.58C65.35 0.45 65.45 0.33 65.57 0.25C65.7 0.18 65.84 0.13 66 0.13C66.14 0.13 66.29 0.18 66.41 0.25C66.54 0.33 66.64 0.45 66.71 0.58Z" fill="#FF9431" fill-opacity="1.000000" fill-rule="nonzero"/>
		</mask>
		<g mask="url(#mask1_6179)">
			<rect id="Rectangle 3909" x="66.000000" width="6.000000" height="12.000000" fill="#C5C3C8" fill-opacity="1.000000"/>
		</g>
	</g>
</svg>
