<svg width="17.500000" height="20.500000" viewBox="0 0 17.5 20.5" fill="none" xmlns="http://www.w3.org/2000/svg" xmlns:xlink="http://www.w3.org/1999/xlink">
	<desc>
			Created with Pixso.
	</desc>
	<defs/>
	<path id="Vector 27" d="M8.75 12.25C12.22 12.25 14.21 13.1 15.34 13.96C16.55 14.89 16.75 16.52 16.75 18.05C16.75 18.99 15.99 19.75 15.05 19.75L2.44 19.75C1.5 19.75 0.75 18.99 0.75 18.05C0.75 16.52 0.94 14.89 2.15 13.96C3.28 13.1 5.27 12.25 8.75 12.25Z" fill="#5946D7" fill-opacity="0.100000" fill-rule="nonzero"/>
	<path id="Vector 27" d="M8.75 12.25C5.28 12.25 3.28 13.1 2.15 13.96C0.94 14.89 0.75 16.52 0.75 18.05C0.75 18.99 1.5 19.75 2.44 19.75L15.05 19.75C15.99 19.75 16.75 18.99 16.75 18.05C16.75 16.52 16.55 14.89 15.34 13.96C14.21 13.1 12.21 12.25 8.75 12.25Z" stroke="#2E1066" stroke-opacity="1.000000" stroke-width="1.500000" stroke-linejoin="round"/>
	<path id="Vector 27" d="M8.75 12.25C5.28 12.25 3.28 13.1 2.15 13.96C0.94 14.89 0.75 16.52 0.75 18.05C0.75 18.99 1.5 19.75 2.44 19.75L15.05 19.75C15.99 19.75 16.75 18.99 16.75 18.05C16.75 16.52 16.55 14.89 15.34 13.96C14.21 13.1 12.21 12.25 8.75 12.25Z" stroke="#410F9E" stroke-opacity="1.000000" stroke-width="1.500000" stroke-linejoin="round"/>
	<path id="Vector 27" d="M8.75 12.25C5.28 12.25 3.28 13.1 2.15 13.96C0.94 14.89 0.75 16.52 0.75 18.05C0.75 18.99 1.5 19.75 2.44 19.75L15.05 19.75C15.99 19.75 16.75 18.99 16.75 18.05C16.75 16.52 16.55 14.89 15.34 13.96C14.21 13.1 12.21 12.25 8.75 12.25Z" stroke="#453888" stroke-opacity="1.000000" stroke-width="1.500000" stroke-linejoin="round"/>
	<path id="Vector 27" d="M8.75 12.25C5.28 12.25 3.28 13.1 2.15 13.96C0.94 14.89 0.75 16.52 0.75 18.05C0.75 18.99 1.5 19.75 2.44 19.75L15.05 19.75C15.99 19.75 16.75 18.99 16.75 18.05C16.75 16.52 16.55 14.89 15.34 13.96C14.21 13.1 12.21 12.25 8.75 12.25Z" stroke="#5946D7" stroke-opacity="1.000000" stroke-width="1.500000" stroke-linejoin="round"/>
	<path id="Vector 27" d="M8.75 12.25C5.28 12.25 3.28 13.1 2.15 13.96C0.94 14.89 0.75 16.52 0.75 18.05C0.75 18.99 1.5 19.75 2.44 19.75L15.05 19.75C15.99 19.75 16.75 18.99 16.75 18.05C16.75 16.52 16.55 14.89 15.34 13.96C14.21 13.1 12.21 12.25 8.75 12.25Z" stroke="#6B59CC" stroke-opacity="1.000000" stroke-width="1.500000" stroke-linejoin="round"/>
	<circle id="Ellipse 1" cx="8.750000" cy="4.750000" r="4.000000" fill="#5946D7" fill-opacity="0"/>
	<circle id="Ellipse 1" cx="8.750000" cy="4.750000" r="4.000000" stroke="#2E1066" stroke-opacity="1.000000" stroke-width="1.500000"/>
	<circle id="Ellipse 1" cx="8.750000" cy="4.750000" r="4.000000" stroke="#410F9E" stroke-opacity="1.000000" stroke-width="1.500000"/>
	<circle id="Ellipse 1" cx="8.750000" cy="4.750000" r="4.000000" stroke="#453888" stroke-opacity="1.000000" stroke-width="1.500000"/>
	<circle id="Ellipse 1" cx="8.750000" cy="4.750000" r="4.000000" stroke="#5946D7" stroke-opacity="1.000000" stroke-width="1.500000"/>
	<circle id="Ellipse 1" cx="8.750000" cy="4.750000" r="4.000000" stroke="#6B59CC" stroke-opacity="1.000000" stroke-width="1.500000"/>
</svg>
